M48
; DRILL file {KiCad (6.0.6-0)} date 
; FORMAT={-:-/ absolute / inch / decimal}
; #@! TF.CreationDate,2022-08-07T16:55:02+08:00
; #@! TF.GenerationSoftware,Kicad,Pcbnew,(6.0.6-0)
; #@! TF.FileFunction,Plated,1,2,PTH
FMAT,2
INCH
; #@! TA.AperFunction,Plated,PTH,ViaDrill
T1C0.0118
; #@! TA.AperFunction,Plated,PTH,ComponentDrill
T2C0.0236
%
G90
G05
T1
X3.56Y-3.55
X3.56Y-3.59
X3.56Y-3.63
X3.56Y-3.67
X3.67Y-3.38
X3.67Y-3.8
X3.71Y-3.38
X3.71Y-3.8
X3.7484Y-3.7843
X3.75Y-3.38
X3.78Y-3.54
X3.79Y-3.79
X3.8Y-3.44
X3.829Y-3.4405
X3.8295Y-3.79
X3.84Y-3.41
X3.84Y-3.73
X3.86Y-3.46
X3.86Y-3.79
X3.89Y-3.534
X3.89Y-3.65
X3.891Y-3.681
X3.9Y-3.81
X3.95Y-3.55
X3.95Y-3.58
X3.95Y-3.61
X3.96Y-3.67
X4.01Y-3.38
X4.0102Y-3.7138
X4.0489Y-3.7138
X4.05Y-3.53
X4.08Y-3.53
X4.0897Y-3.7111
X4.11Y-3.53
X4.11Y-3.57
X4.11Y-3.6
X4.11Y-3.68
X4.13Y-3.4
X4.135Y-3.7558
X4.16Y-3.4652
X4.1639Y-3.4361
X4.195Y-3.465
X4.2267Y-3.3965
X4.307Y-3.6502
X4.3084Y-3.5213
X4.31Y-3.6
X4.33Y-3.68
X4.33Y-3.77
X4.33Y-3.81
X4.34Y-3.55
X4.34Y-3.6
T2
G00X3.4622Y-3.433
M15
G01X3.4386Y-3.433
M16
G05
G00X3.4622Y-3.7735
M15
G01X3.4386Y-3.7735
M16
G05
G00X3.6366Y-3.433
M15
G01X3.5933Y-3.433
M16
G05
G00X3.6366Y-3.7735
M15
G01X3.5933Y-3.7735
M16
G05
T0
M30
