%TF.GenerationSoftware,KiCad,Pcbnew,(6.0.6-0)*%
%TF.CreationDate,2022-08-07T16:54:58+08:00*%
%TF.ProjectId,ST-Link-Nano,53542d4c-696e-46b2-9d4e-616e6f2e6b69,rev?*%
%TF.SameCoordinates,Original*%
%TF.FileFunction,Copper,L2,Bot*%
%TF.FilePolarity,Positive*%
%FSLAX46Y46*%
G04 Gerber Fmt 4.6, Leading zero omitted, Abs format (unit mm)*
G04 Created by KiCad (PCBNEW (6.0.6-0)) date 2022-08-07 16:54:58*
%MOMM*%
%LPD*%
G01*
G04 APERTURE LIST*
G04 Aperture macros list*
%AMRoundRect*
0 Rectangle with rounded corners*
0 $1 Rounding radius*
0 $2 $3 $4 $5 $6 $7 $8 $9 X,Y pos of 4 corners*
0 Add a 4 corners polygon primitive as box body*
4,1,4,$2,$3,$4,$5,$6,$7,$8,$9,$2,$3,0*
0 Add four circle primitives for the rounded corners*
1,1,$1+$1,$2,$3*
1,1,$1+$1,$4,$5*
1,1,$1+$1,$6,$7*
1,1,$1+$1,$8,$9*
0 Add four rect primitives between the rounded corners*
20,1,$1+$1,$2,$3,$4,$5,0*
20,1,$1+$1,$4,$5,$6,$7,0*
20,1,$1+$1,$6,$7,$8,$9,0*
20,1,$1+$1,$8,$9,$2,$3,0*%
G04 Aperture macros list end*
%TA.AperFunction,ComponentPad*%
%ADD10RoundRect,0.500000X-0.550000X0.000000X-0.550000X0.000000X0.550000X0.000000X0.550000X0.000000X0*%
%TD*%
%TA.AperFunction,ComponentPad*%
%ADD11RoundRect,0.500000X-0.300000X0.000000X-0.300000X0.000000X0.300000X0.000000X0.300000X0.000000X0*%
%TD*%
%TA.AperFunction,SMDPad,CuDef*%
%ADD12RoundRect,0.317500X-0.952500X-0.317500X0.952500X-0.317500X0.952500X0.317500X-0.952500X0.317500X0*%
%TD*%
%TA.AperFunction,SMDPad,CuDef*%
%ADD13R,1.200000X1.400000*%
%TD*%
%TA.AperFunction,SMDPad,CuDef*%
%ADD14RoundRect,0.140000X0.170000X-0.140000X0.170000X0.140000X-0.170000X0.140000X-0.170000X-0.140000X0*%
%TD*%
%TA.AperFunction,SMDPad,CuDef*%
%ADD15RoundRect,0.150000X-0.512500X-0.150000X0.512500X-0.150000X0.512500X0.150000X-0.512500X0.150000X0*%
%TD*%
%TA.AperFunction,ViaPad*%
%ADD16C,0.500000*%
%TD*%
%TA.AperFunction,Conductor*%
%ADD17C,0.250000*%
%TD*%
%TA.AperFunction,Conductor*%
%ADD18C,0.300000*%
%TD*%
G04 APERTURE END LIST*
D10*
%TO.P,J1,1,SH1*%
%TO.N,GND*%
X91820374Y-87197063D03*
%TO.P,J1,2,SH2*%
X91820374Y-95847063D03*
D11*
%TO.P,J1,3,SH3*%
X87640374Y-87197063D03*
%TO.P,J1,4,SH4*%
X87640374Y-95847063D03*
%TD*%
D12*
%TO.P,J3,5,Pin_5*%
%TO.N,/TX*%
X113030000Y-87646105D03*
%TO.P,J3,6,Pin_6*%
%TO.N,/RX*%
X113030000Y-90186105D03*
%TO.P,J3,7,Pin_7*%
%TO.N,+5V*%
X113030000Y-92726105D03*
%TO.P,J3,8,Pin_8*%
%TO.N,/nRST*%
X113030000Y-95266105D03*
%TD*%
D13*
%TO.P,Y1,1,1*%
%TO.N,Net-(U2-Pad5)*%
X101617158Y-93172789D03*
%TO.P,Y1,2,2*%
%TO.N,GND*%
X101617158Y-90972789D03*
%TO.P,Y1,3,3*%
%TO.N,Net-(U2-Pad6)*%
X103317158Y-90972789D03*
%TO.P,Y1,4,4*%
%TO.N,GND*%
X103317158Y-93172789D03*
%TD*%
D14*
%TO.P,C2,1*%
%TO.N,+5V*%
X93755858Y-95392503D03*
%TO.P,C2,2*%
%TO.N,GND*%
X93755858Y-94432503D03*
%TD*%
%TO.P,C3,1*%
%TO.N,+3V3*%
X98997563Y-95369678D03*
%TO.P,C3,2*%
%TO.N,GND*%
X98997563Y-94409678D03*
%TD*%
D15*
%TO.P,U1,1,VIN*%
%TO.N,+5V*%
X95213928Y-95374751D03*
%TO.P,U1,2,GND*%
%TO.N,GND*%
X95213928Y-94424751D03*
%TO.P,U1,3,CE*%
%TO.N,+5V*%
X95213928Y-93474751D03*
%TO.P,U1,4,NC*%
%TO.N,unconnected-(U1-Pad4)*%
X97488928Y-93474751D03*
%TO.P,U1,5,VOUT*%
%TO.N,+3V3*%
X97488928Y-95374751D03*
%TD*%
D16*
%TO.N,GND*%
X94234000Y-85852000D03*
X100330000Y-91694000D03*
X103632000Y-89662000D03*
X96520000Y-87376000D03*
X96012000Y-89916000D03*
X96266000Y-96266000D03*
X109982000Y-95758000D03*
X109982000Y-96774000D03*
X90424000Y-90170000D03*
X102870000Y-89662000D03*
X106553000Y-88011000D03*
X100330000Y-90170000D03*
X95250000Y-85852000D03*
X90424000Y-93218000D03*
X103878086Y-94260805D03*
X104394000Y-93472000D03*
X101859550Y-94330711D03*
X90424000Y-92202000D03*
X100330000Y-90932000D03*
X102842603Y-94330711D03*
X104902000Y-86360000D03*
X109433434Y-89441785D03*
X97536000Y-86614000D03*
X94234000Y-96520000D03*
X90424000Y-91186000D03*
X93218000Y-96520000D03*
X107358784Y-86271860D03*
X98044000Y-96266000D03*
X104394000Y-90678000D03*
X93218000Y-85852000D03*
X97268039Y-96266000D03*
X97255954Y-87389081D03*
X98831233Y-93497233D03*
%TO.N,+5V*%
X95208974Y-96122477D03*
%TO.N,+3V3*%
X105029050Y-95398160D03*
X98044000Y-87884000D03*
X97536000Y-94742000D03*
X104394000Y-89662000D03*
X109474000Y-91440000D03*
X109398178Y-92714400D03*
%TO.N,/ST_SWCLK*%
X110236000Y-90170000D03*
X99060000Y-96774000D03*
%TO.N,/TX*%
X105664000Y-88015374D03*
%TO.N,/RX*%
X105762500Y-87277500D03*
%TO.N,/nRST*%
X101854000Y-85852000D03*
%TO.N,/JTMS*%
X98806000Y-89764500D03*
X110236000Y-91440000D03*
%TO.N,/ST_SWDIO*%
X98806000Y-92710000D03*
X109982000Y-93472000D03*
%TO.N,Net-(U2-Pad5)*%
X100584000Y-93218000D03*
%TO.N,Net-(U2-Pad6)*%
X104394000Y-91440000D03*
%TD*%
D17*
%TO.N,GND*%
X96266000Y-94742000D02*
X96266000Y-96266000D01*
X93755858Y-94432503D02*
X95956503Y-94432503D01*
X95956503Y-94432503D02*
X96266000Y-94742000D01*
%TO.N,+5V*%
X108712000Y-94996000D02*
X109907569Y-94996000D01*
D18*
X95213928Y-95374751D02*
X95213928Y-96117523D01*
D17*
X99501000Y-97349000D02*
X100330000Y-96520000D01*
X107188000Y-96520000D02*
X108712000Y-94996000D01*
D18*
X95213928Y-95374751D02*
X93773610Y-95374751D01*
X95213928Y-96117523D02*
X95208974Y-96122477D01*
D17*
X109907569Y-94996000D02*
X112177464Y-92726105D01*
X95213928Y-93474751D02*
X93215249Y-93474751D01*
D18*
X93773610Y-95374751D02*
X93755858Y-95392503D01*
D17*
X93360503Y-95392503D02*
X93755858Y-95392503D01*
X93215249Y-93474751D02*
X92710000Y-93980000D01*
X95208974Y-96122477D02*
X96435497Y-97349000D01*
X92710000Y-93980000D02*
X92710000Y-94742000D01*
X100330000Y-96520000D02*
X107188000Y-96520000D01*
X112177464Y-92726105D02*
X113030000Y-92726105D01*
X92710000Y-94742000D02*
X93360503Y-95392503D01*
X96435497Y-97349000D02*
X99501000Y-97349000D01*
%TO.N,+3V3*%
X96501428Y-90442572D02*
X97282000Y-89662000D01*
X107696000Y-89662000D02*
X104394000Y-89662000D01*
X109474000Y-91440000D02*
X107696000Y-89662000D01*
X97536000Y-95327679D02*
X97488928Y-95374751D01*
X97536000Y-94742000D02*
X97028000Y-94742000D01*
D18*
X98992490Y-95374751D02*
X98997563Y-95369678D01*
D17*
X105000568Y-95369678D02*
X105029050Y-95398160D01*
X109469600Y-92714400D02*
X109398178Y-92714400D01*
X106785840Y-95398160D02*
X109469600Y-92714400D01*
X97282000Y-89662000D02*
X98044000Y-88900000D01*
X98044000Y-88900000D02*
X98044000Y-87884000D01*
D18*
X97488928Y-95374751D02*
X98992490Y-95374751D01*
D17*
X105029050Y-95398160D02*
X106785840Y-95398160D01*
X96520000Y-94234000D02*
X96501428Y-94215428D01*
X97536000Y-94742000D02*
X97536000Y-95327679D01*
X98997563Y-95369678D02*
X105000568Y-95369678D01*
X96501428Y-94215428D02*
X96501428Y-93428000D01*
X97028000Y-94742000D02*
X96520000Y-94234000D01*
X96501428Y-93428000D02*
X96501428Y-90442572D01*
%TO.N,/ST_SWCLK*%
X110998000Y-90932000D02*
X110236000Y-90170000D01*
X110998000Y-93269173D02*
X110998000Y-90932000D01*
X99060000Y-96774000D02*
X99860840Y-95973160D01*
X110220173Y-94047000D02*
X110998000Y-93269173D01*
X106847236Y-95973160D02*
X108773396Y-94047000D01*
X108773396Y-94047000D02*
X110220173Y-94047000D01*
X99860840Y-95973160D02*
X106847236Y-95973160D01*
%TO.N,/TX*%
X105187500Y-87538874D02*
X105664000Y-88015374D01*
X110506105Y-87646105D02*
X113030000Y-87646105D01*
X105524327Y-86702500D02*
X106047000Y-86702500D01*
X108925500Y-86827500D02*
X109728000Y-87630000D01*
X105187500Y-87344500D02*
X105187500Y-87538874D01*
X106172000Y-86827500D02*
X108925500Y-86827500D01*
X109728000Y-87630000D02*
X110490000Y-87630000D01*
X110490000Y-87630000D02*
X110506105Y-87646105D01*
X106047000Y-86702500D02*
X106172000Y-86827500D01*
X105187500Y-87344500D02*
X105187500Y-87039327D01*
X105187500Y-87039327D02*
X105524327Y-86702500D01*
%TO.N,/RX*%
X105762500Y-87277500D02*
X108613500Y-87277500D01*
X111522105Y-90186105D02*
X113030000Y-90186105D01*
X108613500Y-87277500D02*
X111522105Y-90186105D01*
%TO.N,/nRST*%
X102108000Y-85598000D02*
X101854000Y-85852000D01*
X114300000Y-85598000D02*
X102108000Y-85598000D01*
X115062000Y-92710000D02*
X115062000Y-86360000D01*
X115062000Y-86360000D02*
X114300000Y-85598000D01*
X113030000Y-95266105D02*
X114283895Y-95266105D01*
X115062000Y-94488000D02*
X115062000Y-92710000D01*
X114283895Y-95266105D02*
X115062000Y-94488000D01*
%TO.N,/JTMS*%
X99822000Y-88646000D02*
X104394000Y-88646000D01*
X98806000Y-89662000D02*
X99314000Y-89154000D01*
X99314000Y-89154000D02*
X99822000Y-88646000D01*
X104394000Y-88646000D02*
X107442000Y-88646000D01*
X107696000Y-88646000D02*
X107442000Y-88646000D01*
X110236000Y-91186000D02*
X107696000Y-88646000D01*
X98806000Y-89764500D02*
X98806000Y-89662000D01*
%TO.N,/ST_SWDIO*%
X109160005Y-92139400D02*
X109636351Y-92139400D01*
X99060000Y-92710000D02*
X101319678Y-94969678D01*
X109636351Y-92139400D02*
X109982000Y-92485049D01*
X101319678Y-94969678D02*
X104674322Y-94969678D01*
X109982000Y-92485049D02*
X109982000Y-93472000D01*
X98806000Y-92710000D02*
X99060000Y-92710000D01*
X106476245Y-94823160D02*
X109160005Y-92139400D01*
X104820840Y-94823160D02*
X106476245Y-94823160D01*
X104674322Y-94969678D02*
X104820840Y-94823160D01*
%TO.N,Net-(U2-Pad5)*%
X101617158Y-93172789D02*
X100629211Y-93172789D01*
X100629211Y-93172789D02*
X100584000Y-93218000D01*
%TO.N,Net-(U2-Pad6)*%
X103317158Y-90972789D02*
X103926789Y-90972789D01*
X103926789Y-90972789D02*
X104394000Y-91440000D01*
%TD*%
%TA.AperFunction,Conductor*%
%TO.N,GND*%
G36*
X114646649Y-93354114D02*
G01*
X114679931Y-93416827D01*
X114682500Y-93442143D01*
X114682500Y-94278616D01*
X114662498Y-94346737D01*
X114645595Y-94367711D01*
X114515101Y-94498205D01*
X114452789Y-94532231D01*
X114381974Y-94527166D01*
X114349302Y-94509072D01*
X114315968Y-94483494D01*
X114270968Y-94448964D01*
X114131822Y-94391328D01*
X114019992Y-94376605D01*
X112040008Y-94376605D01*
X111928178Y-94391328D01*
X111789032Y-94448964D01*
X111669545Y-94540650D01*
X111577859Y-94660137D01*
X111520223Y-94799283D01*
X111505500Y-94911113D01*
X111505500Y-95621097D01*
X111520223Y-95732927D01*
X111577859Y-95872073D01*
X111669545Y-95991560D01*
X111789032Y-96083246D01*
X111928178Y-96140882D01*
X112040008Y-96155605D01*
X114019992Y-96155605D01*
X114131822Y-96140882D01*
X114270968Y-96083246D01*
X114390455Y-95991560D01*
X114482141Y-95872073D01*
X114539777Y-95732927D01*
X114554500Y-95621097D01*
X114554500Y-95584384D01*
X114574502Y-95516263D01*
X114591405Y-95495289D01*
X115100405Y-94986289D01*
X115162717Y-94952263D01*
X115233532Y-94957328D01*
X115290368Y-94999875D01*
X115315179Y-95066395D01*
X115315500Y-95075384D01*
X115315500Y-96752143D01*
X115314671Y-96766572D01*
X115311377Y-96795148D01*
X115314784Y-96807088D01*
X115315155Y-96811621D01*
X115315529Y-96825261D01*
X115313647Y-96895494D01*
X115312728Y-96929781D01*
X115309055Y-96956788D01*
X115279787Y-97074583D01*
X115270392Y-97100169D01*
X115216476Y-97208916D01*
X115201802Y-97231879D01*
X115125756Y-97326492D01*
X115106492Y-97345756D01*
X115011879Y-97421802D01*
X114988916Y-97436476D01*
X114880169Y-97490392D01*
X114854583Y-97499787D01*
X114736788Y-97529055D01*
X114709781Y-97532728D01*
X114684433Y-97533407D01*
X114605261Y-97535529D01*
X114591621Y-97535155D01*
X114587088Y-97534784D01*
X114575148Y-97531377D01*
X114547370Y-97534579D01*
X114546572Y-97534671D01*
X114532143Y-97535500D01*
X100155384Y-97535500D01*
X100087263Y-97515498D01*
X100040770Y-97461842D01*
X100030666Y-97391568D01*
X100060160Y-97326988D01*
X100066289Y-97320405D01*
X100450289Y-96936405D01*
X100512601Y-96902379D01*
X100539384Y-96899500D01*
X107134080Y-96899500D01*
X107158028Y-96902049D01*
X107159693Y-96902128D01*
X107169876Y-96904320D01*
X107180217Y-96903096D01*
X107203223Y-96900373D01*
X107209154Y-96900023D01*
X107209146Y-96899928D01*
X107214324Y-96899500D01*
X107219524Y-96899500D01*
X107224653Y-96898646D01*
X107224656Y-96898646D01*
X107238565Y-96896331D01*
X107244443Y-96895494D01*
X107285001Y-96890694D01*
X107285002Y-96890694D01*
X107295341Y-96889470D01*
X107303593Y-96885507D01*
X107312626Y-96884004D01*
X107321795Y-96879057D01*
X107321797Y-96879056D01*
X107357732Y-96859666D01*
X107363025Y-96856969D01*
X107402082Y-96838215D01*
X107402086Y-96838212D01*
X107409232Y-96834781D01*
X107413508Y-96831186D01*
X107415431Y-96829263D01*
X107417363Y-96827491D01*
X107417442Y-96827448D01*
X107417555Y-96827572D01*
X107418095Y-96827096D01*
X107423814Y-96824010D01*
X107460417Y-96784413D01*
X107463846Y-96780848D01*
X108832290Y-95412405D01*
X108894602Y-95378379D01*
X108921385Y-95375500D01*
X109853649Y-95375500D01*
X109877597Y-95378049D01*
X109879262Y-95378128D01*
X109889445Y-95380320D01*
X109899786Y-95379096D01*
X109922792Y-95376373D01*
X109928723Y-95376023D01*
X109928715Y-95375928D01*
X109933893Y-95375500D01*
X109939093Y-95375500D01*
X109944222Y-95374646D01*
X109944225Y-95374646D01*
X109958134Y-95372331D01*
X109964012Y-95371494D01*
X110004570Y-95366694D01*
X110004571Y-95366694D01*
X110014910Y-95365470D01*
X110023162Y-95361507D01*
X110032195Y-95360004D01*
X110041364Y-95355057D01*
X110041366Y-95355056D01*
X110077301Y-95335666D01*
X110082594Y-95332969D01*
X110121651Y-95314215D01*
X110121655Y-95314212D01*
X110128801Y-95310781D01*
X110133077Y-95307186D01*
X110135000Y-95305263D01*
X110136932Y-95303491D01*
X110137011Y-95303448D01*
X110137124Y-95303572D01*
X110137664Y-95303096D01*
X110143383Y-95300010D01*
X110179986Y-95260413D01*
X110183415Y-95256848D01*
X111807586Y-93632677D01*
X111869898Y-93598651D01*
X111926015Y-93599986D01*
X111928178Y-93600882D01*
X112040008Y-93615605D01*
X114019992Y-93615605D01*
X114131822Y-93600882D01*
X114270968Y-93543246D01*
X114390455Y-93451560D01*
X114456540Y-93365437D01*
X114513875Y-93323572D01*
X114584746Y-93319350D01*
X114646649Y-93354114D01*
G37*
%TD.AperFunction*%
%TA.AperFunction,Conductor*%
G36*
X87357429Y-85341084D02*
G01*
X87361542Y-85341191D01*
X87376087Y-85342414D01*
X87378503Y-85342759D01*
X87390211Y-85346878D01*
X87430421Y-85344687D01*
X87437267Y-85344500D01*
X101348872Y-85345432D01*
X101416991Y-85365439D01*
X101463480Y-85419097D01*
X101473579Y-85489372D01*
X101443305Y-85554839D01*
X101427999Y-85572170D01*
X101366583Y-85702982D01*
X101365203Y-85711846D01*
X101365202Y-85711849D01*
X101358557Y-85754531D01*
X101344350Y-85845773D01*
X101345514Y-85854675D01*
X101345514Y-85854678D01*
X101356205Y-85936433D01*
X101363088Y-85989065D01*
X101421289Y-86121339D01*
X101514276Y-86231960D01*
X101521747Y-86236933D01*
X101521748Y-86236934D01*
X101627101Y-86307063D01*
X101627103Y-86307064D01*
X101634574Y-86312037D01*
X101643138Y-86314713D01*
X101643141Y-86314714D01*
X101697853Y-86331807D01*
X101772510Y-86355132D01*
X101916998Y-86357780D01*
X101926711Y-86355132D01*
X102047763Y-86322130D01*
X102047765Y-86322129D01*
X102056422Y-86319769D01*
X102179572Y-86244154D01*
X102276551Y-86137014D01*
X102319405Y-86048561D01*
X102367107Y-85995979D01*
X102432797Y-85977500D01*
X114090616Y-85977500D01*
X114158737Y-85997502D01*
X114179711Y-86014405D01*
X114645595Y-86480289D01*
X114679621Y-86542601D01*
X114682500Y-86569384D01*
X114682500Y-86930067D01*
X114662498Y-86998188D01*
X114608842Y-87044681D01*
X114538568Y-87054785D01*
X114473988Y-87025291D01*
X114456544Y-87006778D01*
X114390455Y-86920650D01*
X114270968Y-86828964D01*
X114131822Y-86771328D01*
X114019992Y-86756605D01*
X112040008Y-86756605D01*
X111928178Y-86771328D01*
X111789032Y-86828964D01*
X111669545Y-86920650D01*
X111577859Y-87040137D01*
X111520223Y-87179283D01*
X111519458Y-87178966D01*
X111486015Y-87233837D01*
X111422155Y-87264860D01*
X111401258Y-87266605D01*
X110622116Y-87266605D01*
X110580368Y-87259487D01*
X110556149Y-87250982D01*
X110550584Y-87250500D01*
X110547876Y-87250500D01*
X110545242Y-87250386D01*
X110545144Y-87250357D01*
X110545151Y-87250193D01*
X110544447Y-87250149D01*
X110538222Y-87248287D01*
X110484365Y-87250403D01*
X110479418Y-87250500D01*
X109937384Y-87250500D01*
X109869263Y-87230498D01*
X109848289Y-87213595D01*
X109231978Y-86597284D01*
X109216836Y-86578536D01*
X109215721Y-86577311D01*
X109210071Y-86568560D01*
X109201893Y-86562113D01*
X109201891Y-86562111D01*
X109183700Y-86547771D01*
X109179259Y-86543825D01*
X109179197Y-86543898D01*
X109175233Y-86540539D01*
X109171556Y-86536862D01*
X109155808Y-86525608D01*
X109151138Y-86522102D01*
X109110853Y-86490344D01*
X109102219Y-86487312D01*
X109094766Y-86481986D01*
X109045650Y-86467297D01*
X109040008Y-86465464D01*
X108999133Y-86451110D01*
X108999132Y-86451110D01*
X108991649Y-86448482D01*
X108986084Y-86448000D01*
X108983376Y-86448000D01*
X108980742Y-86447886D01*
X108980644Y-86447857D01*
X108980651Y-86447693D01*
X108979947Y-86447649D01*
X108973722Y-86445787D01*
X108919865Y-86447903D01*
X108914918Y-86448000D01*
X106381246Y-86448000D01*
X106313125Y-86427998D01*
X106299793Y-86418132D01*
X106296735Y-86415541D01*
X106293056Y-86411862D01*
X106277308Y-86400608D01*
X106272638Y-86397102D01*
X106232353Y-86365344D01*
X106223719Y-86362312D01*
X106216266Y-86356986D01*
X106167150Y-86342297D01*
X106161508Y-86340464D01*
X106120633Y-86326110D01*
X106120632Y-86326110D01*
X106113149Y-86323482D01*
X106107584Y-86323000D01*
X106104876Y-86323000D01*
X106102242Y-86322886D01*
X106102144Y-86322857D01*
X106102151Y-86322693D01*
X106101447Y-86322649D01*
X106095222Y-86320787D01*
X106041365Y-86322903D01*
X106036418Y-86323000D01*
X105578247Y-86323000D01*
X105554300Y-86320451D01*
X105552634Y-86320372D01*
X105542451Y-86318180D01*
X105532109Y-86319404D01*
X105532106Y-86319404D01*
X105509114Y-86322126D01*
X105503173Y-86322477D01*
X105503181Y-86322572D01*
X105498001Y-86323000D01*
X105492803Y-86323000D01*
X105487681Y-86323853D01*
X105487676Y-86323853D01*
X105473754Y-86326171D01*
X105467877Y-86327008D01*
X105461376Y-86327777D01*
X105427324Y-86331807D01*
X105427322Y-86331808D01*
X105416986Y-86333031D01*
X105408737Y-86336992D01*
X105399701Y-86338496D01*
X105390532Y-86343443D01*
X105390530Y-86343444D01*
X105354567Y-86362848D01*
X105349278Y-86365543D01*
X105336263Y-86371793D01*
X105303095Y-86387720D01*
X105298819Y-86391314D01*
X105296879Y-86393254D01*
X105294968Y-86395007D01*
X105294878Y-86395056D01*
X105294766Y-86394933D01*
X105294231Y-86395405D01*
X105288513Y-86398490D01*
X105281446Y-86406135D01*
X105251911Y-86438086D01*
X105248481Y-86441652D01*
X104957284Y-86732849D01*
X104938536Y-86747991D01*
X104937311Y-86749106D01*
X104928560Y-86754756D01*
X104922113Y-86762934D01*
X104922111Y-86762936D01*
X104907771Y-86781127D01*
X104903825Y-86785568D01*
X104903898Y-86785630D01*
X104900539Y-86789594D01*
X104896862Y-86793271D01*
X104885608Y-86809019D01*
X104882102Y-86813689D01*
X104850344Y-86853974D01*
X104847312Y-86862608D01*
X104841986Y-86870061D01*
X104839001Y-86880042D01*
X104827299Y-86919171D01*
X104825464Y-86924819D01*
X104808482Y-86973178D01*
X104808000Y-86978743D01*
X104808000Y-86981451D01*
X104807886Y-86984085D01*
X104807857Y-86984183D01*
X104807693Y-86984176D01*
X104807649Y-86984880D01*
X104805787Y-86991105D01*
X104806196Y-87001510D01*
X104807903Y-87044962D01*
X104808000Y-87049909D01*
X104808000Y-87484954D01*
X104805451Y-87508902D01*
X104805372Y-87510567D01*
X104803180Y-87520750D01*
X104804404Y-87531091D01*
X104807127Y-87554097D01*
X104807477Y-87560028D01*
X104807572Y-87560020D01*
X104808000Y-87565198D01*
X104808000Y-87570398D01*
X104808854Y-87575527D01*
X104808854Y-87575530D01*
X104811169Y-87589439D01*
X104812006Y-87595317D01*
X104814016Y-87612295D01*
X104818030Y-87646215D01*
X104821993Y-87654467D01*
X104823496Y-87663500D01*
X104828443Y-87672669D01*
X104828444Y-87672671D01*
X104847834Y-87708606D01*
X104850531Y-87713899D01*
X104869285Y-87752956D01*
X104869288Y-87752960D01*
X104872719Y-87760106D01*
X104876314Y-87764382D01*
X104878237Y-87766305D01*
X104880009Y-87768237D01*
X104880052Y-87768316D01*
X104879928Y-87768429D01*
X104880404Y-87768969D01*
X104883490Y-87774688D01*
X104891135Y-87781755D01*
X104923086Y-87811290D01*
X104926652Y-87814720D01*
X105129068Y-88017136D01*
X105163094Y-88079448D01*
X105164909Y-88089894D01*
X105169390Y-88124163D01*
X105158389Y-88194302D01*
X105111215Y-88247360D01*
X105044454Y-88266500D01*
X99875920Y-88266500D01*
X99851973Y-88263951D01*
X99850307Y-88263872D01*
X99840124Y-88261680D01*
X99829782Y-88262904D01*
X99829779Y-88262904D01*
X99806787Y-88265626D01*
X99800846Y-88265977D01*
X99800854Y-88266072D01*
X99795674Y-88266500D01*
X99790476Y-88266500D01*
X99785354Y-88267353D01*
X99785349Y-88267353D01*
X99771427Y-88269671D01*
X99765550Y-88270508D01*
X99759049Y-88271277D01*
X99724997Y-88275307D01*
X99724995Y-88275308D01*
X99714659Y-88276531D01*
X99706410Y-88280492D01*
X99697374Y-88281996D01*
X99688205Y-88286943D01*
X99688203Y-88286944D01*
X99652240Y-88306348D01*
X99646951Y-88309043D01*
X99633936Y-88315293D01*
X99600768Y-88331220D01*
X99596492Y-88334814D01*
X99594552Y-88336754D01*
X99592641Y-88338507D01*
X99592551Y-88338556D01*
X99592439Y-88338433D01*
X99591904Y-88338905D01*
X99586186Y-88341990D01*
X99579119Y-88349635D01*
X99549584Y-88381586D01*
X99546154Y-88385152D01*
X98668832Y-89262474D01*
X98614363Y-89294528D01*
X98597879Y-89299239D01*
X98475661Y-89376353D01*
X98379999Y-89484670D01*
X98376185Y-89492793D01*
X98376184Y-89492795D01*
X98354872Y-89538188D01*
X98318583Y-89615482D01*
X98317203Y-89624346D01*
X98317202Y-89624349D01*
X98302421Y-89719283D01*
X98296350Y-89758273D01*
X98297514Y-89767175D01*
X98297514Y-89767178D01*
X98300520Y-89790164D01*
X98315088Y-89901565D01*
X98373289Y-90033839D01*
X98379063Y-90040708D01*
X98459244Y-90136094D01*
X98466276Y-90144460D01*
X98473747Y-90149433D01*
X98473748Y-90149434D01*
X98579101Y-90219563D01*
X98579103Y-90219564D01*
X98586574Y-90224537D01*
X98595138Y-90227213D01*
X98595141Y-90227214D01*
X98641521Y-90241704D01*
X98724510Y-90267632D01*
X98868998Y-90270280D01*
X98894568Y-90263309D01*
X98999763Y-90234630D01*
X98999765Y-90234629D01*
X99008422Y-90232269D01*
X99131572Y-90156654D01*
X99228551Y-90049514D01*
X99264112Y-89976116D01*
X99287645Y-89927543D01*
X99287645Y-89927542D01*
X99291560Y-89919462D01*
X99315536Y-89776953D01*
X99315688Y-89764500D01*
X99314998Y-89759685D01*
X99314682Y-89754830D01*
X99316047Y-89754741D01*
X99325311Y-89690581D01*
X99350798Y-89653897D01*
X99942291Y-89062404D01*
X100004603Y-89028379D01*
X100031386Y-89025500D01*
X104021452Y-89025500D01*
X104089573Y-89045502D01*
X104136066Y-89099158D01*
X104146170Y-89169432D01*
X104116676Y-89234012D01*
X104088688Y-89258061D01*
X104071258Y-89269058D01*
X104071251Y-89269064D01*
X104063661Y-89273853D01*
X104057718Y-89280582D01*
X104057717Y-89280583D01*
X103986914Y-89360752D01*
X103967999Y-89382170D01*
X103906583Y-89512982D01*
X103905203Y-89521846D01*
X103905202Y-89521849D01*
X103889243Y-89624349D01*
X103884350Y-89655773D01*
X103885514Y-89664675D01*
X103885514Y-89664678D01*
X103899561Y-89772093D01*
X103903088Y-89799065D01*
X103906701Y-89807277D01*
X103906703Y-89807283D01*
X103921778Y-89841543D01*
X103930905Y-89911951D01*
X103900518Y-89976116D01*
X103840265Y-90013666D01*
X103806449Y-90018289D01*
X102746592Y-90018290D01*
X102692092Y-90018290D01*
X102656340Y-90025401D01*
X102630032Y-90030633D01*
X102630030Y-90030634D01*
X102617857Y-90033055D01*
X102536709Y-90087277D01*
X102468959Y-90108491D01*
X102396707Y-90087276D01*
X102326584Y-90040421D01*
X102304092Y-90031105D01*
X102248243Y-90019996D01*
X102235988Y-90018789D01*
X101762273Y-90018789D01*
X101747034Y-90023264D01*
X101745829Y-90024654D01*
X101744158Y-90032337D01*
X101744158Y-91908673D01*
X101748633Y-91923912D01*
X101750023Y-91925117D01*
X101757706Y-91926788D01*
X102235986Y-91926788D01*
X102248246Y-91925580D01*
X102304089Y-91914474D01*
X102326585Y-91905156D01*
X102396707Y-91858302D01*
X102464460Y-91837087D01*
X102536709Y-91858301D01*
X102617857Y-91912523D01*
X102692091Y-91927289D01*
X103317056Y-91927289D01*
X103942224Y-91927288D01*
X103977976Y-91920177D01*
X104004284Y-91914945D01*
X104004286Y-91914944D01*
X104016459Y-91912523D01*
X104034874Y-91900218D01*
X104102624Y-91879002D01*
X104159123Y-91891257D01*
X104167101Y-91895062D01*
X104174574Y-91900037D01*
X104183141Y-91902714D01*
X104183142Y-91902714D01*
X104199322Y-91907769D01*
X104312510Y-91943132D01*
X104456998Y-91945780D01*
X104524823Y-91927289D01*
X104587763Y-91910130D01*
X104587765Y-91910129D01*
X104596422Y-91907769D01*
X104719572Y-91832154D01*
X104816551Y-91725014D01*
X104879560Y-91594962D01*
X104903536Y-91452453D01*
X104903688Y-91440000D01*
X104883201Y-91296948D01*
X104823388Y-91165395D01*
X104817530Y-91158596D01*
X104817527Y-91158592D01*
X104734916Y-91062718D01*
X104734913Y-91062716D01*
X104729056Y-91055918D01*
X104652669Y-91006406D01*
X104615324Y-90982200D01*
X104615322Y-90982199D01*
X104607790Y-90977317D01*
X104556464Y-90961967D01*
X104477938Y-90938482D01*
X104477936Y-90938482D01*
X104469337Y-90935910D01*
X104461279Y-90935861D01*
X104397282Y-90906203D01*
X104391228Y-90900534D01*
X104233267Y-90742573D01*
X104218125Y-90723825D01*
X104217011Y-90722600D01*
X104211360Y-90713849D01*
X104204150Y-90708165D01*
X104173412Y-90644968D01*
X104171657Y-90624012D01*
X104171657Y-90289079D01*
X104191659Y-90220958D01*
X104245315Y-90174465D01*
X104312505Y-90165414D01*
X104312510Y-90165132D01*
X104314348Y-90165166D01*
X104314350Y-90165166D01*
X104321485Y-90165296D01*
X104321488Y-90165297D01*
X104383524Y-90166433D01*
X104456998Y-90167780D01*
X104465662Y-90165418D01*
X104587763Y-90132130D01*
X104587765Y-90132129D01*
X104596422Y-90129769D01*
X104709848Y-90060125D01*
X104775776Y-90041500D01*
X107486616Y-90041500D01*
X107554737Y-90061502D01*
X107575711Y-90078405D01*
X108939068Y-91441762D01*
X108973094Y-91504074D01*
X108974908Y-91514515D01*
X108983088Y-91577065D01*
X109000740Y-91617182D01*
X109016193Y-91652304D01*
X109025319Y-91722712D01*
X108994932Y-91786876D01*
X108955404Y-91816633D01*
X108938773Y-91824619D01*
X108934497Y-91828213D01*
X108932558Y-91830152D01*
X108930643Y-91831908D01*
X108930557Y-91831955D01*
X108930444Y-91831833D01*
X108929909Y-91832305D01*
X108924191Y-91835390D01*
X108917123Y-91843036D01*
X108917122Y-91843037D01*
X108887601Y-91874973D01*
X108884171Y-91878539D01*
X107602741Y-93159970D01*
X106355956Y-94406755D01*
X106293644Y-94440780D01*
X106266861Y-94443660D01*
X104874760Y-94443660D01*
X104850812Y-94441111D01*
X104849147Y-94441032D01*
X104838964Y-94438840D01*
X104819777Y-94441111D01*
X104805617Y-94442787D01*
X104799686Y-94443137D01*
X104799694Y-94443232D01*
X104794516Y-94443660D01*
X104789316Y-94443660D01*
X104784187Y-94444514D01*
X104784184Y-94444514D01*
X104770275Y-94446829D01*
X104764397Y-94447666D01*
X104723839Y-94452466D01*
X104723838Y-94452466D01*
X104713499Y-94453690D01*
X104705247Y-94457653D01*
X104696214Y-94459156D01*
X104687045Y-94464103D01*
X104687043Y-94464104D01*
X104651108Y-94483494D01*
X104645815Y-94486191D01*
X104620796Y-94498205D01*
X104599608Y-94508379D01*
X104595333Y-94511973D01*
X104593408Y-94513898D01*
X104591478Y-94515669D01*
X104591393Y-94515715D01*
X104591281Y-94515592D01*
X104590746Y-94516064D01*
X104585026Y-94519150D01*
X104556780Y-94549707D01*
X104495853Y-94586152D01*
X104464255Y-94590178D01*
X101529062Y-94590178D01*
X101460941Y-94570176D01*
X101439967Y-94553273D01*
X101229078Y-94342384D01*
X101195052Y-94280072D01*
X101200117Y-94209257D01*
X101242664Y-94152421D01*
X101309184Y-94127610D01*
X101318173Y-94127289D01*
X102217733Y-94127288D01*
X102242224Y-94127288D01*
X102279807Y-94119813D01*
X102304284Y-94114945D01*
X102304286Y-94114944D01*
X102316459Y-94112523D01*
X102397607Y-94058301D01*
X102465357Y-94037087D01*
X102537609Y-94058302D01*
X102607732Y-94105157D01*
X102630224Y-94114473D01*
X102686073Y-94125582D01*
X102698328Y-94126789D01*
X103172043Y-94126789D01*
X103187282Y-94122314D01*
X103188487Y-94120924D01*
X103190158Y-94113241D01*
X103190158Y-94108673D01*
X103444158Y-94108673D01*
X103448633Y-94123912D01*
X103450023Y-94125117D01*
X103457706Y-94126788D01*
X103935986Y-94126788D01*
X103948246Y-94125580D01*
X104004089Y-94114474D01*
X104026585Y-94105156D01*
X104089966Y-94062806D01*
X104107175Y-94045597D01*
X104149526Y-93982214D01*
X104158842Y-93959723D01*
X104169951Y-93903874D01*
X104171158Y-93891619D01*
X104171158Y-93317904D01*
X104166683Y-93302665D01*
X104165293Y-93301460D01*
X104157610Y-93299789D01*
X103462273Y-93299789D01*
X103447034Y-93304264D01*
X103445829Y-93305654D01*
X103444158Y-93313337D01*
X103444158Y-94108673D01*
X103190158Y-94108673D01*
X103190158Y-93027674D01*
X103444158Y-93027674D01*
X103448633Y-93042913D01*
X103450023Y-93044118D01*
X103457706Y-93045789D01*
X104153042Y-93045789D01*
X104168281Y-93041314D01*
X104169486Y-93039924D01*
X104171157Y-93032241D01*
X104171157Y-92453961D01*
X104169949Y-92441701D01*
X104158843Y-92385858D01*
X104149525Y-92363362D01*
X104107175Y-92299981D01*
X104089966Y-92282772D01*
X104026583Y-92240421D01*
X104004092Y-92231105D01*
X103948243Y-92219996D01*
X103935988Y-92218789D01*
X103462273Y-92218789D01*
X103447034Y-92223264D01*
X103445829Y-92224654D01*
X103444158Y-92232337D01*
X103444158Y-93027674D01*
X103190158Y-93027674D01*
X103190158Y-92236905D01*
X103185683Y-92221666D01*
X103184293Y-92220461D01*
X103176610Y-92218790D01*
X102698330Y-92218790D01*
X102686070Y-92219998D01*
X102630227Y-92231104D01*
X102607731Y-92240422D01*
X102537609Y-92287276D01*
X102469856Y-92308491D01*
X102397607Y-92287277D01*
X102316459Y-92233055D01*
X102242225Y-92218289D01*
X101617260Y-92218289D01*
X100992092Y-92218290D01*
X100956340Y-92225401D01*
X100930032Y-92230633D01*
X100930030Y-92230634D01*
X100917857Y-92233055D01*
X100907537Y-92239950D01*
X100907536Y-92239951D01*
X100861127Y-92270961D01*
X100833674Y-92289305D01*
X100777424Y-92373488D01*
X100762658Y-92447722D01*
X100762658Y-92587769D01*
X100742656Y-92655890D01*
X100689000Y-92702383D01*
X100635890Y-92713767D01*
X100514827Y-92713028D01*
X100506196Y-92715495D01*
X100506194Y-92715495D01*
X100384509Y-92750272D01*
X100384505Y-92750274D01*
X100375879Y-92752739D01*
X100368292Y-92757526D01*
X100368290Y-92757527D01*
X100261254Y-92825062D01*
X100253661Y-92829853D01*
X100157999Y-92938170D01*
X100154185Y-92946293D01*
X100154184Y-92946295D01*
X100127826Y-93002436D01*
X100080769Y-93055598D01*
X100012441Y-93074880D01*
X99944535Y-93054160D01*
X99924676Y-93037982D01*
X99366478Y-92479784D01*
X99351336Y-92461036D01*
X99350221Y-92459811D01*
X99344571Y-92451060D01*
X99336393Y-92444613D01*
X99336391Y-92444611D01*
X99318200Y-92430271D01*
X99313759Y-92426325D01*
X99313697Y-92426398D01*
X99309733Y-92423039D01*
X99306056Y-92419362D01*
X99290308Y-92408108D01*
X99285638Y-92404602D01*
X99245353Y-92372844D01*
X99236719Y-92369812D01*
X99229266Y-92364486D01*
X99185523Y-92351404D01*
X99142640Y-92327756D01*
X99141056Y-92325918D01*
X99133525Y-92321037D01*
X99133522Y-92321034D01*
X99027324Y-92252200D01*
X99027322Y-92252199D01*
X99019790Y-92247317D01*
X98995154Y-92239949D01*
X98889938Y-92208482D01*
X98889936Y-92208482D01*
X98881337Y-92205910D01*
X98872363Y-92205855D01*
X98872361Y-92205855D01*
X98809082Y-92205469D01*
X98736827Y-92205028D01*
X98728196Y-92207495D01*
X98728194Y-92207495D01*
X98606509Y-92242272D01*
X98606505Y-92242274D01*
X98597879Y-92244739D01*
X98590292Y-92249526D01*
X98590290Y-92249527D01*
X98483254Y-92317062D01*
X98475661Y-92321853D01*
X98469718Y-92328582D01*
X98469717Y-92328583D01*
X98426332Y-92377708D01*
X98379999Y-92430170D01*
X98376185Y-92438293D01*
X98376184Y-92438295D01*
X98361158Y-92470300D01*
X98318583Y-92560982D01*
X98317203Y-92569846D01*
X98317202Y-92569849D01*
X98303806Y-92655890D01*
X98296350Y-92703773D01*
X98297514Y-92712675D01*
X98297514Y-92712678D01*
X98309789Y-92806540D01*
X98298789Y-92876679D01*
X98251615Y-92929737D01*
X98183245Y-92948868D01*
X98145917Y-92942711D01*
X98136817Y-92939754D01*
X98127983Y-92935253D01*
X98033262Y-92920251D01*
X97006928Y-92920251D01*
X96938807Y-92900249D01*
X96892314Y-92846593D01*
X96880928Y-92794251D01*
X96880928Y-91691617D01*
X100763159Y-91691617D01*
X100764367Y-91703877D01*
X100775473Y-91759720D01*
X100784791Y-91782216D01*
X100827141Y-91845597D01*
X100844350Y-91862806D01*
X100907733Y-91905157D01*
X100930224Y-91914473D01*
X100986073Y-91925582D01*
X100998328Y-91926789D01*
X101472043Y-91926789D01*
X101487282Y-91922314D01*
X101488487Y-91920924D01*
X101490158Y-91913241D01*
X101490158Y-91117904D01*
X101485683Y-91102665D01*
X101484293Y-91101460D01*
X101476610Y-91099789D01*
X100781274Y-91099789D01*
X100766035Y-91104264D01*
X100764830Y-91105654D01*
X100763159Y-91113337D01*
X100763159Y-91691617D01*
X96880928Y-91691617D01*
X96880928Y-90827674D01*
X100763158Y-90827674D01*
X100767633Y-90842913D01*
X100769023Y-90844118D01*
X100776706Y-90845789D01*
X101472043Y-90845789D01*
X101487282Y-90841314D01*
X101488487Y-90839924D01*
X101490158Y-90832241D01*
X101490158Y-90036905D01*
X101485683Y-90021666D01*
X101484293Y-90020461D01*
X101476610Y-90018790D01*
X100998330Y-90018790D01*
X100986070Y-90019998D01*
X100930227Y-90031104D01*
X100907731Y-90040422D01*
X100844350Y-90082772D01*
X100827141Y-90099981D01*
X100784790Y-90163364D01*
X100775474Y-90185855D01*
X100764365Y-90241704D01*
X100763158Y-90253959D01*
X100763158Y-90827674D01*
X96880928Y-90827674D01*
X96880928Y-90651956D01*
X96900930Y-90583835D01*
X96917833Y-90562861D01*
X98274216Y-89206478D01*
X98292964Y-89191336D01*
X98294189Y-89190221D01*
X98302940Y-89184571D01*
X98309387Y-89176393D01*
X98309389Y-89176391D01*
X98323729Y-89158200D01*
X98327675Y-89153759D01*
X98327602Y-89153697D01*
X98330961Y-89149733D01*
X98334638Y-89146056D01*
X98345892Y-89130308D01*
X98349398Y-89125638D01*
X98381156Y-89085353D01*
X98384188Y-89076719D01*
X98389514Y-89069266D01*
X98404203Y-89020150D01*
X98406036Y-89014508D01*
X98420390Y-88973633D01*
X98420390Y-88973632D01*
X98423018Y-88966149D01*
X98423500Y-88960584D01*
X98423500Y-88957876D01*
X98423614Y-88955242D01*
X98423643Y-88955144D01*
X98423807Y-88955151D01*
X98423851Y-88954447D01*
X98425713Y-88948222D01*
X98423597Y-88894365D01*
X98423500Y-88889418D01*
X98423500Y-88265132D01*
X98443502Y-88197011D01*
X98456084Y-88180578D01*
X98457175Y-88179373D01*
X98466551Y-88169014D01*
X98470816Y-88160212D01*
X98525645Y-88047043D01*
X98525645Y-88047042D01*
X98529560Y-88038962D01*
X98553536Y-87896453D01*
X98553688Y-87884000D01*
X98539888Y-87787643D01*
X98534474Y-87749835D01*
X98534473Y-87749833D01*
X98533201Y-87740948D01*
X98473388Y-87609395D01*
X98467530Y-87602596D01*
X98467527Y-87602592D01*
X98384916Y-87506718D01*
X98384913Y-87506716D01*
X98379056Y-87499918D01*
X98257790Y-87421317D01*
X98240921Y-87416272D01*
X98127938Y-87382482D01*
X98127936Y-87382482D01*
X98119337Y-87379910D01*
X98110363Y-87379855D01*
X98110361Y-87379855D01*
X98047082Y-87379469D01*
X97974827Y-87379028D01*
X97966196Y-87381495D01*
X97966194Y-87381495D01*
X97844509Y-87416272D01*
X97844505Y-87416274D01*
X97835879Y-87418739D01*
X97713661Y-87495853D01*
X97707718Y-87502582D01*
X97707717Y-87502583D01*
X97687647Y-87525308D01*
X97617999Y-87604170D01*
X97614185Y-87612293D01*
X97614184Y-87612295D01*
X97598553Y-87645589D01*
X97556583Y-87734982D01*
X97555203Y-87743846D01*
X97555202Y-87743849D01*
X97540987Y-87835150D01*
X97534350Y-87877773D01*
X97535514Y-87886675D01*
X97535514Y-87886678D01*
X97551576Y-88009500D01*
X97553088Y-88021065D01*
X97611289Y-88153339D01*
X97617061Y-88160206D01*
X97617065Y-88160212D01*
X97634950Y-88181488D01*
X97663472Y-88246504D01*
X97664500Y-88262564D01*
X97664500Y-88690616D01*
X97644498Y-88758737D01*
X97627595Y-88779711D01*
X96271212Y-90136094D01*
X96252464Y-90151236D01*
X96251239Y-90152351D01*
X96242488Y-90158001D01*
X96236041Y-90166179D01*
X96236039Y-90166181D01*
X96221699Y-90184372D01*
X96217753Y-90188813D01*
X96217826Y-90188875D01*
X96214467Y-90192839D01*
X96210790Y-90196516D01*
X96199536Y-90212264D01*
X96196030Y-90216934D01*
X96164272Y-90257219D01*
X96161240Y-90265853D01*
X96155914Y-90273306D01*
X96152929Y-90283287D01*
X96141227Y-90322416D01*
X96139392Y-90328064D01*
X96122410Y-90376423D01*
X96121928Y-90381988D01*
X96121928Y-90384696D01*
X96121814Y-90387330D01*
X96121785Y-90387428D01*
X96121621Y-90387421D01*
X96121577Y-90388125D01*
X96119715Y-90394350D01*
X96120124Y-90404755D01*
X96121831Y-90448207D01*
X96121928Y-90453154D01*
X96121928Y-92866674D01*
X96101926Y-92934795D01*
X96048270Y-92981288D01*
X95977996Y-92991392D01*
X95938725Y-92978941D01*
X95861817Y-92939754D01*
X95861816Y-92939754D01*
X95852983Y-92935253D01*
X95758262Y-92920251D01*
X94669594Y-92920251D01*
X94574873Y-92935253D01*
X94460705Y-92993425D01*
X94395784Y-93058346D01*
X94333472Y-93092372D01*
X94306689Y-93095251D01*
X93269169Y-93095251D01*
X93245221Y-93092702D01*
X93243556Y-93092623D01*
X93233373Y-93090431D01*
X93223032Y-93091655D01*
X93200026Y-93094378D01*
X93194095Y-93094728D01*
X93194103Y-93094823D01*
X93188925Y-93095251D01*
X93183725Y-93095251D01*
X93178596Y-93096105D01*
X93178593Y-93096105D01*
X93164684Y-93098420D01*
X93158806Y-93099257D01*
X93118248Y-93104057D01*
X93118247Y-93104057D01*
X93107908Y-93105281D01*
X93099656Y-93109244D01*
X93090623Y-93110747D01*
X93081454Y-93115694D01*
X93081452Y-93115695D01*
X93045517Y-93135085D01*
X93040224Y-93137782D01*
X93001167Y-93156536D01*
X93001163Y-93156539D01*
X92994017Y-93159970D01*
X92989741Y-93163565D01*
X92987818Y-93165488D01*
X92985886Y-93167260D01*
X92985807Y-93167303D01*
X92985694Y-93167179D01*
X92985154Y-93167655D01*
X92979435Y-93170741D01*
X92951727Y-93200716D01*
X92942833Y-93210337D01*
X92939403Y-93213903D01*
X92479784Y-93673522D01*
X92461036Y-93688664D01*
X92459811Y-93689779D01*
X92451060Y-93695429D01*
X92444613Y-93703607D01*
X92444611Y-93703609D01*
X92430271Y-93721800D01*
X92426325Y-93726241D01*
X92426398Y-93726303D01*
X92423039Y-93730267D01*
X92419362Y-93733944D01*
X92408108Y-93749692D01*
X92404602Y-93754362D01*
X92372844Y-93794647D01*
X92369812Y-93803281D01*
X92364486Y-93810734D01*
X92361501Y-93820715D01*
X92349799Y-93859844D01*
X92347964Y-93865492D01*
X92333784Y-93905871D01*
X92330982Y-93913851D01*
X92330500Y-93919416D01*
X92330500Y-93922124D01*
X92330386Y-93924758D01*
X92330357Y-93924856D01*
X92330193Y-93924849D01*
X92330149Y-93925553D01*
X92328287Y-93931778D01*
X92329871Y-93972090D01*
X92330403Y-93985635D01*
X92330500Y-93990582D01*
X92330500Y-94688080D01*
X92327951Y-94712028D01*
X92327872Y-94713693D01*
X92325680Y-94723876D01*
X92326904Y-94734217D01*
X92329627Y-94757223D01*
X92329977Y-94763154D01*
X92330072Y-94763146D01*
X92330500Y-94768324D01*
X92330500Y-94773524D01*
X92331354Y-94778653D01*
X92331354Y-94778656D01*
X92333669Y-94792565D01*
X92334506Y-94798443D01*
X92339156Y-94837729D01*
X92340530Y-94849341D01*
X92344493Y-94857593D01*
X92345996Y-94866626D01*
X92350944Y-94875796D01*
X92350945Y-94875799D01*
X92367905Y-94907232D01*
X92382649Y-94976680D01*
X92357506Y-95043076D01*
X92300458Y-95085337D01*
X92257017Y-95093063D01*
X91965489Y-95093063D01*
X91950250Y-95097538D01*
X91949045Y-95098928D01*
X91947374Y-95106611D01*
X91947374Y-95701948D01*
X91951849Y-95717187D01*
X91953239Y-95718392D01*
X91960922Y-95720063D01*
X93116395Y-95720063D01*
X93116395Y-95722803D01*
X93159944Y-95722803D01*
X93172773Y-95727786D01*
X93175150Y-95729659D01*
X93183787Y-95732692D01*
X93191237Y-95738016D01*
X93201217Y-95741001D01*
X93208960Y-95744794D01*
X93217473Y-95745863D01*
X93220988Y-95746914D01*
X93273987Y-95778538D01*
X93351087Y-95855638D01*
X93462431Y-95912371D01*
X93472221Y-95913922D01*
X93472222Y-95913922D01*
X93497959Y-95917998D01*
X93554813Y-95927003D01*
X93755817Y-95927003D01*
X93956902Y-95927002D01*
X93980066Y-95923333D01*
X94039487Y-95913923D01*
X94039489Y-95913922D01*
X94049285Y-95912371D01*
X94160629Y-95855638D01*
X94200111Y-95816156D01*
X94262423Y-95782130D01*
X94289206Y-95779251D01*
X94331689Y-95779251D01*
X94399810Y-95799253D01*
X94420784Y-95816156D01*
X94460705Y-95856077D01*
X94574873Y-95914249D01*
X94584664Y-95915800D01*
X94584665Y-95915800D01*
X94595075Y-95917449D01*
X94602901Y-95918688D01*
X94667054Y-95949100D01*
X94704581Y-96009368D01*
X94707690Y-96062520D01*
X94699324Y-96116250D01*
X94700488Y-96125152D01*
X94700488Y-96125155D01*
X94707047Y-96175308D01*
X94718062Y-96259542D01*
X94776263Y-96391816D01*
X94869250Y-96502437D01*
X94876721Y-96507410D01*
X94876722Y-96507411D01*
X94982075Y-96577540D01*
X94982077Y-96577541D01*
X94989548Y-96582514D01*
X94998112Y-96585190D01*
X94998115Y-96585191D01*
X95118917Y-96622933D01*
X95118921Y-96622934D01*
X95127484Y-96625609D01*
X95136457Y-96625773D01*
X95142963Y-96626827D01*
X95211914Y-96662111D01*
X95870207Y-97320405D01*
X95904232Y-97382717D01*
X95899167Y-97453533D01*
X95856620Y-97510368D01*
X95790100Y-97535179D01*
X95781111Y-97535500D01*
X87449964Y-97535500D01*
X87434754Y-97534579D01*
X87407379Y-97531250D01*
X87395426Y-97534580D01*
X87390654Y-97534940D01*
X87377124Y-97535233D01*
X87272617Y-97531862D01*
X87245829Y-97528090D01*
X87127937Y-97498309D01*
X87102565Y-97488903D01*
X86993754Y-97434638D01*
X86970973Y-97420030D01*
X86914987Y-97374959D01*
X86874468Y-97316661D01*
X86868000Y-97276811D01*
X86868000Y-96659346D01*
X86888002Y-96591225D01*
X86941658Y-96544732D01*
X87011932Y-96534628D01*
X87033668Y-96539753D01*
X87179907Y-96588259D01*
X87193268Y-96591124D01*
X87287078Y-96600735D01*
X87293493Y-96601063D01*
X87495259Y-96601063D01*
X87510498Y-96596588D01*
X87511703Y-96595198D01*
X87513374Y-96587515D01*
X87513374Y-96582948D01*
X87767374Y-96582948D01*
X87771849Y-96598187D01*
X87773239Y-96599392D01*
X87780922Y-96601063D01*
X87987205Y-96601063D01*
X87993724Y-96600726D01*
X88088758Y-96590865D01*
X88102153Y-96587972D01*
X88255455Y-96536826D01*
X88268619Y-96530660D01*
X88405688Y-96445840D01*
X88417077Y-96436813D01*
X88530954Y-96322737D01*
X88539965Y-96311327D01*
X88624539Y-96174120D01*
X88630687Y-96160937D01*
X88681569Y-96007533D01*
X88684435Y-95994167D01*
X88684648Y-95992084D01*
X88684414Y-95990824D01*
X90526092Y-95990824D01*
X90526572Y-95995447D01*
X90529465Y-96008842D01*
X90580611Y-96162144D01*
X90586777Y-96175308D01*
X90671597Y-96312377D01*
X90680624Y-96323766D01*
X90794700Y-96437643D01*
X90806110Y-96446654D01*
X90943317Y-96531228D01*
X90956500Y-96537376D01*
X91109907Y-96588259D01*
X91123268Y-96591124D01*
X91217078Y-96600735D01*
X91223493Y-96601063D01*
X91675259Y-96601063D01*
X91690498Y-96596588D01*
X91691703Y-96595198D01*
X91693374Y-96587515D01*
X91693374Y-96582948D01*
X91947374Y-96582948D01*
X91951849Y-96598187D01*
X91953239Y-96599392D01*
X91960922Y-96601063D01*
X92417205Y-96601063D01*
X92423724Y-96600726D01*
X92518758Y-96590865D01*
X92532153Y-96587972D01*
X92685455Y-96536826D01*
X92698619Y-96530660D01*
X92835688Y-96445840D01*
X92847077Y-96436813D01*
X92960954Y-96322737D01*
X92969965Y-96311327D01*
X93054539Y-96174120D01*
X93060687Y-96160937D01*
X93111569Y-96007533D01*
X93114435Y-95994167D01*
X93114648Y-95992084D01*
X93111921Y-95977387D01*
X93099685Y-95974063D01*
X91965489Y-95974063D01*
X91950250Y-95978538D01*
X91949045Y-95979928D01*
X91947374Y-95987611D01*
X91947374Y-96582948D01*
X91693374Y-96582948D01*
X91693374Y-95992178D01*
X91688899Y-95976939D01*
X91687509Y-95975734D01*
X91679826Y-95974063D01*
X90542468Y-95974063D01*
X90528151Y-95978267D01*
X90526092Y-95990824D01*
X88684414Y-95990824D01*
X88681921Y-95977386D01*
X88669687Y-95974063D01*
X87785489Y-95974063D01*
X87770250Y-95978538D01*
X87769045Y-95979928D01*
X87767374Y-95987611D01*
X87767374Y-96582948D01*
X87513374Y-96582948D01*
X87513374Y-95701948D01*
X87767374Y-95701948D01*
X87771849Y-95717187D01*
X87773239Y-95718392D01*
X87780922Y-95720063D01*
X88668280Y-95720063D01*
X88682597Y-95715859D01*
X88684656Y-95703302D01*
X88684525Y-95702042D01*
X90526100Y-95702042D01*
X90528827Y-95716740D01*
X90541061Y-95720063D01*
X91675259Y-95720063D01*
X91690498Y-95715588D01*
X91691703Y-95714198D01*
X91693374Y-95706515D01*
X91693374Y-95111178D01*
X91688899Y-95095939D01*
X91663204Y-95073674D01*
X91664009Y-95072745D01*
X91653065Y-95066769D01*
X91619042Y-95004456D01*
X91624108Y-94933641D01*
X91665459Y-94877713D01*
X91667954Y-94875799D01*
X91713715Y-94840685D01*
X91727132Y-94830390D01*
X91733678Y-94825367D01*
X91826566Y-94704313D01*
X91884958Y-94563343D01*
X91886136Y-94554399D01*
X91903796Y-94420251D01*
X91904874Y-94412063D01*
X91888041Y-94284200D01*
X91886036Y-94268971D01*
X91884958Y-94260783D01*
X91826566Y-94119813D01*
X91733678Y-93998759D01*
X91716575Y-93985635D01*
X91651590Y-93935771D01*
X91612624Y-93905871D01*
X91471654Y-93847479D01*
X91320374Y-93827563D01*
X91169094Y-93847479D01*
X91028124Y-93905871D01*
X90989158Y-93935771D01*
X90924174Y-93985635D01*
X90907070Y-93998759D01*
X90814182Y-94119813D01*
X90755790Y-94260783D01*
X90754712Y-94268971D01*
X90752707Y-94284200D01*
X90735874Y-94412063D01*
X90736952Y-94420251D01*
X90754613Y-94554399D01*
X90755790Y-94563343D01*
X90814182Y-94704313D01*
X90907070Y-94825367D01*
X90913616Y-94830390D01*
X91021576Y-94913231D01*
X91021578Y-94913232D01*
X91023466Y-94914680D01*
X91023468Y-94914683D01*
X91028124Y-94918255D01*
X91027567Y-94918981D01*
X91071698Y-94965267D01*
X91085133Y-95034981D01*
X91058745Y-95100891D01*
X90999580Y-95142525D01*
X90955288Y-95157302D01*
X90942129Y-95163466D01*
X90805060Y-95248286D01*
X90793671Y-95257313D01*
X90679794Y-95371389D01*
X90670783Y-95382799D01*
X90586209Y-95520006D01*
X90580061Y-95533189D01*
X90529179Y-95686593D01*
X90526313Y-95699959D01*
X90526100Y-95702042D01*
X88684525Y-95702042D01*
X88684176Y-95698679D01*
X88681283Y-95685284D01*
X88630137Y-95531982D01*
X88623971Y-95518818D01*
X88539151Y-95381749D01*
X88530124Y-95370360D01*
X88416048Y-95256483D01*
X88404638Y-95247472D01*
X88267431Y-95162898D01*
X88254248Y-95156750D01*
X88100841Y-95105867D01*
X88087480Y-95103002D01*
X87993670Y-95093391D01*
X87987255Y-95093063D01*
X87785489Y-95093063D01*
X87770250Y-95097538D01*
X87769045Y-95098928D01*
X87767374Y-95106611D01*
X87767374Y-95701948D01*
X87513374Y-95701948D01*
X87513374Y-95111178D01*
X87508899Y-95095939D01*
X87507509Y-95094734D01*
X87499826Y-95093063D01*
X87293543Y-95093063D01*
X87287024Y-95093400D01*
X87191990Y-95103261D01*
X87178595Y-95106154D01*
X87033877Y-95154436D01*
X86962927Y-95157021D01*
X86901843Y-95120838D01*
X86870018Y-95057374D01*
X86868000Y-95034913D01*
X86868000Y-88009346D01*
X86888002Y-87941225D01*
X86941658Y-87894732D01*
X87011932Y-87884628D01*
X87033668Y-87889753D01*
X87179907Y-87938259D01*
X87193268Y-87941124D01*
X87287078Y-87950735D01*
X87293493Y-87951063D01*
X87495259Y-87951063D01*
X87510498Y-87946588D01*
X87511703Y-87945198D01*
X87513374Y-87937515D01*
X87513374Y-87932948D01*
X87767374Y-87932948D01*
X87771849Y-87948187D01*
X87773239Y-87949392D01*
X87780922Y-87951063D01*
X87987205Y-87951063D01*
X87993724Y-87950726D01*
X88088758Y-87940865D01*
X88102153Y-87937972D01*
X88255455Y-87886826D01*
X88268619Y-87880660D01*
X88405688Y-87795840D01*
X88417077Y-87786813D01*
X88530954Y-87672737D01*
X88539965Y-87661327D01*
X88624539Y-87524120D01*
X88630687Y-87510937D01*
X88681569Y-87357533D01*
X88684435Y-87344167D01*
X88684648Y-87342084D01*
X88684414Y-87340824D01*
X90526092Y-87340824D01*
X90526572Y-87345447D01*
X90529465Y-87358842D01*
X90580611Y-87512144D01*
X90586777Y-87525308D01*
X90671597Y-87662377D01*
X90680624Y-87673766D01*
X90794700Y-87787643D01*
X90806110Y-87796654D01*
X90943317Y-87881228D01*
X90956500Y-87887376D01*
X90999302Y-87901573D01*
X91057662Y-87942004D01*
X91084898Y-88007569D01*
X91072364Y-88077450D01*
X91027523Y-88125088D01*
X91028124Y-88125871D01*
X90907070Y-88218759D01*
X90902047Y-88225305D01*
X90885124Y-88247360D01*
X90814182Y-88339813D01*
X90755790Y-88480783D01*
X90754712Y-88488971D01*
X90748573Y-88535605D01*
X90735874Y-88632063D01*
X90755790Y-88783343D01*
X90814182Y-88924313D01*
X90819209Y-88930864D01*
X90891826Y-89025500D01*
X90907070Y-89045367D01*
X91028124Y-89138255D01*
X91169094Y-89196647D01*
X91320374Y-89216563D01*
X91328562Y-89215485D01*
X91463466Y-89197725D01*
X91471654Y-89196647D01*
X91612624Y-89138255D01*
X91733678Y-89045367D01*
X91748923Y-89025500D01*
X91821539Y-88930864D01*
X91826566Y-88924313D01*
X91884958Y-88783343D01*
X91904874Y-88632063D01*
X91892175Y-88535605D01*
X91886036Y-88488971D01*
X91884958Y-88480783D01*
X91826566Y-88339813D01*
X91755624Y-88247360D01*
X91738701Y-88225305D01*
X91733678Y-88218759D01*
X91661960Y-88163728D01*
X91620093Y-88106390D01*
X91615871Y-88035519D01*
X91650635Y-87973616D01*
X91684001Y-87954086D01*
X91691703Y-87945198D01*
X91693374Y-87937515D01*
X91693374Y-87932948D01*
X91947374Y-87932948D01*
X91951849Y-87948187D01*
X91953239Y-87949392D01*
X91960922Y-87951063D01*
X92417205Y-87951063D01*
X92423724Y-87950726D01*
X92518758Y-87940865D01*
X92532153Y-87937972D01*
X92685455Y-87886826D01*
X92698619Y-87880660D01*
X92835688Y-87795840D01*
X92847077Y-87786813D01*
X92960954Y-87672737D01*
X92969965Y-87661327D01*
X93054539Y-87524120D01*
X93060687Y-87510937D01*
X93111569Y-87357533D01*
X93114435Y-87344167D01*
X93114648Y-87342084D01*
X93111921Y-87327386D01*
X93099687Y-87324063D01*
X91965489Y-87324063D01*
X91950250Y-87328538D01*
X91949045Y-87329928D01*
X91947374Y-87337611D01*
X91947374Y-87932948D01*
X91693374Y-87932948D01*
X91693374Y-87342178D01*
X91688899Y-87326939D01*
X91687509Y-87325734D01*
X91679826Y-87324063D01*
X90542468Y-87324063D01*
X90528151Y-87328267D01*
X90526092Y-87340824D01*
X88684414Y-87340824D01*
X88681921Y-87327386D01*
X88669687Y-87324063D01*
X87785489Y-87324063D01*
X87770250Y-87328538D01*
X87769045Y-87329928D01*
X87767374Y-87337611D01*
X87767374Y-87932948D01*
X87513374Y-87932948D01*
X87513374Y-87051948D01*
X87767374Y-87051948D01*
X87771849Y-87067187D01*
X87773239Y-87068392D01*
X87780922Y-87070063D01*
X88668280Y-87070063D01*
X88682597Y-87065859D01*
X88684656Y-87053302D01*
X88684525Y-87052042D01*
X90526100Y-87052042D01*
X90528827Y-87066740D01*
X90541061Y-87070063D01*
X91675259Y-87070063D01*
X91690498Y-87065588D01*
X91691703Y-87064198D01*
X91693374Y-87056515D01*
X91693374Y-87051948D01*
X91947374Y-87051948D01*
X91951849Y-87067187D01*
X91953239Y-87068392D01*
X91960922Y-87070063D01*
X93098280Y-87070063D01*
X93112597Y-87065859D01*
X93114656Y-87053302D01*
X93114176Y-87048679D01*
X93111283Y-87035284D01*
X93060137Y-86881982D01*
X93053971Y-86868818D01*
X92969151Y-86731749D01*
X92960124Y-86720360D01*
X92846048Y-86606483D01*
X92834638Y-86597472D01*
X92697431Y-86512898D01*
X92684248Y-86506750D01*
X92530841Y-86455867D01*
X92517480Y-86453002D01*
X92423670Y-86443391D01*
X92417255Y-86443063D01*
X91965489Y-86443063D01*
X91950250Y-86447538D01*
X91949045Y-86448928D01*
X91947374Y-86456611D01*
X91947374Y-87051948D01*
X91693374Y-87051948D01*
X91693374Y-86461178D01*
X91688899Y-86445939D01*
X91687509Y-86444734D01*
X91679826Y-86443063D01*
X91223543Y-86443063D01*
X91217024Y-86443400D01*
X91121990Y-86453261D01*
X91108595Y-86456154D01*
X90955293Y-86507300D01*
X90942129Y-86513466D01*
X90805060Y-86598286D01*
X90793671Y-86607313D01*
X90679794Y-86721389D01*
X90670783Y-86732799D01*
X90586209Y-86870006D01*
X90580061Y-86883189D01*
X90529179Y-87036593D01*
X90526313Y-87049959D01*
X90526100Y-87052042D01*
X88684525Y-87052042D01*
X88684176Y-87048679D01*
X88681283Y-87035284D01*
X88630137Y-86881982D01*
X88623971Y-86868818D01*
X88539151Y-86731749D01*
X88530124Y-86720360D01*
X88416048Y-86606483D01*
X88404638Y-86597472D01*
X88267431Y-86512898D01*
X88254248Y-86506750D01*
X88100841Y-86455867D01*
X88087480Y-86453002D01*
X87993670Y-86443391D01*
X87987255Y-86443063D01*
X87785489Y-86443063D01*
X87770250Y-86447538D01*
X87769045Y-86448928D01*
X87767374Y-86456611D01*
X87767374Y-87051948D01*
X87513374Y-87051948D01*
X87513374Y-86461178D01*
X87508899Y-86445939D01*
X87507509Y-86444734D01*
X87499826Y-86443063D01*
X87293543Y-86443063D01*
X87287024Y-86443400D01*
X87191990Y-86453261D01*
X87178595Y-86456154D01*
X87033877Y-86504436D01*
X86962927Y-86507021D01*
X86901843Y-86470838D01*
X86870018Y-86407374D01*
X86868000Y-86384913D01*
X86868000Y-85566626D01*
X86888002Y-85498505D01*
X86915807Y-85467824D01*
X86950085Y-85440696D01*
X86974877Y-85425374D01*
X87057444Y-85386739D01*
X87083118Y-85374726D01*
X87110767Y-85365510D01*
X87227759Y-85341084D01*
X87256782Y-85338467D01*
X87357429Y-85341084D01*
G37*
%TD.AperFunction*%
%TA.AperFunction,Conductor*%
G36*
X96284234Y-94555521D02*
G01*
X96336109Y-94586803D01*
X96610152Y-94860846D01*
X96644178Y-94923158D01*
X96639113Y-94993973D01*
X96633323Y-95007144D01*
X96591433Y-95089357D01*
X96591432Y-95089361D01*
X96586930Y-95098196D01*
X96571928Y-95192917D01*
X96571928Y-95556585D01*
X96586930Y-95651306D01*
X96645102Y-95765474D01*
X96735705Y-95856077D01*
X96849873Y-95914249D01*
X96944594Y-95929251D01*
X98033262Y-95929251D01*
X98127983Y-95914249D01*
X98242151Y-95856077D01*
X98282072Y-95816156D01*
X98344384Y-95782130D01*
X98371167Y-95779251D01*
X98487040Y-95779251D01*
X98555161Y-95799253D01*
X98576135Y-95816156D01*
X98592792Y-95832813D01*
X98704136Y-95889546D01*
X98713926Y-95891097D01*
X98713927Y-95891097D01*
X98739664Y-95895173D01*
X98796518Y-95904178D01*
X98813893Y-95904178D01*
X99088938Y-95904177D01*
X99157057Y-95924179D01*
X99203550Y-95977834D01*
X99213655Y-96048108D01*
X99184162Y-96112689D01*
X99178033Y-96119272D01*
X99062719Y-96234587D01*
X99000407Y-96268612D01*
X98997816Y-96269071D01*
X98990827Y-96269028D01*
X98930107Y-96286382D01*
X98860509Y-96306272D01*
X98860505Y-96306274D01*
X98851879Y-96308739D01*
X98844292Y-96313526D01*
X98844290Y-96313527D01*
X98737254Y-96381062D01*
X98729661Y-96385853D01*
X98723718Y-96392582D01*
X98723717Y-96392583D01*
X98652914Y-96472752D01*
X98633999Y-96494170D01*
X98630185Y-96502293D01*
X98630184Y-96502295D01*
X98627782Y-96507411D01*
X98572583Y-96624982D01*
X98571203Y-96633846D01*
X98571202Y-96633849D01*
X98551884Y-96757923D01*
X98550350Y-96767773D01*
X98551514Y-96776675D01*
X98551514Y-96776679D01*
X98558116Y-96827163D01*
X98547116Y-96897302D01*
X98499941Y-96950359D01*
X98433180Y-96969500D01*
X96644881Y-96969500D01*
X96576760Y-96949498D01*
X96555786Y-96932595D01*
X95755443Y-96132252D01*
X95721417Y-96069940D01*
X95726482Y-95999125D01*
X95769029Y-95942289D01*
X95824829Y-95918708D01*
X95824956Y-95918688D01*
X95852983Y-95914249D01*
X95967151Y-95856077D01*
X96057754Y-95765474D01*
X96115926Y-95651306D01*
X96130928Y-95556585D01*
X96130928Y-95192917D01*
X96115926Y-95098196D01*
X96057754Y-94984028D01*
X96050739Y-94977013D01*
X96048103Y-94973385D01*
X96024243Y-94906518D01*
X96040321Y-94837366D01*
X96048102Y-94825259D01*
X96061846Y-94806343D01*
X96110943Y-94709983D01*
X96116995Y-94691358D01*
X96122565Y-94656188D01*
X96152977Y-94592035D01*
X96213244Y-94554508D01*
X96284234Y-94555521D01*
G37*
%TD.AperFunction*%
%TA.AperFunction,Conductor*%
G36*
X98582412Y-93167266D02*
G01*
X98586574Y-93170037D01*
X98724510Y-93213132D01*
X98868998Y-93215780D01*
X98877661Y-93213418D01*
X98877663Y-93213418D01*
X98924254Y-93200716D01*
X98995237Y-93202096D01*
X99046490Y-93233184D01*
X100588389Y-94775083D01*
X100622415Y-94837395D01*
X100617350Y-94908210D01*
X100574803Y-94965046D01*
X100508283Y-94989857D01*
X100499294Y-94990178D01*
X99585973Y-94990178D01*
X99517852Y-94970176D01*
X99471359Y-94916520D01*
X99461255Y-94846246D01*
X99484039Y-94790114D01*
X99494791Y-94775316D01*
X99542449Y-94681781D01*
X99548501Y-94663157D01*
X99560788Y-94585575D01*
X99561563Y-94575732D01*
X99561563Y-94554793D01*
X99557088Y-94539554D01*
X99555698Y-94538349D01*
X99548015Y-94536678D01*
X98451679Y-94536678D01*
X98436440Y-94541153D01*
X98435235Y-94542543D01*
X98433564Y-94550226D01*
X98433564Y-94575729D01*
X98434339Y-94585578D01*
X98446624Y-94663150D01*
X98452679Y-94681786D01*
X98504837Y-94784152D01*
X98502091Y-94785551D01*
X98520469Y-94837060D01*
X98504387Y-94906211D01*
X98453472Y-94955690D01*
X98394674Y-94970251D01*
X98371167Y-94970251D01*
X98303046Y-94950249D01*
X98282072Y-94933346D01*
X98242151Y-94893425D01*
X98127983Y-94835253D01*
X98126656Y-94835043D01*
X98071979Y-94797655D01*
X98044794Y-94735758D01*
X98026474Y-94607835D01*
X98026473Y-94607833D01*
X98025201Y-94598948D01*
X97965388Y-94467395D01*
X97959530Y-94460596D01*
X97959527Y-94460592D01*
X97876916Y-94364718D01*
X97876913Y-94364716D01*
X97871056Y-94357918D01*
X97749790Y-94279317D01*
X97738592Y-94275968D01*
X97736335Y-94274502D01*
X97733040Y-94272979D01*
X97733260Y-94272503D01*
X97721040Y-94264563D01*
X98433563Y-94264563D01*
X98438038Y-94279802D01*
X98439428Y-94281007D01*
X98447111Y-94282678D01*
X98852448Y-94282678D01*
X98867687Y-94278203D01*
X98868892Y-94276813D01*
X98870563Y-94269130D01*
X98870563Y-94264563D01*
X99124563Y-94264563D01*
X99129038Y-94279802D01*
X99130428Y-94281007D01*
X99138111Y-94282678D01*
X99543447Y-94282678D01*
X99558686Y-94278203D01*
X99559891Y-94276813D01*
X99561562Y-94269130D01*
X99561562Y-94243627D01*
X99560787Y-94233778D01*
X99548502Y-94156206D01*
X99542447Y-94137570D01*
X99494789Y-94044036D01*
X99483278Y-94028193D01*
X99409048Y-93953963D01*
X99393205Y-93942452D01*
X99299666Y-93894792D01*
X99281042Y-93888740D01*
X99203460Y-93876453D01*
X99193617Y-93875678D01*
X99142678Y-93875678D01*
X99127439Y-93880153D01*
X99126234Y-93881543D01*
X99124563Y-93889226D01*
X99124563Y-94264563D01*
X98870563Y-94264563D01*
X98870563Y-93893794D01*
X98866088Y-93878555D01*
X98864698Y-93877350D01*
X98857015Y-93875679D01*
X98801512Y-93875679D01*
X98791663Y-93876454D01*
X98714091Y-93888739D01*
X98695455Y-93894794D01*
X98601921Y-93942452D01*
X98586078Y-93953963D01*
X98540190Y-93999851D01*
X98504380Y-94019406D01*
X98498763Y-94047125D01*
X98452677Y-94137575D01*
X98446625Y-94156199D01*
X98434338Y-94233781D01*
X98433563Y-94243624D01*
X98433563Y-94264563D01*
X97721040Y-94264563D01*
X97679059Y-94237286D01*
X97649889Y-94172558D01*
X97660345Y-94102336D01*
X97707106Y-94048913D01*
X97774695Y-94029251D01*
X98033262Y-94029251D01*
X98127983Y-94014249D01*
X98242151Y-93956077D01*
X98297401Y-93900827D01*
X98333211Y-93881272D01*
X98338828Y-93853553D01*
X98342472Y-93846401D01*
X98390926Y-93751306D01*
X98405928Y-93656585D01*
X98405928Y-93292917D01*
X98405600Y-93290846D01*
X98420036Y-93222143D01*
X98469880Y-93171586D01*
X98539146Y-93156002D01*
X98582412Y-93167266D01*
G37*
%TD.AperFunction*%
%TA.AperFunction,Conductor*%
G36*
X95283049Y-94317753D02*
G01*
X95329542Y-94371409D01*
X95340928Y-94423751D01*
X95340928Y-94425751D01*
X95320926Y-94493872D01*
X95267270Y-94540365D01*
X95214928Y-94551751D01*
X94377973Y-94551751D01*
X94368955Y-94554399D01*
X94333457Y-94559503D01*
X93754858Y-94559503D01*
X93686737Y-94539501D01*
X93640244Y-94485845D01*
X93628858Y-94433503D01*
X93628858Y-94431503D01*
X93648860Y-94363382D01*
X93702516Y-94316889D01*
X93754858Y-94305503D01*
X94239313Y-94305503D01*
X94248331Y-94302855D01*
X94283829Y-94297751D01*
X95214928Y-94297751D01*
X95283049Y-94317753D01*
G37*
%TD.AperFunction*%
%TA.AperFunction,Conductor*%
G36*
X108472237Y-87677002D02*
G01*
X108493211Y-87693905D01*
X110250139Y-89450833D01*
X110284165Y-89513145D01*
X110279100Y-89583960D01*
X110236553Y-89640796D01*
X110178145Y-89664762D01*
X110175803Y-89665083D01*
X110166827Y-89665028D01*
X110158195Y-89667495D01*
X110036509Y-89702272D01*
X110036505Y-89702274D01*
X110027879Y-89704739D01*
X110020292Y-89709526D01*
X110020290Y-89709527D01*
X109913427Y-89776953D01*
X109905661Y-89781853D01*
X109809999Y-89890170D01*
X109806185Y-89898293D01*
X109806184Y-89898295D01*
X109779826Y-89954436D01*
X109732769Y-90007598D01*
X109664441Y-90026880D01*
X109596535Y-90006160D01*
X109576676Y-89989982D01*
X108002478Y-88415784D01*
X107987336Y-88397036D01*
X107986221Y-88395811D01*
X107980571Y-88387060D01*
X107972393Y-88380613D01*
X107972391Y-88380611D01*
X107954200Y-88366271D01*
X107949759Y-88362325D01*
X107949697Y-88362398D01*
X107945733Y-88359039D01*
X107942056Y-88355362D01*
X107926308Y-88344108D01*
X107921638Y-88340602D01*
X107881353Y-88308844D01*
X107872719Y-88305812D01*
X107865266Y-88300486D01*
X107816150Y-88285797D01*
X107810508Y-88283964D01*
X107769633Y-88269610D01*
X107769632Y-88269610D01*
X107762149Y-88266982D01*
X107756584Y-88266500D01*
X107753876Y-88266500D01*
X107751242Y-88266386D01*
X107751144Y-88266357D01*
X107751151Y-88266193D01*
X107750447Y-88266149D01*
X107744222Y-88264287D01*
X107690365Y-88266403D01*
X107685418Y-88266500D01*
X106282351Y-88266500D01*
X106214230Y-88246498D01*
X106167737Y-88192842D01*
X106158097Y-88119596D01*
X106172729Y-88032623D01*
X106173536Y-88027827D01*
X106173688Y-88015374D01*
X106162538Y-87937515D01*
X106154474Y-87881209D01*
X106154473Y-87881207D01*
X106153201Y-87872322D01*
X106149485Y-87864148D01*
X106136301Y-87835150D01*
X106126315Y-87764859D01*
X106155916Y-87700328D01*
X106215707Y-87662044D01*
X106251002Y-87657000D01*
X108404116Y-87657000D01*
X108472237Y-87677002D01*
G37*
%TD.AperFunction*%
%TD*%
M02*
