%TF.GenerationSoftware,KiCad,Pcbnew,(6.0.6-0)*%
%TF.CreationDate,2022-08-07T16:54:58+08:00*%
%TF.ProjectId,ST-Link-Nano,53542d4c-696e-46b2-9d4e-616e6f2e6b69,rev?*%
%TF.SameCoordinates,Original*%
%TF.FileFunction,Soldermask,Top*%
%TF.FilePolarity,Negative*%
%FSLAX46Y46*%
G04 Gerber Fmt 4.6, Leading zero omitted, Abs format (unit mm)*
G04 Created by KiCad (PCBNEW (6.0.6-0)) date 2022-08-07 16:54:58*
%MOMM*%
%LPD*%
G01*
G04 APERTURE LIST*
G04 Aperture macros list*
%AMRoundRect*
0 Rectangle with rounded corners*
0 $1 Rounding radius*
0 $2 $3 $4 $5 $6 $7 $8 $9 X,Y pos of 4 corners*
0 Add a 4 corners polygon primitive as box body*
4,1,4,$2,$3,$4,$5,$6,$7,$8,$9,$2,$3,0*
0 Add four circle primitives for the rounded corners*
1,1,$1+$1,$2,$3*
1,1,$1+$1,$4,$5*
1,1,$1+$1,$6,$7*
1,1,$1+$1,$8,$9*
0 Add four rect primitives between the rounded corners*
20,1,$1+$1,$2,$3,$4,$5,0*
20,1,$1+$1,$4,$5,$6,$7,0*
20,1,$1+$1,$6,$7,$8,$9,0*
20,1,$1+$1,$8,$9,$2,$3,0*%
G04 Aperture macros list end*
%ADD10RoundRect,0.147500X-0.147500X-0.172500X0.147500X-0.172500X0.147500X0.172500X-0.147500X0.172500X0*%
%ADD11RoundRect,0.135000X-0.135000X-0.185000X0.135000X-0.185000X0.135000X0.185000X-0.135000X0.185000X0*%
%ADD12RoundRect,0.135000X0.135000X0.185000X-0.135000X0.185000X-0.135000X-0.185000X0.135000X-0.185000X0*%
%ADD13RoundRect,0.500000X-0.550000X0.000000X-0.550000X0.000000X0.550000X0.000000X0.550000X0.000000X0*%
%ADD14RoundRect,0.500000X-0.300000X0.000000X-0.300000X0.000000X0.300000X0.000000X0.300000X0.000000X0*%
%ADD15RoundRect,0.075000X-0.350000X0.075000X-0.350000X-0.075000X0.350000X-0.075000X0.350000X0.075000X0*%
%ADD16RoundRect,0.317500X-0.952500X-0.317500X0.952500X-0.317500X0.952500X0.317500X-0.952500X0.317500X0*%
%ADD17RoundRect,0.077500X-0.202500X-0.077500X0.202500X-0.077500X0.202500X0.077500X-0.202500X0.077500X0*%
%ADD18RoundRect,0.147500X0.147500X0.172500X-0.147500X0.172500X-0.147500X-0.172500X0.147500X-0.172500X0*%
%ADD19RoundRect,0.075000X0.662500X0.075000X-0.662500X0.075000X-0.662500X-0.075000X0.662500X-0.075000X0*%
%ADD20RoundRect,0.075000X0.075000X0.662500X-0.075000X0.662500X-0.075000X-0.662500X0.075000X-0.662500X0*%
%ADD21RoundRect,0.140000X-0.140000X-0.170000X0.140000X-0.170000X0.140000X0.170000X-0.140000X0.170000X0*%
G04 APERTURE END LIST*
D10*
%TO.C,D1*%
X107803202Y-88964389D03*
X108773202Y-88964389D03*
%TD*%
D11*
%TO.C,R1*%
X107789083Y-92873139D03*
X108809083Y-92873139D03*
%TD*%
%TO.C,R2*%
X107817109Y-95990184D03*
X108837109Y-95990184D03*
%TD*%
D12*
%TO.C,R6*%
X95409649Y-86992999D03*
X94389649Y-86992999D03*
%TD*%
D10*
%TO.C,D2*%
X107801196Y-87006761D03*
X108771196Y-87006761D03*
%TD*%
D11*
%TO.C,R10*%
X94374575Y-91597878D03*
X95394575Y-91597878D03*
%TD*%
%TO.C,R4*%
X107789083Y-91891507D03*
X108809083Y-91891507D03*
%TD*%
D13*
%TO.C,J1*%
X91820374Y-87197063D03*
X91820374Y-95847063D03*
D14*
X87640374Y-87197063D03*
X87640374Y-95847063D03*
D15*
X92535374Y-88172063D03*
X92535374Y-88972063D03*
X92535374Y-90272063D03*
X92535374Y-91272063D03*
X92535374Y-91772063D03*
X92535374Y-92772063D03*
X92535374Y-94072063D03*
X92535374Y-94872063D03*
X92535374Y-94572063D03*
X92535374Y-93772063D03*
X92535374Y-93272063D03*
X92535374Y-92272063D03*
X92535374Y-90772063D03*
X92535374Y-89772063D03*
X92535374Y-89272063D03*
X92535374Y-88472063D03*
%TD*%
D11*
%TO.C,R9*%
X94382202Y-90610032D03*
X95402202Y-90610032D03*
%TD*%
D16*
%TO.C,J3*%
X113030000Y-87646105D03*
X113030000Y-90186105D03*
X113030000Y-92726105D03*
X113030000Y-95266105D03*
%TD*%
D11*
%TO.C,R13*%
X94377166Y-93565496D03*
X95397166Y-93565496D03*
%TD*%
%TO.C,R3*%
X107815988Y-94947145D03*
X108835988Y-94947145D03*
%TD*%
D12*
%TO.C,R5*%
X108809082Y-90912291D03*
X107789082Y-90912291D03*
%TD*%
D17*
%TO.C,Je1*%
X110114092Y-91894793D03*
X110114092Y-92402793D03*
X110114092Y-92910793D03*
%TD*%
D11*
%TO.C,R11*%
X94383624Y-88642328D03*
X95403624Y-88642328D03*
%TD*%
%TO.C,R12*%
X94377166Y-92579388D03*
X95397166Y-92579388D03*
%TD*%
D12*
%TO.C,R8*%
X108798202Y-87985953D03*
X107778202Y-87985953D03*
%TD*%
D17*
%TO.C,J2*%
X110147974Y-88610571D03*
X110147974Y-89118571D03*
X110147974Y-89626571D03*
%TD*%
D18*
%TO.C,D3*%
X95374762Y-89629439D03*
X94404762Y-89629439D03*
%TD*%
D19*
%TO.C,U2*%
X105762500Y-94190000D03*
X105762500Y-93690000D03*
X105762500Y-93190000D03*
X105762500Y-92690000D03*
X105762500Y-92190000D03*
X105762500Y-91690000D03*
X105762500Y-91190000D03*
X105762500Y-90690000D03*
X105762500Y-90190000D03*
X105762500Y-89690000D03*
X105762500Y-89190000D03*
X105762500Y-88690000D03*
D20*
X104350000Y-87277500D03*
X103850000Y-87277500D03*
X103350000Y-87277500D03*
X102850000Y-87277500D03*
X102350000Y-87277500D03*
X101850000Y-87277500D03*
X101350000Y-87277500D03*
X100850000Y-87277500D03*
X100350000Y-87277500D03*
X99850000Y-87277500D03*
X99350000Y-87277500D03*
X98850000Y-87277500D03*
D19*
X97437500Y-88690000D03*
X97437500Y-89190000D03*
X97437500Y-89690000D03*
X97437500Y-90190000D03*
X97437500Y-90690000D03*
X97437500Y-91190000D03*
X97437500Y-91690000D03*
X97437500Y-92190000D03*
X97437500Y-92690000D03*
X97437500Y-93190000D03*
X97437500Y-93690000D03*
X97437500Y-94190000D03*
D20*
X98850000Y-95602500D03*
X99350000Y-95602500D03*
X99850000Y-95602500D03*
X100350000Y-95602500D03*
X100850000Y-95602500D03*
X101350000Y-95602500D03*
X101850000Y-95602500D03*
X102350000Y-95602500D03*
X102850000Y-95602500D03*
X103350000Y-95602500D03*
X103850000Y-95602500D03*
X104350000Y-95602500D03*
%TD*%
D21*
%TO.C,C1*%
X107844994Y-93849478D03*
X108804994Y-93849478D03*
%TD*%
D12*
%TO.C,R7*%
X108807605Y-89933494D03*
X107787605Y-89933494D03*
%TD*%
M02*
