%TF.GenerationSoftware,KiCad,Pcbnew,(6.0.6-0)*%
%TF.CreationDate,2022-08-07T16:54:58+08:00*%
%TF.ProjectId,ST-Link-Nano,53542d4c-696e-46b2-9d4e-616e6f2e6b69,rev?*%
%TF.SameCoordinates,Original*%
%TF.FileFunction,Copper,L1,Top*%
%TF.FilePolarity,Positive*%
%FSLAX46Y46*%
G04 Gerber Fmt 4.6, Leading zero omitted, Abs format (unit mm)*
G04 Created by KiCad (PCBNEW (6.0.6-0)) date 2022-08-07 16:54:58*
%MOMM*%
%LPD*%
G01*
G04 APERTURE LIST*
G04 Aperture macros list*
%AMRoundRect*
0 Rectangle with rounded corners*
0 $1 Rounding radius*
0 $2 $3 $4 $5 $6 $7 $8 $9 X,Y pos of 4 corners*
0 Add a 4 corners polygon primitive as box body*
4,1,4,$2,$3,$4,$5,$6,$7,$8,$9,$2,$3,0*
0 Add four circle primitives for the rounded corners*
1,1,$1+$1,$2,$3*
1,1,$1+$1,$4,$5*
1,1,$1+$1,$6,$7*
1,1,$1+$1,$8,$9*
0 Add four rect primitives between the rounded corners*
20,1,$1+$1,$2,$3,$4,$5,0*
20,1,$1+$1,$4,$5,$6,$7,0*
20,1,$1+$1,$6,$7,$8,$9,0*
20,1,$1+$1,$8,$9,$2,$3,0*%
G04 Aperture macros list end*
%TA.AperFunction,SMDPad,CuDef*%
%ADD10RoundRect,0.147500X-0.147500X-0.172500X0.147500X-0.172500X0.147500X0.172500X-0.147500X0.172500X0*%
%TD*%
%TA.AperFunction,SMDPad,CuDef*%
%ADD11RoundRect,0.135000X-0.135000X-0.185000X0.135000X-0.185000X0.135000X0.185000X-0.135000X0.185000X0*%
%TD*%
%TA.AperFunction,SMDPad,CuDef*%
%ADD12RoundRect,0.135000X0.135000X0.185000X-0.135000X0.185000X-0.135000X-0.185000X0.135000X-0.185000X0*%
%TD*%
%TA.AperFunction,ComponentPad*%
%ADD13RoundRect,0.500000X-0.550000X0.000000X-0.550000X0.000000X0.550000X0.000000X0.550000X0.000000X0*%
%TD*%
%TA.AperFunction,ComponentPad*%
%ADD14RoundRect,0.500000X-0.300000X0.000000X-0.300000X0.000000X0.300000X0.000000X0.300000X0.000000X0*%
%TD*%
%TA.AperFunction,SMDPad,CuDef*%
%ADD15RoundRect,0.075000X-0.350000X0.075000X-0.350000X-0.075000X0.350000X-0.075000X0.350000X0.075000X0*%
%TD*%
%TA.AperFunction,SMDPad,CuDef*%
%ADD16RoundRect,0.317500X-0.952500X-0.317500X0.952500X-0.317500X0.952500X0.317500X-0.952500X0.317500X0*%
%TD*%
%TA.AperFunction,SMDPad,CuDef*%
%ADD17RoundRect,0.077500X-0.202500X-0.077500X0.202500X-0.077500X0.202500X0.077500X-0.202500X0.077500X0*%
%TD*%
%TA.AperFunction,SMDPad,CuDef*%
%ADD18RoundRect,0.147500X0.147500X0.172500X-0.147500X0.172500X-0.147500X-0.172500X0.147500X-0.172500X0*%
%TD*%
%TA.AperFunction,SMDPad,CuDef*%
%ADD19RoundRect,0.075000X0.662500X0.075000X-0.662500X0.075000X-0.662500X-0.075000X0.662500X-0.075000X0*%
%TD*%
%TA.AperFunction,SMDPad,CuDef*%
%ADD20RoundRect,0.075000X0.075000X0.662500X-0.075000X0.662500X-0.075000X-0.662500X0.075000X-0.662500X0*%
%TD*%
%TA.AperFunction,SMDPad,CuDef*%
%ADD21RoundRect,0.140000X-0.140000X-0.170000X0.140000X-0.170000X0.140000X0.170000X-0.140000X0.170000X0*%
%TD*%
%TA.AperFunction,ViaPad*%
%ADD22C,0.500000*%
%TD*%
%TA.AperFunction,Conductor*%
%ADD23C,0.250000*%
%TD*%
%TA.AperFunction,Conductor*%
%ADD24C,0.300000*%
%TD*%
%TA.AperFunction,Conductor*%
%ADD25C,0.200000*%
%TD*%
G04 APERTURE END LIST*
D10*
%TO.P,D1,1,K*%
%TO.N,GND*%
X107803202Y-88964389D03*
%TO.P,D1,2,A*%
%TO.N,Net-(D1-Pad2)*%
X108773202Y-88964389D03*
%TD*%
D11*
%TO.P,R1,1*%
%TO.N,Net-(C1-Pad1)*%
X107789083Y-92873139D03*
%TO.P,R1,2*%
%TO.N,+3V3*%
X108809083Y-92873139D03*
%TD*%
%TO.P,R2,1*%
%TO.N,Net-(R2-Pad1)*%
X107817109Y-95990184D03*
%TO.P,R2,2*%
%TO.N,GND*%
X108837109Y-95990184D03*
%TD*%
D12*
%TO.P,R6,1*%
%TO.N,Net-(R6-Pad1)*%
X95409649Y-86992999D03*
%TO.P,R6,2*%
%TO.N,GND*%
X94389649Y-86992999D03*
%TD*%
D10*
%TO.P,D2,1,K*%
%TO.N,GND*%
X107801196Y-87006761D03*
%TO.P,D2,2,A*%
%TO.N,Net-(D2-Pad2)*%
X108771196Y-87006761D03*
%TD*%
D11*
%TO.P,R10,1*%
%TO.N,/USB_N*%
X94374575Y-91597878D03*
%TO.P,R10,2*%
%TO.N,Net-(R10-Pad2)*%
X95394575Y-91597878D03*
%TD*%
%TO.P,R4,1*%
%TO.N,Net-(R4-Pad1)*%
X107789083Y-91891507D03*
%TO.P,R4,2*%
%TO.N,+3V3*%
X108809083Y-91891507D03*
%TD*%
D13*
%TO.P,J1,1,SH1*%
%TO.N,GND*%
X91820374Y-87197063D03*
%TO.P,J1,2,SH2*%
X91820374Y-95847063D03*
D14*
%TO.P,J1,3,SH3*%
X87640374Y-87197063D03*
%TO.P,J1,4,SH4*%
X87640374Y-95847063D03*
D15*
%TO.P,J1,A1,GND*%
X92535374Y-88172063D03*
%TO.P,J1,A4,VBUS*%
%TO.N,+5V*%
X92535374Y-88972063D03*
%TO.P,J1,A5,CC1*%
%TO.N,unconnected-(J1-PadA5)*%
X92535374Y-90272063D03*
%TO.P,J1,A6,D+*%
%TO.N,/USB_P*%
X92535374Y-91272063D03*
%TO.P,J1,A7,D-*%
%TO.N,/USB_N*%
X92535374Y-91772063D03*
%TO.P,J1,A8,SBU1*%
%TO.N,unconnected-(J1-PadA8)*%
X92535374Y-92772063D03*
%TO.P,J1,A9,VBUS*%
%TO.N,+5V*%
X92535374Y-94072063D03*
%TO.P,J1,A12,GND*%
%TO.N,GND*%
X92535374Y-94872063D03*
%TO.P,J1,B1,GND*%
X92535374Y-94572063D03*
%TO.P,J1,B4,VBUS*%
%TO.N,+5V*%
X92535374Y-93772063D03*
%TO.P,J1,B5,CC2*%
%TO.N,unconnected-(J1-PadB5)*%
X92535374Y-93272063D03*
%TO.P,J1,B6,D+*%
%TO.N,/USB_P*%
X92535374Y-92272063D03*
%TO.P,J1,B7,D-*%
%TO.N,/USB_N*%
X92535374Y-90772063D03*
%TO.P,J1,B8,SBU2*%
%TO.N,unconnected-(J1-PadB8)*%
X92535374Y-89772063D03*
%TO.P,J1,B9,VBUS*%
%TO.N,+5V*%
X92535374Y-89272063D03*
%TO.P,J1,B12,GND*%
%TO.N,GND*%
X92535374Y-88472063D03*
%TD*%
D11*
%TO.P,R9,1*%
%TO.N,Net-(D3-Pad2)*%
X94382202Y-90610032D03*
%TO.P,R9,2*%
%TO.N,Net-(R9-Pad2)*%
X95402202Y-90610032D03*
%TD*%
D16*
%TO.P,J3,1,Pin_1*%
%TO.N,+3V3*%
X113030000Y-87646105D03*
%TO.P,J3,2,Pin_2*%
%TO.N,Net-(J2-Pad2)*%
X113030000Y-90186105D03*
%TO.P,J3,3,Pin_3*%
%TO.N,Net-(J3-Pad3)*%
X113030000Y-92726105D03*
%TO.P,J3,4,Pin_4*%
%TO.N,GND*%
X113030000Y-95266105D03*
%TD*%
D11*
%TO.P,R13,1*%
%TO.N,/USB_P*%
X94377166Y-93565496D03*
%TO.P,R13,2*%
%TO.N,+3V3*%
X95397166Y-93565496D03*
%TD*%
%TO.P,R3,1*%
%TO.N,Net-(R3-Pad1)*%
X107815988Y-94947145D03*
%TO.P,R3,2*%
%TO.N,GND*%
X108835988Y-94947145D03*
%TD*%
D12*
%TO.P,R5,1*%
%TO.N,GND*%
X108809082Y-90912291D03*
%TO.P,R5,2*%
%TO.N,Net-(R4-Pad1)*%
X107789082Y-90912291D03*
%TD*%
D17*
%TO.P,Je1,1*%
%TO.N,/JTMS*%
X110114092Y-91894793D03*
%TO.P,Je1,2*%
%TO.N,Net-(J3-Pad3)*%
X110114092Y-92402793D03*
%TO.P,Je1,3*%
%TO.N,/ST_SWDIO*%
X110114092Y-92910793D03*
%TD*%
D11*
%TO.P,R11,1*%
%TO.N,Net-(R11-Pad1)*%
X94383624Y-88642328D03*
%TO.P,R11,2*%
%TO.N,/JTMS*%
X95403624Y-88642328D03*
%TD*%
%TO.P,R12,1*%
%TO.N,/USB_P*%
X94377166Y-92579388D03*
%TO.P,R12,2*%
%TO.N,Net-(R12-Pad2)*%
X95397166Y-92579388D03*
%TD*%
D12*
%TO.P,R8,1*%
%TO.N,Net-(D2-Pad2)*%
X108798202Y-87985953D03*
%TO.P,R8,2*%
%TO.N,/RX*%
X107778202Y-87985953D03*
%TD*%
D17*
%TO.P,J2,1*%
%TO.N,/JTCK*%
X110147974Y-88610571D03*
%TO.P,J2,2*%
%TO.N,Net-(J2-Pad2)*%
X110147974Y-89118571D03*
%TO.P,J2,3*%
%TO.N,/ST_SWCLK*%
X110147974Y-89626571D03*
%TD*%
D18*
%TO.P,D3,1,K*%
%TO.N,GND*%
X95374762Y-89629439D03*
%TO.P,D3,2,A*%
%TO.N,Net-(D3-Pad2)*%
X94404762Y-89629439D03*
%TD*%
D19*
%TO.P,U2,1,VBAT*%
%TO.N,+3V3*%
X105762500Y-94190000D03*
%TO.P,U2,2,PC13*%
%TO.N,Net-(R3-Pad1)*%
X105762500Y-93690000D03*
%TO.P,U2,3,PC14*%
%TO.N,unconnected-(U2-Pad3)*%
X105762500Y-93190000D03*
%TO.P,U2,4,PC15*%
%TO.N,unconnected-(U2-Pad4)*%
X105762500Y-92690000D03*
%TO.P,U2,5,PD0*%
%TO.N,Net-(U2-Pad5)*%
X105762500Y-92190000D03*
%TO.P,U2,6,PD1*%
%TO.N,Net-(U2-Pad6)*%
X105762500Y-91690000D03*
%TO.P,U2,7,NRST*%
%TO.N,Net-(C1-Pad1)*%
X105762500Y-91190000D03*
%TO.P,U2,8,VSSA*%
%TO.N,GND*%
X105762500Y-90690000D03*
%TO.P,U2,9,VDDA*%
%TO.N,+3V3*%
X105762500Y-90190000D03*
%TO.P,U2,10,PA0*%
%TO.N,Net-(R4-Pad1)*%
X105762500Y-89690000D03*
%TO.P,U2,11,PA1*%
%TO.N,unconnected-(U2-Pad11)*%
X105762500Y-89190000D03*
%TO.P,U2,12,PA2*%
%TO.N,/TX*%
X105762500Y-88690000D03*
D20*
%TO.P,U2,13,PA3*%
%TO.N,/RX*%
X104350000Y-87277500D03*
%TO.P,U2,14,PA4*%
%TO.N,unconnected-(U2-Pad14)*%
X103850000Y-87277500D03*
%TO.P,U2,15,PA5*%
%TO.N,/JTCK*%
X103350000Y-87277500D03*
%TO.P,U2,16,PA6*%
%TO.N,/JTDO*%
X102850000Y-87277500D03*
%TO.P,U2,17,PA7*%
%TO.N,/JTDI*%
X102350000Y-87277500D03*
%TO.P,U2,18,PB0*%
%TO.N,/nRST*%
X101850000Y-87277500D03*
%TO.P,U2,19,PB1*%
%TO.N,unconnected-(U2-Pad19)*%
X101350000Y-87277500D03*
%TO.P,U2,20,PB2*%
%TO.N,Net-(R6-Pad1)*%
X100850000Y-87277500D03*
%TO.P,U2,21,PB10*%
%TO.N,GND*%
X100350000Y-87277500D03*
%TO.P,U2,22,PB11*%
%TO.N,unconnected-(U2-Pad22)*%
X99850000Y-87277500D03*
%TO.P,U2,23,VSS*%
%TO.N,GND*%
X99350000Y-87277500D03*
%TO.P,U2,24,VDD*%
%TO.N,+3V3*%
X98850000Y-87277500D03*
D19*
%TO.P,U2,25,PB12*%
%TO.N,Net-(R11-Pad1)*%
X97437500Y-88690000D03*
%TO.P,U2,26,PB13*%
%TO.N,/JTCK*%
X97437500Y-89190000D03*
%TO.P,U2,27,PB14*%
%TO.N,/JTMS*%
X97437500Y-89690000D03*
%TO.P,U2,28,PB15*%
%TO.N,unconnected-(U2-Pad28)*%
X97437500Y-90190000D03*
%TO.P,U2,29,PA8*%
%TO.N,unconnected-(U2-Pad29)*%
X97437500Y-90690000D03*
%TO.P,U2,30,PA9*%
%TO.N,Net-(R9-Pad2)*%
X97437500Y-91190000D03*
%TO.P,U2,31,PA10*%
%TO.N,/T_SWO*%
X97437500Y-91690000D03*
%TO.P,U2,32,PA11*%
%TO.N,Net-(R10-Pad2)*%
X97437500Y-92190000D03*
%TO.P,U2,33,PA12*%
%TO.N,Net-(R12-Pad2)*%
X97437500Y-92690000D03*
%TO.P,U2,34,PA13*%
%TO.N,/ST_SWDIO*%
X97437500Y-93190000D03*
%TO.P,U2,35,VSS*%
%TO.N,GND*%
X97437500Y-93690000D03*
%TO.P,U2,36,VDD*%
%TO.N,+3V3*%
X97437500Y-94190000D03*
D20*
%TO.P,U2,37,PA14*%
%TO.N,/ST_SWCLK*%
X98850000Y-95602500D03*
%TO.P,U2,38,PA15*%
%TO.N,/RENUMn*%
X99350000Y-95602500D03*
%TO.P,U2,39,PB3*%
%TO.N,+3V3*%
X99850000Y-95602500D03*
%TO.P,U2,40,PB4*%
%TO.N,unconnected-(U2-Pad40)*%
X100350000Y-95602500D03*
%TO.P,U2,41,PB5*%
%TO.N,unconnected-(U2-Pad41)*%
X100850000Y-95602500D03*
%TO.P,U2,42,PB6*%
%TO.N,unconnected-(U2-Pad42)*%
X101350000Y-95602500D03*
%TO.P,U2,43,PB7*%
%TO.N,unconnected-(U2-Pad43)*%
X101850000Y-95602500D03*
%TO.P,U2,44,BOOT0*%
%TO.N,Net-(R2-Pad1)*%
X102350000Y-95602500D03*
%TO.P,U2,45,PB8*%
%TO.N,unconnected-(U2-Pad45)*%
X102850000Y-95602500D03*
%TO.P,U2,46,PB9*%
%TO.N,unconnected-(U2-Pad46)*%
X103350000Y-95602500D03*
%TO.P,U2,47,VSS*%
%TO.N,GND*%
X103850000Y-95602500D03*
%TO.P,U2,48,VDD*%
%TO.N,+3V3*%
X104350000Y-95602500D03*
%TD*%
D21*
%TO.P,C1,1*%
%TO.N,Net-(C1-Pad1)*%
X107844994Y-93849478D03*
%TO.P,C1,2*%
%TO.N,GND*%
X108804994Y-93849478D03*
%TD*%
D12*
%TO.P,R7,1*%
%TO.N,Net-(D1-Pad2)*%
X108807605Y-89933494D03*
%TO.P,R7,2*%
%TO.N,/TX*%
X107787605Y-89933494D03*
%TD*%
D22*
%TO.N,GND*%
X94234000Y-85852000D03*
X100330000Y-91694000D03*
X103632000Y-89662000D03*
X96520000Y-87376000D03*
X96012000Y-89916000D03*
X96266000Y-96266000D03*
X109982000Y-95758000D03*
X109982000Y-96774000D03*
X90424000Y-90170000D03*
X102870000Y-89662000D03*
X106553000Y-88011000D03*
X100330000Y-90170000D03*
X95250000Y-85852000D03*
X90424000Y-93218000D03*
X103878086Y-94260805D03*
X104394000Y-93472000D03*
X101859550Y-94330711D03*
X90424000Y-92202000D03*
X100330000Y-90932000D03*
X102842603Y-94330711D03*
X104902000Y-86360000D03*
X109433434Y-89441785D03*
X97536000Y-86614000D03*
X94234000Y-96520000D03*
X90424000Y-91186000D03*
X93218000Y-96520000D03*
X107358784Y-86271860D03*
X98044000Y-96266000D03*
X104394000Y-90678000D03*
X93218000Y-85852000D03*
X97268039Y-96266000D03*
X97255954Y-87389081D03*
X98831233Y-93497233D03*
%TO.N,+5V*%
X95208974Y-96122477D03*
%TO.N,+3V3*%
X105029050Y-95398160D03*
X98044000Y-87884000D03*
X97536000Y-94742000D03*
X104394000Y-89662000D03*
X109474000Y-91440000D03*
X109398178Y-92714400D03*
%TO.N,/ST_SWCLK*%
X110236000Y-90170000D03*
X99060000Y-96774000D03*
%TO.N,/TX*%
X105664000Y-88015374D03*
%TO.N,/RX*%
X105762500Y-87277500D03*
%TO.N,/nRST*%
X101854000Y-85852000D03*
%TO.N,/JTMS*%
X98806000Y-89764500D03*
X110236000Y-91440000D03*
%TO.N,/ST_SWDIO*%
X98806000Y-92710000D03*
X109982000Y-93472000D03*
%TO.N,Net-(U2-Pad5)*%
X100584000Y-93218000D03*
%TO.N,Net-(U2-Pad6)*%
X104394000Y-91440000D03*
%TD*%
D23*
%TO.N,Net-(C1-Pad1)*%
X107188000Y-92272056D02*
X107789083Y-92873139D01*
X106684000Y-91190000D02*
X107188000Y-91694000D01*
X107844994Y-92929050D02*
X107789083Y-92873139D01*
X107188000Y-91694000D02*
X107188000Y-92272056D01*
X107844994Y-93849478D02*
X107844994Y-92929050D01*
X105762500Y-91190000D02*
X106684000Y-91190000D01*
%TO.N,GND*%
X95725439Y-89629439D02*
X96012000Y-89916000D01*
X109474000Y-90424000D02*
X109474000Y-89408000D01*
X98044000Y-86106000D02*
X97536000Y-86614000D01*
X97437500Y-93690000D02*
X98638466Y-93690000D01*
X107506389Y-88964389D02*
X106553000Y-88011000D01*
X108809082Y-90912291D02*
X108985709Y-90912291D01*
X105762500Y-90690000D02*
X104660000Y-90690000D01*
X105762500Y-90690000D02*
X104406000Y-90690000D01*
X99060000Y-86106000D02*
X98298000Y-86106000D01*
X99350000Y-87277500D02*
X99350000Y-86396000D01*
X103850000Y-95602500D02*
X103850000Y-94524000D01*
X107801196Y-86719196D02*
X107442000Y-86360000D01*
X98638466Y-93690000D02*
X98831233Y-93497233D01*
X104406000Y-90690000D02*
X104394000Y-90678000D01*
X108985709Y-90912291D02*
X109474000Y-90424000D01*
X100023446Y-86106000D02*
X99060000Y-86106000D01*
X103850000Y-94270000D02*
X103886000Y-94234000D01*
X95374762Y-89629439D02*
X95725439Y-89629439D01*
X98298000Y-86106000D02*
X98044000Y-86106000D01*
X100350000Y-87277500D02*
X100350000Y-86432554D01*
X100350000Y-86432554D02*
X100023446Y-86106000D01*
X99350000Y-86396000D02*
X99060000Y-86106000D01*
X103850000Y-95602500D02*
X103850000Y-94270000D01*
X107801196Y-87006761D02*
X107801196Y-86719196D01*
X107803202Y-88964389D02*
X107506389Y-88964389D01*
D24*
%TO.N,+5V*%
X91360374Y-93123104D02*
X92309333Y-94072063D01*
X92535374Y-94072063D02*
X93877839Y-94072063D01*
X95208974Y-95403198D02*
X95208974Y-96122477D01*
D23*
X92535374Y-88972063D02*
X92535374Y-89272063D01*
D24*
X92535374Y-89272063D02*
X92009333Y-89272063D01*
X92309333Y-94072063D02*
X92535374Y-94072063D01*
X91360374Y-89921022D02*
X91360374Y-93123104D01*
X92009333Y-89272063D02*
X91360374Y-89921022D01*
D23*
X92535374Y-93772063D02*
X92535374Y-94072063D01*
D24*
X93877839Y-94072063D02*
X95208974Y-95403198D01*
D23*
%TO.N,+3V3*%
X114316105Y-87646105D02*
X113030000Y-87646105D01*
X109239439Y-92873139D02*
X109398178Y-92714400D01*
X95714000Y-94190000D02*
X95397166Y-93873166D01*
X98044000Y-87884000D02*
X98650500Y-87277500D01*
X97437500Y-94190000D02*
X95714000Y-94190000D01*
X115062000Y-90678000D02*
X115062000Y-88392000D01*
X109474000Y-91388827D02*
X109997827Y-90865000D01*
X105762500Y-90190000D02*
X104922000Y-90190000D01*
X98650500Y-87277500D02*
X98850000Y-87277500D01*
X109997827Y-90865000D02*
X111185000Y-90865000D01*
X108809083Y-91891507D02*
X109022493Y-91891507D01*
X108809083Y-91891507D02*
X108809083Y-92873139D01*
X105762500Y-94190000D02*
X105762500Y-94664710D01*
X111760000Y-91440000D02*
X114300000Y-91440000D01*
X95397166Y-93873166D02*
X95397166Y-93565496D01*
X109022493Y-91891507D02*
X109474000Y-91440000D01*
X97437500Y-94190000D02*
X99524000Y-94190000D01*
X115062000Y-88392000D02*
X114316105Y-87646105D01*
X109474000Y-91440000D02*
X109474000Y-91388827D01*
X104824710Y-95602500D02*
X105029050Y-95398160D01*
X104350000Y-95602500D02*
X104824710Y-95602500D01*
X99850000Y-94516000D02*
X99850000Y-95602500D01*
X99524000Y-94190000D02*
X99850000Y-94516000D01*
X97437500Y-94643500D02*
X97536000Y-94742000D01*
X111185000Y-90865000D02*
X111760000Y-91440000D01*
X105762500Y-94664710D02*
X105029050Y-95398160D01*
X114300000Y-91440000D02*
X115062000Y-90678000D01*
X97437500Y-94190000D02*
X97437500Y-94643500D01*
X108809083Y-92873139D02*
X109239439Y-92873139D01*
X104922000Y-90190000D02*
X104394000Y-89662000D01*
%TO.N,Net-(D1-Pad2)*%
X108807605Y-88998792D02*
X108773202Y-88964389D01*
X108807605Y-89933494D02*
X108807605Y-88998792D01*
%TO.N,Net-(D2-Pad2)*%
X108798202Y-87033767D02*
X108771196Y-87006761D01*
X108798202Y-87985953D02*
X108798202Y-87033767D01*
D25*
%TO.N,Net-(D3-Pad2)*%
X94382202Y-90610032D02*
X94382202Y-89651999D01*
D23*
X94382202Y-89651999D02*
X94404762Y-89629439D01*
D25*
%TO.N,/USB_P*%
X92535374Y-91272063D02*
X92080044Y-91272063D01*
X92080044Y-91272063D02*
X91810374Y-91541733D01*
X94377166Y-93565496D02*
X94377166Y-92579388D01*
X91810374Y-91541733D02*
X91810374Y-92002393D01*
X94069841Y-92272063D02*
X94377166Y-92579388D01*
X91810374Y-92002393D02*
X92080044Y-92272063D01*
X92535374Y-92272063D02*
X94069841Y-92272063D01*
X92080044Y-92272063D02*
X92535374Y-92272063D01*
%TO.N,/USB_N*%
X92535374Y-90772063D02*
X92990704Y-90772063D01*
X92990704Y-90772063D02*
X93260374Y-91041733D01*
X93060374Y-91772063D02*
X92535374Y-91772063D01*
X94374575Y-91597878D02*
X94200390Y-91772063D01*
X94200390Y-91772063D02*
X92535374Y-91772063D01*
X93260374Y-91041733D02*
X93260374Y-91572063D01*
X93260374Y-91572063D02*
X93060374Y-91772063D01*
D23*
%TO.N,/JTCK*%
X104140000Y-85598000D02*
X103350000Y-86388000D01*
X103350000Y-88080685D02*
X103350000Y-87277500D01*
X102240685Y-89190000D02*
X103350000Y-88080685D01*
X110147974Y-86271974D02*
X109474000Y-85598000D01*
X97437500Y-89190000D02*
X102240685Y-89190000D01*
X109474000Y-85598000D02*
X104140000Y-85598000D01*
X110147974Y-88610571D02*
X110147974Y-86271974D01*
X103350000Y-86388000D02*
X103350000Y-87277500D01*
%TO.N,Net-(J2-Pad2)*%
X110147974Y-89118571D02*
X110708571Y-89118571D01*
X111776105Y-90186105D02*
X113030000Y-90186105D01*
X110708571Y-89118571D02*
X111776105Y-90186105D01*
%TO.N,/ST_SWCLK*%
X98850000Y-96564000D02*
X99060000Y-96774000D01*
X110147974Y-89626571D02*
X110147974Y-90081974D01*
X110147974Y-90081974D02*
X110236000Y-90170000D01*
X98850000Y-95602500D02*
X98850000Y-96564000D01*
%TO.N,Net-(J3-Pad3)*%
X111268105Y-92726105D02*
X113030000Y-92726105D01*
X110944793Y-92402793D02*
X111268105Y-92726105D01*
X110114092Y-92402793D02*
X110944793Y-92402793D01*
%TO.N,/TX*%
X105762500Y-88113874D02*
X105664000Y-88015374D01*
X107459494Y-89933494D02*
X107787605Y-89933494D01*
X105762500Y-88490500D02*
X105762500Y-88113874D01*
X105762500Y-88690000D02*
X106565685Y-88690000D01*
X106934000Y-89058315D02*
X106934000Y-89408000D01*
X105762500Y-88490500D02*
X105762500Y-88236500D01*
X106565685Y-88690000D02*
X106934000Y-89058315D01*
X106934000Y-89408000D02*
X107459494Y-89933494D01*
X105762500Y-88236500D02*
X105664000Y-88138000D01*
X105762500Y-88690000D02*
X105762500Y-88490500D01*
%TO.N,/RX*%
X106835500Y-87277500D02*
X107543953Y-87985953D01*
X104350000Y-87277500D02*
X105762500Y-87277500D01*
X105762500Y-87277500D02*
X106835500Y-87277500D01*
X107543953Y-87985953D02*
X107778202Y-87985953D01*
%TO.N,/nRST*%
X101854000Y-87273500D02*
X101850000Y-87277500D01*
X101854000Y-85852000D02*
X101854000Y-87273500D01*
%TO.N,/JTMS*%
X98731500Y-89690000D02*
X98806000Y-89764500D01*
X97437500Y-89690000D02*
X98731500Y-89690000D01*
X110114092Y-91561908D02*
X110236000Y-91440000D01*
D25*
X96400000Y-89420330D02*
X96400000Y-89209352D01*
D23*
X110114092Y-91894793D02*
X110114092Y-91561908D01*
D25*
X96669670Y-89690000D02*
X96400000Y-89420330D01*
X95832976Y-88642328D02*
X95403624Y-88642328D01*
X96400000Y-89209352D02*
X95832976Y-88642328D01*
X97437500Y-89690000D02*
X96669670Y-89690000D01*
D23*
%TO.N,/ST_SWDIO*%
X97437500Y-93190000D02*
X98326000Y-93190000D01*
X110114092Y-93339908D02*
X109982000Y-93472000D01*
X98326000Y-93190000D02*
X98806000Y-92710000D01*
X110114092Y-92910793D02*
X110114092Y-93339908D01*
%TO.N,Net-(R2-Pad1)*%
X102350000Y-95602500D02*
X102350000Y-96532000D01*
X107442000Y-96774000D02*
X107809820Y-96406180D01*
X102592000Y-96774000D02*
X107442000Y-96774000D01*
X102350000Y-96532000D02*
X102592000Y-96774000D01*
X107809820Y-96406180D02*
X107809820Y-95967543D01*
%TO.N,Net-(R3-Pad1)*%
X107188000Y-93980000D02*
X107188000Y-94742000D01*
X107188000Y-94742000D02*
X107442000Y-94996000D01*
X105762500Y-93690000D02*
X106898000Y-93690000D01*
X107442000Y-94996000D02*
X107767133Y-94996000D01*
X106898000Y-93690000D02*
X107188000Y-93980000D01*
X107767133Y-94996000D02*
X107815988Y-94947145D01*
%TO.N,Net-(R4-Pad1)*%
X107789082Y-90912291D02*
X107789083Y-91891507D01*
X107188000Y-90678000D02*
X107442000Y-90932000D01*
X106565685Y-89690000D02*
X107188000Y-90312315D01*
X105762500Y-89690000D02*
X106565685Y-89690000D01*
X107442000Y-90932000D02*
X107769373Y-90932000D01*
X107188000Y-90312315D02*
X107188000Y-90678000D01*
X107769373Y-90932000D02*
X107789082Y-90912291D01*
%TO.N,Net-(R6-Pad1)*%
X95633001Y-86992999D02*
X95409649Y-86992999D01*
X100850000Y-87277500D02*
X100850000Y-86296158D01*
X100850000Y-86296158D02*
X100151842Y-85598000D01*
X97028000Y-85598000D02*
X95633001Y-86992999D01*
X100151842Y-85598000D02*
X97028000Y-85598000D01*
D25*
%TO.N,Net-(R9-Pad2)*%
X96669670Y-91190000D02*
X96089702Y-90610032D01*
X96089702Y-90610032D02*
X95402202Y-90610032D01*
X97437500Y-91190000D02*
X96669670Y-91190000D01*
D23*
%TO.N,Net-(R10-Pad2)*%
X97437500Y-92190000D02*
X96508000Y-92190000D01*
X96508000Y-92190000D02*
X95915878Y-91597878D01*
X95915878Y-91597878D02*
X95394575Y-91597878D01*
D25*
%TO.N,Net-(R11-Pad1)*%
X97437500Y-88690000D02*
X96769828Y-88022328D01*
X95003624Y-88022328D02*
X94383624Y-88642328D01*
X96769828Y-88022328D02*
X95003624Y-88022328D01*
D23*
%TO.N,Net-(R12-Pad2)*%
X96371604Y-92690000D02*
X96201802Y-92520198D01*
X95456356Y-92520198D02*
X95397166Y-92579388D01*
X96201802Y-92520198D02*
X95456356Y-92520198D01*
X97437500Y-92690000D02*
X96371604Y-92690000D01*
%TO.N,Net-(U2-Pad5)*%
X101346000Y-93218000D02*
X100584000Y-93218000D01*
X105762500Y-92190000D02*
X102374000Y-92190000D01*
X102374000Y-92190000D02*
X101346000Y-93218000D01*
%TO.N,Net-(U2-Pad6)*%
X105762500Y-91690000D02*
X104644000Y-91690000D01*
X104644000Y-91690000D02*
X104394000Y-91440000D01*
%TD*%
%TA.AperFunction,Conductor*%
%TO.N,GND*%
G36*
X87357429Y-85341084D02*
G01*
X87361542Y-85341191D01*
X87376087Y-85342414D01*
X87378503Y-85342759D01*
X87390211Y-85346878D01*
X87430421Y-85344687D01*
X87437267Y-85344500D01*
X90798415Y-85344726D01*
X96440020Y-85345104D01*
X96508140Y-85365111D01*
X96554629Y-85418769D01*
X96564728Y-85489044D01*
X96535231Y-85553623D01*
X96529107Y-85560199D01*
X95703146Y-86386160D01*
X95640834Y-86420186D01*
X95594343Y-86421514D01*
X95580200Y-86419274D01*
X95580191Y-86419273D01*
X95575302Y-86418499D01*
X95409666Y-86418499D01*
X95243997Y-86418500D01*
X95239104Y-86419275D01*
X95239103Y-86419275D01*
X95162585Y-86431393D01*
X95162583Y-86431394D01*
X95152787Y-86432945D01*
X95143950Y-86437448D01*
X95143949Y-86437448D01*
X95107800Y-86455867D01*
X95042853Y-86488959D01*
X94988391Y-86543421D01*
X94926079Y-86577447D01*
X94855264Y-86572382D01*
X94810201Y-86543421D01*
X94763159Y-86496379D01*
X94747316Y-86484868D01*
X94655189Y-86437927D01*
X94636562Y-86431875D01*
X94560157Y-86419774D01*
X94550311Y-86418999D01*
X94534764Y-86418999D01*
X94519525Y-86423474D01*
X94518320Y-86424864D01*
X94516649Y-86432547D01*
X94516649Y-87548884D01*
X94521124Y-87564123D01*
X94522514Y-87565328D01*
X94530197Y-87566999D01*
X94550311Y-87566999D01*
X94560157Y-87566224D01*
X94646355Y-87552572D01*
X94646837Y-87555615D01*
X94701511Y-87554059D01*
X94762305Y-87590727D01*
X94793624Y-87654443D01*
X94785524Y-87724976D01*
X94761989Y-87761447D01*
X94749253Y-87775224D01*
X94745826Y-87778788D01*
X94493691Y-88030923D01*
X94431379Y-88064949D01*
X94404597Y-88067828D01*
X94238680Y-88067829D01*
X94217972Y-88067829D01*
X94213079Y-88068604D01*
X94213078Y-88068604D01*
X94136560Y-88080722D01*
X94136558Y-88080723D01*
X94126762Y-88082274D01*
X94016828Y-88138288D01*
X93929584Y-88225532D01*
X93873570Y-88335466D01*
X93872020Y-88345255D01*
X93872019Y-88345257D01*
X93870643Y-88353944D01*
X93859124Y-88426675D01*
X93859125Y-88857980D01*
X93859900Y-88862873D01*
X93859900Y-88862874D01*
X93870668Y-88930864D01*
X93873570Y-88949190D01*
X93878073Y-88958027D01*
X93878073Y-88958028D01*
X93887769Y-88977057D01*
X93929584Y-89059124D01*
X93934937Y-89064477D01*
X93958358Y-89130117D01*
X93942279Y-89199269D01*
X93934834Y-89210853D01*
X93927983Y-89217704D01*
X93919182Y-89234977D01*
X93874674Y-89322329D01*
X93874673Y-89322332D01*
X93870172Y-89331166D01*
X93855262Y-89425302D01*
X93855263Y-89833575D01*
X93870172Y-89927712D01*
X93927983Y-90041174D01*
X93932168Y-90045359D01*
X93955280Y-90110137D01*
X93939198Y-90179288D01*
X93933960Y-90187438D01*
X93928162Y-90193236D01*
X93872148Y-90303170D01*
X93870598Y-90312959D01*
X93870597Y-90312961D01*
X93868461Y-90326447D01*
X93857702Y-90394379D01*
X93857703Y-90825684D01*
X93872148Y-90916894D01*
X93876651Y-90925731D01*
X93876651Y-90925732D01*
X93884666Y-90941463D01*
X93928162Y-91026828D01*
X93929887Y-91028553D01*
X93952352Y-91091507D01*
X93936275Y-91160660D01*
X93928493Y-91172769D01*
X93927549Y-91174068D01*
X93920535Y-91181082D01*
X93864521Y-91291016D01*
X93862970Y-91300808D01*
X93860707Y-91307773D01*
X93820634Y-91366379D01*
X93755237Y-91394016D01*
X93685280Y-91381909D01*
X93632974Y-91333903D01*
X93614874Y-91268837D01*
X93614874Y-91092990D01*
X93616980Y-91073196D01*
X93617185Y-91068843D01*
X93619377Y-91058663D01*
X93615747Y-91027993D01*
X93615432Y-91022650D01*
X93615302Y-91022661D01*
X93614874Y-91017481D01*
X93614874Y-91012282D01*
X93614021Y-91007158D01*
X93614020Y-91007145D01*
X93611947Y-90994692D01*
X93611110Y-90988817D01*
X93606729Y-90951804D01*
X93605505Y-90941463D01*
X93601804Y-90933755D01*
X93600399Y-90925316D01*
X93577745Y-90883332D01*
X93575064Y-90878069D01*
X93562352Y-90851596D01*
X93554419Y-90835075D01*
X93551063Y-90831083D01*
X93549116Y-90829136D01*
X93547626Y-90827511D01*
X93547393Y-90827079D01*
X93547429Y-90827046D01*
X93547290Y-90826888D01*
X93544357Y-90821453D01*
X93520594Y-90799486D01*
X93507505Y-90787387D01*
X93503939Y-90783959D01*
X93277620Y-90557641D01*
X93265118Y-90542161D01*
X93262179Y-90538931D01*
X93256529Y-90530181D01*
X93248346Y-90523730D01*
X93242591Y-90517406D01*
X93211537Y-90453561D01*
X93210860Y-90416158D01*
X93214874Y-90385671D01*
X93214874Y-90158455D01*
X93208556Y-90110467D01*
X93192163Y-90075311D01*
X93181502Y-90005121D01*
X93192162Y-89968817D01*
X93208556Y-89933659D01*
X93214874Y-89885671D01*
X93214874Y-89658455D01*
X93208556Y-89610467D01*
X93192163Y-89575311D01*
X93181502Y-89505121D01*
X93192162Y-89468817D01*
X93208556Y-89433659D01*
X93214874Y-89385671D01*
X93214874Y-89158455D01*
X93212248Y-89138508D01*
X93212248Y-89105616D01*
X93214336Y-89089756D01*
X93214874Y-89085671D01*
X93214874Y-88858455D01*
X93208556Y-88810467D01*
X93204484Y-88801735D01*
X93204483Y-88801731D01*
X93191888Y-88774721D01*
X93181227Y-88704530D01*
X93191888Y-88668222D01*
X93203992Y-88642264D01*
X93209324Y-88623970D01*
X93210239Y-88617024D01*
X93208027Y-88602841D01*
X93194871Y-88599063D01*
X93053907Y-88599063D01*
X93000657Y-88587258D01*
X92996368Y-88585258D01*
X92943083Y-88538341D01*
X92923622Y-88470063D01*
X92944164Y-88402103D01*
X92998187Y-88356038D01*
X93049618Y-88345063D01*
X93194488Y-88345063D01*
X93208259Y-88341019D01*
X93211063Y-88322309D01*
X93208027Y-88302841D01*
X93194870Y-88299063D01*
X92680489Y-88299063D01*
X92665250Y-88303538D01*
X92664045Y-88304928D01*
X92662374Y-88312611D01*
X92662374Y-88326948D01*
X92666849Y-88342187D01*
X92671640Y-88346339D01*
X92710023Y-88406065D01*
X92710023Y-88477062D01*
X92671639Y-88536788D01*
X92607058Y-88566281D01*
X92589127Y-88567563D01*
X92534374Y-88567563D01*
X92466253Y-88547561D01*
X92419760Y-88493905D01*
X92408374Y-88441563D01*
X92408374Y-88154063D01*
X92428376Y-88085942D01*
X92482032Y-88039449D01*
X92534374Y-88028063D01*
X92603553Y-88028063D01*
X92636555Y-88037753D01*
X92636815Y-88036556D01*
X92675922Y-88045063D01*
X93194488Y-88045063D01*
X93208259Y-88041019D01*
X93210288Y-88027480D01*
X93209324Y-88020156D01*
X93203992Y-88001862D01*
X93163692Y-87915438D01*
X93151234Y-87897647D01*
X93084790Y-87831203D01*
X93066997Y-87818744D01*
X93044542Y-87808273D01*
X92991256Y-87761356D01*
X92971795Y-87693079D01*
X92990530Y-87627963D01*
X93054542Y-87524114D01*
X93060687Y-87510937D01*
X93111569Y-87357533D01*
X93114435Y-87344167D01*
X93114648Y-87342084D01*
X93111921Y-87327386D01*
X93099687Y-87324063D01*
X90542468Y-87324063D01*
X90528151Y-87328267D01*
X90526092Y-87340824D01*
X90526572Y-87345447D01*
X90529465Y-87358842D01*
X90580611Y-87512144D01*
X90586777Y-87525308D01*
X90671597Y-87662377D01*
X90680624Y-87673766D01*
X90794700Y-87787643D01*
X90806110Y-87796654D01*
X90943317Y-87881228D01*
X90956500Y-87887376D01*
X90999302Y-87901573D01*
X91057662Y-87942004D01*
X91084898Y-88007569D01*
X91072364Y-88077450D01*
X91027523Y-88125088D01*
X91028124Y-88125871D01*
X90907070Y-88218759D01*
X90814182Y-88339813D01*
X90755790Y-88480783D01*
X90754712Y-88488971D01*
X90748573Y-88535605D01*
X90735874Y-88632063D01*
X90755790Y-88783343D01*
X90814182Y-88924313D01*
X90844155Y-88963375D01*
X90899665Y-89035716D01*
X90907070Y-89045367D01*
X91028124Y-89138255D01*
X91169094Y-89196647D01*
X91177282Y-89197725D01*
X91219409Y-89203271D01*
X91284336Y-89231993D01*
X91323428Y-89291258D01*
X91324273Y-89362250D01*
X91292059Y-89417288D01*
X91171158Y-89538188D01*
X91051839Y-89657507D01*
X91051826Y-89657521D01*
X91029048Y-89680299D01*
X91024545Y-89689137D01*
X91018920Y-89700176D01*
X91008590Y-89717033D01*
X90995469Y-89735093D01*
X90992404Y-89744526D01*
X90988573Y-89756317D01*
X90981008Y-89774583D01*
X90970876Y-89794467D01*
X90969325Y-89804260D01*
X90967385Y-89816509D01*
X90962769Y-89835735D01*
X90955874Y-89856956D01*
X90955874Y-93187170D01*
X90958939Y-93196602D01*
X90958939Y-93196604D01*
X90962769Y-93208391D01*
X90967385Y-93227617D01*
X90970876Y-93249659D01*
X90975377Y-93258492D01*
X90981007Y-93269542D01*
X90988573Y-93287808D01*
X90995469Y-93309033D01*
X91001299Y-93317057D01*
X91008590Y-93327093D01*
X91018919Y-93343948D01*
X91029048Y-93363827D01*
X91051836Y-93386615D01*
X91051839Y-93386619D01*
X91292058Y-93626838D01*
X91326084Y-93689150D01*
X91321019Y-93759965D01*
X91278472Y-93816801D01*
X91219409Y-93840855D01*
X91187241Y-93845090D01*
X91169094Y-93847479D01*
X91028124Y-93905871D01*
X90970223Y-93950300D01*
X90923091Y-93986466D01*
X90907070Y-93998759D01*
X90814182Y-94119813D01*
X90755790Y-94260783D01*
X90735874Y-94412063D01*
X90741452Y-94454430D01*
X90750819Y-94525580D01*
X90755790Y-94563343D01*
X90814182Y-94704313D01*
X90907070Y-94825367D01*
X90913616Y-94830390D01*
X91021576Y-94913231D01*
X91021578Y-94913232D01*
X91023466Y-94914680D01*
X91023468Y-94914683D01*
X91028124Y-94918255D01*
X91027567Y-94918981D01*
X91071698Y-94965267D01*
X91085133Y-95034981D01*
X91058745Y-95100891D01*
X90999580Y-95142525D01*
X90955288Y-95157302D01*
X90942129Y-95163466D01*
X90805060Y-95248286D01*
X90793671Y-95257313D01*
X90679794Y-95371389D01*
X90670783Y-95382799D01*
X90586209Y-95520006D01*
X90580061Y-95533189D01*
X90529179Y-95686593D01*
X90526313Y-95699959D01*
X90526100Y-95702042D01*
X90528827Y-95716740D01*
X90541061Y-95720063D01*
X93098280Y-95720063D01*
X93112597Y-95715859D01*
X93114656Y-95703302D01*
X93114176Y-95698679D01*
X93111283Y-95685284D01*
X93060137Y-95531982D01*
X93053971Y-95518818D01*
X92990582Y-95416381D01*
X92971745Y-95347928D01*
X92992907Y-95280159D01*
X93044477Y-95235883D01*
X93066999Y-95225381D01*
X93084790Y-95212923D01*
X93151234Y-95146479D01*
X93163692Y-95128688D01*
X93203992Y-95042264D01*
X93209324Y-95023970D01*
X93210239Y-95017024D01*
X93208027Y-95002841D01*
X93194871Y-94999063D01*
X92680489Y-94999063D01*
X92639975Y-95010959D01*
X92604477Y-95016063D01*
X92534374Y-95016063D01*
X92466253Y-94996061D01*
X92419760Y-94942405D01*
X92408374Y-94890063D01*
X92408374Y-94602563D01*
X92428376Y-94534442D01*
X92482032Y-94487949D01*
X92534374Y-94476563D01*
X92586023Y-94476563D01*
X92654144Y-94496565D01*
X92700637Y-94550221D01*
X92710741Y-94620495D01*
X92681248Y-94685075D01*
X92664045Y-94704928D01*
X92662374Y-94712611D01*
X92662374Y-94726948D01*
X92666849Y-94742187D01*
X92668239Y-94743392D01*
X92675922Y-94745063D01*
X93194488Y-94745063D01*
X93208259Y-94741019D01*
X93211063Y-94722309D01*
X93207792Y-94701331D01*
X93194364Y-94686202D01*
X93164106Y-94621976D01*
X93173373Y-94551587D01*
X93219225Y-94497383D01*
X93288601Y-94476563D01*
X93658099Y-94476563D01*
X93726220Y-94496565D01*
X93747194Y-94513468D01*
X94767569Y-95533843D01*
X94801595Y-95596155D01*
X94804474Y-95622938D01*
X94804474Y-95774551D01*
X94784689Y-95840704D01*
X94782973Y-95842647D01*
X94721557Y-95973459D01*
X94720177Y-95982323D01*
X94720176Y-95982326D01*
X94704039Y-96085969D01*
X94699324Y-96116250D01*
X94700488Y-96125152D01*
X94700488Y-96125155D01*
X94716656Y-96248790D01*
X94718062Y-96259542D01*
X94776263Y-96391816D01*
X94869250Y-96502437D01*
X94876721Y-96507410D01*
X94876722Y-96507411D01*
X94982075Y-96577540D01*
X94982077Y-96577541D01*
X94989548Y-96582514D01*
X94998112Y-96585190D01*
X94998115Y-96585191D01*
X95058516Y-96604062D01*
X95127484Y-96625609D01*
X95271972Y-96628257D01*
X95300634Y-96620443D01*
X95402737Y-96592607D01*
X95402739Y-96592606D01*
X95411396Y-96590246D01*
X95534546Y-96514631D01*
X95631525Y-96407491D01*
X95681855Y-96303608D01*
X95690619Y-96285520D01*
X95690619Y-96285519D01*
X95694534Y-96277439D01*
X95718510Y-96134930D01*
X95718662Y-96122477D01*
X95702388Y-96008842D01*
X95699448Y-95988312D01*
X95699447Y-95988310D01*
X95698175Y-95979425D01*
X95694059Y-95970371D01*
X95642076Y-95856041D01*
X95638362Y-95847872D01*
X95633179Y-95841857D01*
X95613474Y-95774473D01*
X95613474Y-95339132D01*
X95606579Y-95317912D01*
X95601962Y-95298680D01*
X95600024Y-95286442D01*
X95600024Y-95286441D01*
X95598472Y-95276643D01*
X95593970Y-95267808D01*
X95593969Y-95267804D01*
X95588339Y-95256755D01*
X95580775Y-95238493D01*
X95576943Y-95226701D01*
X95576942Y-95226699D01*
X95573878Y-95217269D01*
X95560761Y-95199215D01*
X95550431Y-95182358D01*
X95549432Y-95180398D01*
X95540300Y-95162475D01*
X95517512Y-95139687D01*
X95517509Y-95139683D01*
X94670106Y-94292280D01*
X94636080Y-94229968D01*
X94641145Y-94159153D01*
X94683692Y-94102317D01*
X94701998Y-94090918D01*
X94735129Y-94074037D01*
X94735131Y-94074036D01*
X94743962Y-94069536D01*
X94798071Y-94015427D01*
X94860383Y-93981401D01*
X94931198Y-93986466D01*
X94976261Y-94015427D01*
X95030370Y-94069536D01*
X95039208Y-94074039D01*
X95039209Y-94074040D01*
X95062081Y-94085694D01*
X95091888Y-94110352D01*
X95093156Y-94108980D01*
X95132752Y-94145582D01*
X95136318Y-94149012D01*
X95407522Y-94420216D01*
X95422664Y-94438964D01*
X95423779Y-94440189D01*
X95429429Y-94448940D01*
X95437607Y-94455387D01*
X95437609Y-94455389D01*
X95455800Y-94469729D01*
X95460241Y-94473675D01*
X95460303Y-94473602D01*
X95464267Y-94476961D01*
X95467944Y-94480638D01*
X95483692Y-94491892D01*
X95488362Y-94495398D01*
X95528647Y-94527156D01*
X95537281Y-94530188D01*
X95544734Y-94535514D01*
X95593850Y-94550203D01*
X95599492Y-94552036D01*
X95640367Y-94566390D01*
X95647851Y-94569018D01*
X95653416Y-94569500D01*
X95656124Y-94569500D01*
X95658758Y-94569614D01*
X95658856Y-94569643D01*
X95658849Y-94569807D01*
X95659553Y-94569851D01*
X95665778Y-94571713D01*
X95719635Y-94569597D01*
X95724582Y-94569500D01*
X96620406Y-94569500D01*
X96673655Y-94581305D01*
X96679668Y-94584109D01*
X96679672Y-94584110D01*
X96688404Y-94588182D01*
X96697957Y-94589440D01*
X96697958Y-94589440D01*
X96721976Y-94592602D01*
X96736392Y-94594500D01*
X96901800Y-94594500D01*
X96969921Y-94614502D01*
X97016414Y-94668158D01*
X97027791Y-94722038D01*
X97027732Y-94726899D01*
X97026350Y-94735773D01*
X97045088Y-94879065D01*
X97103289Y-95011339D01*
X97109063Y-95018208D01*
X97182990Y-95106154D01*
X97196276Y-95121960D01*
X97203747Y-95126933D01*
X97203748Y-95126934D01*
X97309101Y-95197063D01*
X97309103Y-95197064D01*
X97316574Y-95202037D01*
X97325138Y-95204713D01*
X97325141Y-95204714D01*
X97385542Y-95223585D01*
X97454510Y-95245132D01*
X97598998Y-95247780D01*
X97609327Y-95244964D01*
X97729763Y-95212130D01*
X97729765Y-95212129D01*
X97738422Y-95209769D01*
X97861572Y-95134154D01*
X97958551Y-95027014D01*
X98004149Y-94932899D01*
X98017645Y-94905043D01*
X98017645Y-94905042D01*
X98021560Y-94896962D01*
X98045536Y-94754453D01*
X98045614Y-94748091D01*
X98045629Y-94746860D01*
X98045629Y-94746856D01*
X98045688Y-94742000D01*
X98044740Y-94735383D01*
X98044837Y-94734712D01*
X98044682Y-94732329D01*
X98045186Y-94732296D01*
X98054884Y-94665117D01*
X98101407Y-94611488D01*
X98153022Y-94592602D01*
X98186596Y-94588182D01*
X98195328Y-94584110D01*
X98195332Y-94584109D01*
X98201345Y-94581305D01*
X98254594Y-94569500D01*
X98386424Y-94569500D01*
X98454545Y-94589502D01*
X98501038Y-94643158D01*
X98511142Y-94713432D01*
X98500620Y-94748748D01*
X98486411Y-94779218D01*
X98456216Y-94843973D01*
X98451818Y-94853404D01*
X98450560Y-94862957D01*
X98450560Y-94862958D01*
X98448296Y-94880152D01*
X98445500Y-94901392D01*
X98445500Y-96303608D01*
X98451818Y-96351596D01*
X98455890Y-96360328D01*
X98455891Y-96360332D01*
X98458695Y-96366345D01*
X98470500Y-96419594D01*
X98470500Y-96510080D01*
X98467952Y-96534014D01*
X98467873Y-96535691D01*
X98465680Y-96545876D01*
X98466904Y-96556217D01*
X98469627Y-96579223D01*
X98469977Y-96585154D01*
X98470072Y-96585146D01*
X98470500Y-96590324D01*
X98470500Y-96595524D01*
X98471354Y-96600653D01*
X98471354Y-96600656D01*
X98473669Y-96614565D01*
X98474506Y-96620443D01*
X98479267Y-96660667D01*
X98480530Y-96671341D01*
X98484493Y-96679593D01*
X98485996Y-96688626D01*
X98490943Y-96697795D01*
X98490944Y-96697797D01*
X98510334Y-96733732D01*
X98513031Y-96739025D01*
X98531787Y-96778086D01*
X98531789Y-96778090D01*
X98535219Y-96785232D01*
X98538814Y-96789508D01*
X98539799Y-96790493D01*
X98541350Y-96792895D01*
X98560437Y-96844908D01*
X98569088Y-96911065D01*
X98627289Y-97043339D01*
X98633063Y-97050208D01*
X98708767Y-97140268D01*
X98720276Y-97153960D01*
X98727747Y-97158933D01*
X98727748Y-97158934D01*
X98833101Y-97229063D01*
X98833103Y-97229064D01*
X98840574Y-97234037D01*
X98849138Y-97236713D01*
X98849141Y-97236714D01*
X98909542Y-97255584D01*
X98978510Y-97277132D01*
X99122998Y-97279780D01*
X99142530Y-97274455D01*
X99253763Y-97244130D01*
X99253765Y-97244129D01*
X99262422Y-97241769D01*
X99385572Y-97166154D01*
X99482551Y-97059014D01*
X99529591Y-96961923D01*
X99541645Y-96937043D01*
X99541645Y-96937042D01*
X99545560Y-96928962D01*
X99569536Y-96786453D01*
X99569688Y-96774000D01*
X99563838Y-96733153D01*
X99573980Y-96662886D01*
X99620502Y-96609256D01*
X99688634Y-96589291D01*
X99705010Y-96590369D01*
X99732301Y-96593962D01*
X99732310Y-96593963D01*
X99736392Y-96594500D01*
X99963608Y-96594500D01*
X100011596Y-96588182D01*
X100046752Y-96571789D01*
X100116942Y-96561128D01*
X100153246Y-96571788D01*
X100188404Y-96588182D01*
X100236392Y-96594500D01*
X100463608Y-96594500D01*
X100511596Y-96588182D01*
X100546752Y-96571789D01*
X100616942Y-96561128D01*
X100653246Y-96571788D01*
X100688404Y-96588182D01*
X100736392Y-96594500D01*
X100963608Y-96594500D01*
X101011596Y-96588182D01*
X101046752Y-96571789D01*
X101116942Y-96561128D01*
X101153246Y-96571788D01*
X101188404Y-96588182D01*
X101236392Y-96594500D01*
X101463608Y-96594500D01*
X101511596Y-96588182D01*
X101546752Y-96571789D01*
X101616942Y-96561128D01*
X101653246Y-96571788D01*
X101688404Y-96588182D01*
X101736392Y-96594500D01*
X101877289Y-96594500D01*
X101945410Y-96614502D01*
X101988176Y-96660667D01*
X102010334Y-96701732D01*
X102013031Y-96707025D01*
X102031785Y-96746082D01*
X102031788Y-96746086D01*
X102035219Y-96753232D01*
X102038814Y-96757508D01*
X102040737Y-96759431D01*
X102042509Y-96761363D01*
X102042552Y-96761442D01*
X102042428Y-96761555D01*
X102042904Y-96762095D01*
X102045990Y-96767814D01*
X102053635Y-96774881D01*
X102085586Y-96804416D01*
X102089152Y-96807846D01*
X102285522Y-97004216D01*
X102300664Y-97022964D01*
X102301779Y-97024189D01*
X102307429Y-97032940D01*
X102315607Y-97039387D01*
X102315609Y-97039389D01*
X102333800Y-97053729D01*
X102338241Y-97057675D01*
X102338303Y-97057602D01*
X102342267Y-97060961D01*
X102345944Y-97064638D01*
X102361692Y-97075892D01*
X102366362Y-97079398D01*
X102406647Y-97111156D01*
X102415281Y-97114188D01*
X102422734Y-97119514D01*
X102471850Y-97134203D01*
X102477492Y-97136036D01*
X102518199Y-97150331D01*
X102525851Y-97153018D01*
X102531416Y-97153500D01*
X102534124Y-97153500D01*
X102536758Y-97153614D01*
X102536856Y-97153643D01*
X102536849Y-97153807D01*
X102537553Y-97153851D01*
X102543778Y-97155713D01*
X102597635Y-97153597D01*
X102602582Y-97153500D01*
X107388080Y-97153500D01*
X107412028Y-97156049D01*
X107413693Y-97156128D01*
X107423876Y-97158320D01*
X107434217Y-97157096D01*
X107457223Y-97154373D01*
X107463154Y-97154023D01*
X107463146Y-97153928D01*
X107468324Y-97153500D01*
X107473524Y-97153500D01*
X107478653Y-97152646D01*
X107478656Y-97152646D01*
X107492565Y-97150331D01*
X107498443Y-97149494D01*
X107539001Y-97144694D01*
X107539002Y-97144694D01*
X107549341Y-97143470D01*
X107557593Y-97139507D01*
X107566626Y-97138004D01*
X107575795Y-97133057D01*
X107575797Y-97133056D01*
X107611732Y-97113666D01*
X107617025Y-97110969D01*
X107656082Y-97092215D01*
X107656086Y-97092212D01*
X107663232Y-97088781D01*
X107667508Y-97085186D01*
X107669431Y-97083263D01*
X107671363Y-97081491D01*
X107671442Y-97081448D01*
X107671555Y-97081572D01*
X107672095Y-97081096D01*
X107677814Y-97078010D01*
X107714417Y-97038413D01*
X107717846Y-97034848D01*
X108040036Y-96712658D01*
X108058784Y-96697516D01*
X108060009Y-96696401D01*
X108068760Y-96690751D01*
X108075207Y-96682573D01*
X108075209Y-96682571D01*
X108089549Y-96664380D01*
X108093495Y-96659939D01*
X108093422Y-96659877D01*
X108096781Y-96655913D01*
X108100458Y-96652236D01*
X108111712Y-96636488D01*
X108115218Y-96631818D01*
X108146976Y-96591533D01*
X108150008Y-96582899D01*
X108155334Y-96575446D01*
X108160041Y-96559709D01*
X108168680Y-96530820D01*
X108200302Y-96477827D01*
X108238367Y-96439762D01*
X108300679Y-96405736D01*
X108371494Y-96410801D01*
X108416557Y-96439762D01*
X108463599Y-96486804D01*
X108479442Y-96498315D01*
X108571569Y-96545256D01*
X108590196Y-96551308D01*
X108666601Y-96563409D01*
X108676447Y-96564184D01*
X108691994Y-96564184D01*
X108707233Y-96559709D01*
X108708438Y-96558319D01*
X108710109Y-96550636D01*
X108710109Y-96546069D01*
X108964109Y-96546069D01*
X108968584Y-96561308D01*
X108969974Y-96562513D01*
X108977657Y-96564184D01*
X108997771Y-96564184D01*
X109007617Y-96563409D01*
X109084022Y-96551308D01*
X109102649Y-96545256D01*
X109194776Y-96498315D01*
X109210619Y-96486804D01*
X109283729Y-96413694D01*
X109295240Y-96397851D01*
X109342181Y-96305724D01*
X109348233Y-96287097D01*
X109360334Y-96210692D01*
X109361109Y-96200846D01*
X109361109Y-96135299D01*
X109356634Y-96120060D01*
X109355244Y-96118855D01*
X109347561Y-96117184D01*
X108982224Y-96117184D01*
X108966985Y-96121659D01*
X108965780Y-96123049D01*
X108964109Y-96130732D01*
X108964109Y-96546069D01*
X108710109Y-96546069D01*
X108710109Y-95565125D01*
X108708988Y-95557327D01*
X108708988Y-95372204D01*
X108962988Y-95372204D01*
X108964109Y-95380002D01*
X108964109Y-95845069D01*
X108968584Y-95860308D01*
X108969974Y-95861513D01*
X108977657Y-95863184D01*
X109342994Y-95863184D01*
X109358233Y-95858709D01*
X109359438Y-95857319D01*
X109361109Y-95849636D01*
X109361109Y-95779522D01*
X109360334Y-95769676D01*
X109348233Y-95693271D01*
X109342181Y-95674644D01*
X109312777Y-95616936D01*
X111506001Y-95616936D01*
X111506539Y-95625149D01*
X111519632Y-95724609D01*
X111523870Y-95740424D01*
X111575136Y-95864191D01*
X111583324Y-95878374D01*
X111664876Y-95984653D01*
X111676452Y-95996229D01*
X111782732Y-96077780D01*
X111796915Y-96085969D01*
X111920680Y-96137235D01*
X111936497Y-96141473D01*
X112035958Y-96154567D01*
X112044167Y-96155105D01*
X112884885Y-96155105D01*
X112900124Y-96150630D01*
X112901329Y-96149240D01*
X112903000Y-96141557D01*
X112903000Y-96136989D01*
X113157000Y-96136989D01*
X113161475Y-96152228D01*
X113162865Y-96153433D01*
X113170548Y-96155104D01*
X114015831Y-96155104D01*
X114024044Y-96154566D01*
X114123504Y-96141473D01*
X114139319Y-96137235D01*
X114263086Y-96085969D01*
X114277269Y-96077781D01*
X114383548Y-95996229D01*
X114395124Y-95984653D01*
X114476675Y-95878373D01*
X114484864Y-95864190D01*
X114536130Y-95740425D01*
X114540368Y-95724608D01*
X114553462Y-95625147D01*
X114554000Y-95616938D01*
X114554000Y-95411220D01*
X114549525Y-95395981D01*
X114548135Y-95394776D01*
X114540452Y-95393105D01*
X113175115Y-95393105D01*
X113159876Y-95397580D01*
X113158671Y-95398970D01*
X113157000Y-95406653D01*
X113157000Y-96136989D01*
X112903000Y-96136989D01*
X112903000Y-95411220D01*
X112898525Y-95395981D01*
X112897135Y-95394776D01*
X112889452Y-95393105D01*
X111524116Y-95393105D01*
X111508877Y-95397580D01*
X111507672Y-95398970D01*
X111506001Y-95406653D01*
X111506001Y-95616936D01*
X109312777Y-95616936D01*
X109295240Y-95582517D01*
X109283729Y-95566674D01*
X109274254Y-95557199D01*
X109240228Y-95494887D01*
X109245293Y-95424072D01*
X109274254Y-95379009D01*
X109282608Y-95370655D01*
X109294119Y-95354812D01*
X109341060Y-95262685D01*
X109347112Y-95244058D01*
X109359213Y-95167653D01*
X109359988Y-95157807D01*
X109359988Y-95120990D01*
X111506000Y-95120990D01*
X111510475Y-95136229D01*
X111511865Y-95137434D01*
X111519548Y-95139105D01*
X112884885Y-95139105D01*
X112900124Y-95134630D01*
X112901329Y-95133240D01*
X112903000Y-95125557D01*
X112903000Y-95120990D01*
X113157000Y-95120990D01*
X113161475Y-95136229D01*
X113162865Y-95137434D01*
X113170548Y-95139105D01*
X114535884Y-95139105D01*
X114551123Y-95134630D01*
X114552328Y-95133240D01*
X114553999Y-95125557D01*
X114553999Y-94915274D01*
X114553461Y-94907061D01*
X114540368Y-94807601D01*
X114536130Y-94791786D01*
X114484864Y-94668019D01*
X114476676Y-94653836D01*
X114395124Y-94547557D01*
X114383548Y-94535981D01*
X114277268Y-94454430D01*
X114263085Y-94446241D01*
X114139320Y-94394975D01*
X114123503Y-94390737D01*
X114024042Y-94377643D01*
X114015833Y-94377105D01*
X113175115Y-94377105D01*
X113159876Y-94381580D01*
X113158671Y-94382970D01*
X113157000Y-94390653D01*
X113157000Y-95120990D01*
X112903000Y-95120990D01*
X112903000Y-94395221D01*
X112898525Y-94379982D01*
X112897135Y-94378777D01*
X112889452Y-94377106D01*
X112044169Y-94377106D01*
X112035956Y-94377644D01*
X111936496Y-94390737D01*
X111920681Y-94394975D01*
X111796914Y-94446241D01*
X111782731Y-94454429D01*
X111676452Y-94535981D01*
X111664876Y-94547557D01*
X111583325Y-94653837D01*
X111575136Y-94668020D01*
X111523870Y-94791785D01*
X111519632Y-94807602D01*
X111506538Y-94907063D01*
X111506000Y-94915272D01*
X111506000Y-95120990D01*
X109359988Y-95120990D01*
X109359988Y-95092260D01*
X109355513Y-95077021D01*
X109354123Y-95075816D01*
X109346440Y-95074145D01*
X108981103Y-95074145D01*
X108965864Y-95078620D01*
X108964659Y-95080010D01*
X108962988Y-95087693D01*
X108962988Y-95372204D01*
X108708988Y-95372204D01*
X108708988Y-94471593D01*
X108698188Y-94434810D01*
X108683097Y-94411328D01*
X108677994Y-94375832D01*
X108677994Y-94315030D01*
X108931994Y-94315030D01*
X108942794Y-94351813D01*
X108957885Y-94375295D01*
X108962988Y-94410791D01*
X108962988Y-94802030D01*
X108967463Y-94817269D01*
X108968853Y-94818474D01*
X108976536Y-94820145D01*
X109341873Y-94820145D01*
X109357112Y-94815670D01*
X109358317Y-94814280D01*
X109359988Y-94806597D01*
X109359988Y-94736483D01*
X109359213Y-94726637D01*
X109347112Y-94650232D01*
X109341060Y-94631605D01*
X109294119Y-94539478D01*
X109282608Y-94523635D01*
X109229418Y-94470445D01*
X109195392Y-94408133D01*
X109200457Y-94337318D01*
X109229416Y-94292256D01*
X109260711Y-94260960D01*
X109272220Y-94245120D01*
X109319880Y-94151581D01*
X109325932Y-94132957D01*
X109338219Y-94055375D01*
X109338994Y-94045532D01*
X109338994Y-93994593D01*
X109334519Y-93979354D01*
X109333129Y-93978149D01*
X109325446Y-93976478D01*
X108950109Y-93976478D01*
X108934870Y-93980953D01*
X108933665Y-93982343D01*
X108931994Y-93990026D01*
X108931994Y-94315030D01*
X108677994Y-94315030D01*
X108677994Y-93848478D01*
X108697996Y-93780357D01*
X108751652Y-93733864D01*
X108803994Y-93722478D01*
X109320878Y-93722478D01*
X109336117Y-93718003D01*
X109340694Y-93712721D01*
X109400420Y-93674337D01*
X109471417Y-93674337D01*
X109531143Y-93712720D01*
X109542890Y-93728651D01*
X109545675Y-93733125D01*
X109549289Y-93741339D01*
X109555063Y-93748208D01*
X109607344Y-93810403D01*
X109642276Y-93851960D01*
X109649747Y-93856933D01*
X109649748Y-93856934D01*
X109755101Y-93927063D01*
X109755103Y-93927064D01*
X109762574Y-93932037D01*
X109771138Y-93934713D01*
X109771141Y-93934714D01*
X109821029Y-93950300D01*
X109900510Y-93975132D01*
X110044998Y-93977780D01*
X110064530Y-93972455D01*
X110175763Y-93942130D01*
X110175765Y-93942129D01*
X110184422Y-93939769D01*
X110307572Y-93864154D01*
X110404551Y-93757014D01*
X110444607Y-93674337D01*
X110463645Y-93635043D01*
X110463645Y-93635042D01*
X110467560Y-93626962D01*
X110491536Y-93484453D01*
X110491688Y-93472000D01*
X110490999Y-93467187D01*
X110490998Y-93467176D01*
X110489377Y-93455855D01*
X110490896Y-93412361D01*
X110493110Y-93406057D01*
X110493592Y-93400492D01*
X110493592Y-93397787D01*
X110493706Y-93395150D01*
X110493735Y-93395052D01*
X110493899Y-93395059D01*
X110493943Y-93394355D01*
X110495805Y-93388130D01*
X110493828Y-93337810D01*
X110511140Y-93268956D01*
X110530636Y-93243768D01*
X110592746Y-93181658D01*
X110601644Y-93162577D01*
X110638153Y-93084284D01*
X110638153Y-93084283D01*
X110642227Y-93075547D01*
X110648592Y-93027199D01*
X110648592Y-92947476D01*
X110668594Y-92879355D01*
X110722250Y-92832862D01*
X110792524Y-92822758D01*
X110857104Y-92852252D01*
X110863687Y-92858381D01*
X110961627Y-92956321D01*
X110976769Y-92975069D01*
X110977884Y-92976294D01*
X110983534Y-92985045D01*
X110991712Y-92991492D01*
X110991714Y-92991494D01*
X111009905Y-93005834D01*
X111014349Y-93009783D01*
X111014411Y-93009709D01*
X111018368Y-93013062D01*
X111022049Y-93016743D01*
X111037759Y-93027970D01*
X111042485Y-93031518D01*
X111082752Y-93063261D01*
X111091389Y-93066294D01*
X111098839Y-93071618D01*
X111108815Y-93074602D01*
X111108816Y-93074602D01*
X111116751Y-93076975D01*
X111147954Y-93086307D01*
X111153591Y-93088139D01*
X111192305Y-93101734D01*
X111201956Y-93105123D01*
X111207521Y-93105605D01*
X111210229Y-93105605D01*
X111212863Y-93105719D01*
X111212961Y-93105748D01*
X111212954Y-93105912D01*
X111213658Y-93105956D01*
X111219883Y-93107818D01*
X111273740Y-93105702D01*
X111278687Y-93105605D01*
X111401258Y-93105605D01*
X111469379Y-93125607D01*
X111515872Y-93179263D01*
X111519899Y-93190467D01*
X111520223Y-93192927D01*
X111523382Y-93200553D01*
X111523382Y-93200554D01*
X111531718Y-93220678D01*
X111577859Y-93332073D01*
X111669545Y-93451560D01*
X111789032Y-93543246D01*
X111928178Y-93600882D01*
X112040008Y-93615605D01*
X114019992Y-93615605D01*
X114131822Y-93600882D01*
X114270968Y-93543246D01*
X114390455Y-93451560D01*
X114482141Y-93332073D01*
X114539777Y-93192927D01*
X114554500Y-93081097D01*
X114554500Y-92371113D01*
X114539777Y-92259283D01*
X114482141Y-92120137D01*
X114390455Y-92000650D01*
X114390701Y-92000461D01*
X114359031Y-91942464D01*
X114364096Y-91871649D01*
X114406643Y-91814813D01*
X114425173Y-91805021D01*
X114424625Y-91804005D01*
X114469732Y-91779666D01*
X114475025Y-91776969D01*
X114514082Y-91758215D01*
X114514086Y-91758212D01*
X114521232Y-91754781D01*
X114525508Y-91751186D01*
X114527431Y-91749263D01*
X114529363Y-91747491D01*
X114529442Y-91747448D01*
X114529555Y-91747572D01*
X114530095Y-91747096D01*
X114535814Y-91744010D01*
X114572417Y-91704413D01*
X114575846Y-91700848D01*
X115100405Y-91176289D01*
X115162717Y-91142263D01*
X115233532Y-91147328D01*
X115290368Y-91189875D01*
X115315179Y-91256395D01*
X115315500Y-91265384D01*
X115315500Y-96752143D01*
X115314671Y-96766572D01*
X115311377Y-96795148D01*
X115314784Y-96807088D01*
X115315155Y-96811621D01*
X115315529Y-96825261D01*
X115313468Y-96902166D01*
X115312728Y-96929781D01*
X115309055Y-96956788D01*
X115279787Y-97074583D01*
X115270392Y-97100169D01*
X115216476Y-97208916D01*
X115201802Y-97231879D01*
X115125756Y-97326492D01*
X115106492Y-97345756D01*
X115011879Y-97421802D01*
X114988916Y-97436476D01*
X114880169Y-97490392D01*
X114854583Y-97499787D01*
X114736788Y-97529055D01*
X114709781Y-97532728D01*
X114684433Y-97533407D01*
X114605261Y-97535529D01*
X114591621Y-97535155D01*
X114587088Y-97534784D01*
X114575148Y-97531377D01*
X114547370Y-97534579D01*
X114546572Y-97534671D01*
X114532143Y-97535500D01*
X87449964Y-97535500D01*
X87434754Y-97534579D01*
X87407379Y-97531250D01*
X87395426Y-97534580D01*
X87390654Y-97534940D01*
X87377124Y-97535233D01*
X87272617Y-97531862D01*
X87245829Y-97528090D01*
X87127937Y-97498309D01*
X87102565Y-97488903D01*
X86993754Y-97434638D01*
X86970973Y-97420030D01*
X86914987Y-97374959D01*
X86874468Y-97316661D01*
X86868000Y-97276811D01*
X86868000Y-96659346D01*
X86888002Y-96591225D01*
X86941658Y-96544732D01*
X87011932Y-96534628D01*
X87033668Y-96539753D01*
X87179907Y-96588259D01*
X87193268Y-96591124D01*
X87287078Y-96600735D01*
X87293493Y-96601063D01*
X87495259Y-96601063D01*
X87510498Y-96596588D01*
X87511703Y-96595198D01*
X87513374Y-96587515D01*
X87513374Y-96582948D01*
X87767374Y-96582948D01*
X87771849Y-96598187D01*
X87773239Y-96599392D01*
X87780922Y-96601063D01*
X87987205Y-96601063D01*
X87993724Y-96600726D01*
X88088758Y-96590865D01*
X88102153Y-96587972D01*
X88255455Y-96536826D01*
X88268619Y-96530660D01*
X88405688Y-96445840D01*
X88417077Y-96436813D01*
X88530954Y-96322737D01*
X88539965Y-96311327D01*
X88624539Y-96174120D01*
X88630687Y-96160937D01*
X88681569Y-96007533D01*
X88684435Y-95994167D01*
X88684648Y-95992084D01*
X88684414Y-95990824D01*
X90526092Y-95990824D01*
X90526572Y-95995447D01*
X90529465Y-96008842D01*
X90580611Y-96162144D01*
X90586777Y-96175308D01*
X90671597Y-96312377D01*
X90680624Y-96323766D01*
X90794700Y-96437643D01*
X90806110Y-96446654D01*
X90943317Y-96531228D01*
X90956500Y-96537376D01*
X91109907Y-96588259D01*
X91123268Y-96591124D01*
X91217078Y-96600735D01*
X91223493Y-96601063D01*
X91675259Y-96601063D01*
X91690498Y-96596588D01*
X91691703Y-96595198D01*
X91693374Y-96587515D01*
X91693374Y-96582948D01*
X91947374Y-96582948D01*
X91951849Y-96598187D01*
X91953239Y-96599392D01*
X91960922Y-96601063D01*
X92417205Y-96601063D01*
X92423724Y-96600726D01*
X92518758Y-96590865D01*
X92532153Y-96587972D01*
X92685455Y-96536826D01*
X92698619Y-96530660D01*
X92835688Y-96445840D01*
X92847077Y-96436813D01*
X92960954Y-96322737D01*
X92969965Y-96311327D01*
X93054539Y-96174120D01*
X93060687Y-96160937D01*
X93111569Y-96007533D01*
X93114435Y-95994167D01*
X93114648Y-95992084D01*
X93111921Y-95977386D01*
X93099687Y-95974063D01*
X91965489Y-95974063D01*
X91950250Y-95978538D01*
X91949045Y-95979928D01*
X91947374Y-95987611D01*
X91947374Y-96582948D01*
X91693374Y-96582948D01*
X91693374Y-95992178D01*
X91688899Y-95976939D01*
X91687509Y-95975734D01*
X91679826Y-95974063D01*
X90542468Y-95974063D01*
X90528151Y-95978267D01*
X90526092Y-95990824D01*
X88684414Y-95990824D01*
X88681921Y-95977386D01*
X88669687Y-95974063D01*
X87785489Y-95974063D01*
X87770250Y-95978538D01*
X87769045Y-95979928D01*
X87767374Y-95987611D01*
X87767374Y-96582948D01*
X87513374Y-96582948D01*
X87513374Y-95701948D01*
X87767374Y-95701948D01*
X87771849Y-95717187D01*
X87773239Y-95718392D01*
X87780922Y-95720063D01*
X88668280Y-95720063D01*
X88682597Y-95715859D01*
X88684656Y-95703302D01*
X88684176Y-95698679D01*
X88681283Y-95685284D01*
X88630137Y-95531982D01*
X88623971Y-95518818D01*
X88539151Y-95381749D01*
X88530124Y-95370360D01*
X88416048Y-95256483D01*
X88404638Y-95247472D01*
X88267431Y-95162898D01*
X88254248Y-95156750D01*
X88100841Y-95105867D01*
X88087480Y-95103002D01*
X87993670Y-95093391D01*
X87987255Y-95093063D01*
X87785489Y-95093063D01*
X87770250Y-95097538D01*
X87769045Y-95098928D01*
X87767374Y-95106611D01*
X87767374Y-95701948D01*
X87513374Y-95701948D01*
X87513374Y-95111178D01*
X87508899Y-95095939D01*
X87507509Y-95094734D01*
X87499826Y-95093063D01*
X87293543Y-95093063D01*
X87287024Y-95093400D01*
X87191990Y-95103261D01*
X87178595Y-95106154D01*
X87033877Y-95154436D01*
X86962927Y-95157021D01*
X86901843Y-95120838D01*
X86870018Y-95057374D01*
X86868000Y-95034913D01*
X86868000Y-88009346D01*
X86888002Y-87941225D01*
X86941658Y-87894732D01*
X87011932Y-87884628D01*
X87033668Y-87889753D01*
X87179907Y-87938259D01*
X87193268Y-87941124D01*
X87287078Y-87950735D01*
X87293493Y-87951063D01*
X87495259Y-87951063D01*
X87510498Y-87946588D01*
X87511703Y-87945198D01*
X87513374Y-87937515D01*
X87513374Y-87932948D01*
X87767374Y-87932948D01*
X87771849Y-87948187D01*
X87773239Y-87949392D01*
X87780922Y-87951063D01*
X87987205Y-87951063D01*
X87993724Y-87950726D01*
X88088758Y-87940865D01*
X88102153Y-87937972D01*
X88255455Y-87886826D01*
X88268619Y-87880660D01*
X88405688Y-87795840D01*
X88417077Y-87786813D01*
X88530954Y-87672737D01*
X88539965Y-87661327D01*
X88624539Y-87524120D01*
X88630687Y-87510937D01*
X88681569Y-87357533D01*
X88684435Y-87344167D01*
X88684648Y-87342084D01*
X88681921Y-87327386D01*
X88669687Y-87324063D01*
X87785489Y-87324063D01*
X87770250Y-87328538D01*
X87769045Y-87329928D01*
X87767374Y-87337611D01*
X87767374Y-87932948D01*
X87513374Y-87932948D01*
X87513374Y-87203661D01*
X93865649Y-87203661D01*
X93866424Y-87213507D01*
X93878525Y-87289912D01*
X93884577Y-87308539D01*
X93931518Y-87400666D01*
X93943029Y-87416509D01*
X94016139Y-87489619D01*
X94031982Y-87501130D01*
X94124109Y-87548071D01*
X94142736Y-87554123D01*
X94219141Y-87566224D01*
X94228987Y-87566999D01*
X94244534Y-87566999D01*
X94259773Y-87562524D01*
X94260978Y-87561134D01*
X94262649Y-87553451D01*
X94262649Y-87138114D01*
X94258174Y-87122875D01*
X94256784Y-87121670D01*
X94249101Y-87119999D01*
X93883764Y-87119999D01*
X93868525Y-87124474D01*
X93867320Y-87125864D01*
X93865649Y-87133547D01*
X93865649Y-87203661D01*
X87513374Y-87203661D01*
X87513374Y-87051948D01*
X87767374Y-87051948D01*
X87771849Y-87067187D01*
X87773239Y-87068392D01*
X87780922Y-87070063D01*
X88668280Y-87070063D01*
X88682597Y-87065859D01*
X88684656Y-87053302D01*
X88684525Y-87052042D01*
X90526100Y-87052042D01*
X90528827Y-87066740D01*
X90541061Y-87070063D01*
X91675259Y-87070063D01*
X91690498Y-87065588D01*
X91691703Y-87064198D01*
X91693374Y-87056515D01*
X91693374Y-87051948D01*
X91947374Y-87051948D01*
X91951849Y-87067187D01*
X91953239Y-87068392D01*
X91960922Y-87070063D01*
X93098280Y-87070063D01*
X93112597Y-87065859D01*
X93114656Y-87053302D01*
X93114176Y-87048679D01*
X93111283Y-87035284D01*
X93060137Y-86881982D01*
X93053971Y-86868818D01*
X93041017Y-86847884D01*
X93865649Y-86847884D01*
X93870124Y-86863123D01*
X93871514Y-86864328D01*
X93879197Y-86865999D01*
X94244534Y-86865999D01*
X94259773Y-86861524D01*
X94260978Y-86860134D01*
X94262649Y-86852451D01*
X94262649Y-86437114D01*
X94258174Y-86421875D01*
X94256784Y-86420670D01*
X94249101Y-86418999D01*
X94228987Y-86418999D01*
X94219141Y-86419774D01*
X94142736Y-86431875D01*
X94124109Y-86437927D01*
X94031982Y-86484868D01*
X94016139Y-86496379D01*
X93943029Y-86569489D01*
X93931518Y-86585332D01*
X93884577Y-86677459D01*
X93878525Y-86696086D01*
X93866424Y-86772491D01*
X93865649Y-86782337D01*
X93865649Y-86847884D01*
X93041017Y-86847884D01*
X92969151Y-86731749D01*
X92960124Y-86720360D01*
X92846048Y-86606483D01*
X92834638Y-86597472D01*
X92697431Y-86512898D01*
X92684248Y-86506750D01*
X92530841Y-86455867D01*
X92517480Y-86453002D01*
X92423670Y-86443391D01*
X92417255Y-86443063D01*
X91965489Y-86443063D01*
X91950250Y-86447538D01*
X91949045Y-86448928D01*
X91947374Y-86456611D01*
X91947374Y-87051948D01*
X91693374Y-87051948D01*
X91693374Y-86461178D01*
X91688899Y-86445939D01*
X91687509Y-86444734D01*
X91679826Y-86443063D01*
X91223543Y-86443063D01*
X91217024Y-86443400D01*
X91121990Y-86453261D01*
X91108595Y-86456154D01*
X90955293Y-86507300D01*
X90942129Y-86513466D01*
X90805060Y-86598286D01*
X90793671Y-86607313D01*
X90679794Y-86721389D01*
X90670783Y-86732799D01*
X90586209Y-86870006D01*
X90580061Y-86883189D01*
X90529179Y-87036593D01*
X90526313Y-87049959D01*
X90526100Y-87052042D01*
X88684525Y-87052042D01*
X88684176Y-87048679D01*
X88681283Y-87035284D01*
X88630137Y-86881982D01*
X88623971Y-86868818D01*
X88539151Y-86731749D01*
X88530124Y-86720360D01*
X88416048Y-86606483D01*
X88404638Y-86597472D01*
X88267431Y-86512898D01*
X88254248Y-86506750D01*
X88100841Y-86455867D01*
X88087480Y-86453002D01*
X87993670Y-86443391D01*
X87987255Y-86443063D01*
X87785489Y-86443063D01*
X87770250Y-86447538D01*
X87769045Y-86448928D01*
X87767374Y-86456611D01*
X87767374Y-87051948D01*
X87513374Y-87051948D01*
X87513374Y-86461178D01*
X87508899Y-86445939D01*
X87507509Y-86444734D01*
X87499826Y-86443063D01*
X87293543Y-86443063D01*
X87287024Y-86443400D01*
X87191990Y-86453261D01*
X87178595Y-86456154D01*
X87033877Y-86504436D01*
X86962927Y-86507021D01*
X86901843Y-86470838D01*
X86870018Y-86407374D01*
X86868000Y-86384913D01*
X86868000Y-85566626D01*
X86888002Y-85498505D01*
X86915807Y-85467824D01*
X86950085Y-85440696D01*
X86974877Y-85425374D01*
X87057444Y-85386739D01*
X87083118Y-85374726D01*
X87110767Y-85365510D01*
X87227759Y-85341084D01*
X87256782Y-85338467D01*
X87357429Y-85341084D01*
G37*
%TD.AperFunction*%
%TA.AperFunction,Conductor*%
G36*
X105144643Y-87677002D02*
G01*
X105191136Y-87730658D01*
X105201240Y-87800932D01*
X105190577Y-87836548D01*
X105180398Y-87858230D01*
X105176583Y-87866356D01*
X105175203Y-87875220D01*
X105175202Y-87875223D01*
X105155798Y-87999848D01*
X105154350Y-88009147D01*
X105155514Y-88018049D01*
X105155514Y-88018052D01*
X105165197Y-88092097D01*
X105170404Y-88131909D01*
X105171998Y-88144101D01*
X105160998Y-88214240D01*
X105113824Y-88267298D01*
X105061229Y-88284261D01*
X105061392Y-88285500D01*
X105022958Y-88290560D01*
X105022957Y-88290560D01*
X105013404Y-88291818D01*
X105004672Y-88295890D01*
X105004671Y-88295890D01*
X104922131Y-88334379D01*
X104908091Y-88340926D01*
X104825926Y-88423091D01*
X104821267Y-88433083D01*
X104821266Y-88433084D01*
X104781800Y-88517721D01*
X104776818Y-88528404D01*
X104770500Y-88576392D01*
X104770500Y-88803608D01*
X104776818Y-88851596D01*
X104793211Y-88886752D01*
X104803872Y-88956942D01*
X104793212Y-88993246D01*
X104776818Y-89028404D01*
X104770500Y-89076392D01*
X104770500Y-89080514D01*
X104770230Y-89084633D01*
X104768838Y-89084542D01*
X104750498Y-89147001D01*
X104696842Y-89193494D01*
X104626568Y-89203598D01*
X104608139Y-89198149D01*
X104607790Y-89199317D01*
X104477938Y-89160482D01*
X104477936Y-89160482D01*
X104469337Y-89157910D01*
X104460363Y-89157855D01*
X104460361Y-89157855D01*
X104397082Y-89157469D01*
X104324827Y-89157028D01*
X104316196Y-89159495D01*
X104316194Y-89159495D01*
X104194509Y-89194272D01*
X104194505Y-89194274D01*
X104185879Y-89196739D01*
X104178292Y-89201526D01*
X104178290Y-89201527D01*
X104071254Y-89269062D01*
X104063661Y-89273853D01*
X104057718Y-89280582D01*
X104057717Y-89280583D01*
X104014023Y-89330057D01*
X103967999Y-89382170D01*
X103964185Y-89390293D01*
X103964184Y-89390295D01*
X103945799Y-89429454D01*
X103906583Y-89512982D01*
X103905203Y-89521846D01*
X103905202Y-89521849D01*
X103887362Y-89636430D01*
X103884350Y-89655773D01*
X103885514Y-89664675D01*
X103885514Y-89664678D01*
X103899561Y-89772093D01*
X103903088Y-89799065D01*
X103961289Y-89931339D01*
X103967063Y-89938208D01*
X104046190Y-90032340D01*
X104054276Y-90041960D01*
X104061747Y-90046933D01*
X104061748Y-90046934D01*
X104167101Y-90117063D01*
X104167103Y-90117064D01*
X104174574Y-90122037D01*
X104183138Y-90124713D01*
X104183141Y-90124714D01*
X104303944Y-90162456D01*
X104303946Y-90162456D01*
X104312510Y-90165132D01*
X104321484Y-90165297D01*
X104327989Y-90166350D01*
X104396940Y-90201634D01*
X104615522Y-90420216D01*
X104630664Y-90438964D01*
X104631779Y-90440189D01*
X104637429Y-90448940D01*
X104645607Y-90455387D01*
X104645609Y-90455389D01*
X104663800Y-90469729D01*
X104668241Y-90473675D01*
X104668303Y-90473602D01*
X104672267Y-90476961D01*
X104675944Y-90480638D01*
X104691692Y-90491892D01*
X104696362Y-90495398D01*
X104736647Y-90527156D01*
X104740612Y-90528549D01*
X104769460Y-90551581D01*
X104775864Y-90558796D01*
X104790503Y-90563000D01*
X104819208Y-90563000D01*
X104845726Y-90565822D01*
X104848372Y-90566392D01*
X104855851Y-90569018D01*
X104857477Y-90569159D01*
X104917402Y-90601713D01*
X104951561Y-90663952D01*
X104946648Y-90734778D01*
X104904224Y-90791706D01*
X104837757Y-90816659D01*
X104828498Y-90817000D01*
X104790886Y-90817000D01*
X104777115Y-90821044D01*
X104775086Y-90834582D01*
X104776273Y-90843600D01*
X104765333Y-90913749D01*
X104718205Y-90966847D01*
X104649851Y-90986037D01*
X104608011Y-90976576D01*
X104607790Y-90977317D01*
X104477938Y-90938482D01*
X104477936Y-90938482D01*
X104469337Y-90935910D01*
X104460363Y-90935855D01*
X104460361Y-90935855D01*
X104397082Y-90935469D01*
X104324827Y-90935028D01*
X104316196Y-90937495D01*
X104316194Y-90937495D01*
X104194509Y-90972272D01*
X104194505Y-90972274D01*
X104185879Y-90974739D01*
X104178292Y-90979526D01*
X104178290Y-90979527D01*
X104103323Y-91026828D01*
X104063661Y-91051853D01*
X104057718Y-91058582D01*
X104057717Y-91058583D01*
X104033597Y-91085894D01*
X103967999Y-91160170D01*
X103964185Y-91168293D01*
X103964184Y-91168295D01*
X103954032Y-91189919D01*
X103906583Y-91290982D01*
X103905203Y-91299846D01*
X103905202Y-91299849D01*
X103887443Y-91413909D01*
X103884350Y-91433773D01*
X103885514Y-91442675D01*
X103885514Y-91442678D01*
X103896725Y-91528404D01*
X103903088Y-91577065D01*
X103906701Y-91585277D01*
X103906703Y-91585283D01*
X103928031Y-91633754D01*
X103937158Y-91704162D01*
X103906772Y-91768327D01*
X103846518Y-91805877D01*
X103812702Y-91810500D01*
X102427925Y-91810500D01*
X102403967Y-91807950D01*
X102402308Y-91807872D01*
X102392124Y-91805679D01*
X102381782Y-91806903D01*
X102381779Y-91806903D01*
X102358779Y-91809626D01*
X102352848Y-91809976D01*
X102352856Y-91810072D01*
X102347680Y-91810500D01*
X102342476Y-91810500D01*
X102323412Y-91813673D01*
X102317566Y-91814504D01*
X102314956Y-91814813D01*
X102266659Y-91820530D01*
X102258407Y-91824493D01*
X102249374Y-91825996D01*
X102240205Y-91830943D01*
X102240203Y-91830944D01*
X102204255Y-91850341D01*
X102199002Y-91853018D01*
X102152769Y-91875219D01*
X102148493Y-91878813D01*
X102146553Y-91880753D01*
X102144641Y-91882507D01*
X102144552Y-91882555D01*
X102144440Y-91882432D01*
X102143904Y-91882905D01*
X102138186Y-91885990D01*
X102131119Y-91893635D01*
X102101584Y-91925586D01*
X102098154Y-91929152D01*
X101225711Y-92801595D01*
X101163399Y-92835621D01*
X101136616Y-92838500D01*
X100963388Y-92838500D01*
X100894856Y-92818232D01*
X100805324Y-92760200D01*
X100805322Y-92760199D01*
X100797790Y-92755317D01*
X100780921Y-92750272D01*
X100667938Y-92716482D01*
X100667936Y-92716482D01*
X100659337Y-92713910D01*
X100650363Y-92713855D01*
X100650361Y-92713855D01*
X100587082Y-92713469D01*
X100514827Y-92713028D01*
X100506196Y-92715495D01*
X100506194Y-92715495D01*
X100384509Y-92750272D01*
X100384505Y-92750274D01*
X100375879Y-92752739D01*
X100368292Y-92757526D01*
X100368290Y-92757527D01*
X100272079Y-92818232D01*
X100253661Y-92829853D01*
X100247718Y-92836582D01*
X100247717Y-92836583D01*
X100222654Y-92864962D01*
X100157999Y-92938170D01*
X100154185Y-92946293D01*
X100154184Y-92946295D01*
X100129731Y-92998378D01*
X100096583Y-93068982D01*
X100095203Y-93077846D01*
X100095202Y-93077849D01*
X100076097Y-93200554D01*
X100074350Y-93211773D01*
X100075514Y-93220675D01*
X100075514Y-93220678D01*
X100091705Y-93344486D01*
X100093088Y-93355065D01*
X100151289Y-93487339D01*
X100157063Y-93494208D01*
X100232767Y-93584268D01*
X100244276Y-93597960D01*
X100251747Y-93602933D01*
X100251748Y-93602934D01*
X100357101Y-93673063D01*
X100357103Y-93673064D01*
X100364574Y-93678037D01*
X100373138Y-93680713D01*
X100373141Y-93680714D01*
X100433542Y-93699585D01*
X100502510Y-93721132D01*
X100646998Y-93723780D01*
X100668188Y-93718003D01*
X100777763Y-93688130D01*
X100777765Y-93688129D01*
X100786422Y-93685769D01*
X100899848Y-93616125D01*
X100965776Y-93597500D01*
X101292080Y-93597500D01*
X101316028Y-93600049D01*
X101317693Y-93600128D01*
X101327876Y-93602320D01*
X101338217Y-93601096D01*
X101361223Y-93598373D01*
X101367154Y-93598023D01*
X101367146Y-93597928D01*
X101372324Y-93597500D01*
X101377524Y-93597500D01*
X101382653Y-93596646D01*
X101382656Y-93596646D01*
X101396565Y-93594331D01*
X101402443Y-93593494D01*
X101443001Y-93588694D01*
X101443002Y-93588694D01*
X101453341Y-93587470D01*
X101461593Y-93583507D01*
X101470626Y-93582004D01*
X101479795Y-93577057D01*
X101479797Y-93577056D01*
X101515732Y-93557666D01*
X101521025Y-93554969D01*
X101560082Y-93536215D01*
X101560086Y-93536212D01*
X101567232Y-93532781D01*
X101571508Y-93529186D01*
X101573431Y-93527263D01*
X101575363Y-93525491D01*
X101575442Y-93525448D01*
X101575555Y-93525572D01*
X101576095Y-93525096D01*
X101581814Y-93522010D01*
X101618417Y-93482413D01*
X101621846Y-93478848D01*
X102494289Y-92606405D01*
X102556601Y-92572379D01*
X102583384Y-92569500D01*
X104644500Y-92569500D01*
X104712621Y-92589502D01*
X104759114Y-92643158D01*
X104770500Y-92695500D01*
X104770500Y-92803608D01*
X104776818Y-92851596D01*
X104793211Y-92886752D01*
X104803872Y-92956942D01*
X104793212Y-92993246D01*
X104776818Y-93028404D01*
X104770500Y-93076392D01*
X104770500Y-93303608D01*
X104776818Y-93351596D01*
X104793211Y-93386752D01*
X104803872Y-93456942D01*
X104793212Y-93493246D01*
X104776818Y-93528404D01*
X104770500Y-93576392D01*
X104770500Y-93803608D01*
X104776818Y-93851596D01*
X104793211Y-93886752D01*
X104803872Y-93956942D01*
X104793212Y-93993246D01*
X104776818Y-94028404D01*
X104770500Y-94076392D01*
X104770500Y-94303608D01*
X104776818Y-94351596D01*
X104780890Y-94360328D01*
X104780890Y-94360329D01*
X104799084Y-94399346D01*
X104825926Y-94456909D01*
X104908091Y-94539074D01*
X104918083Y-94543733D01*
X104918084Y-94543734D01*
X105004671Y-94584110D01*
X105004672Y-94584110D01*
X105013404Y-94588182D01*
X105022957Y-94589440D01*
X105032215Y-94592138D01*
X105031250Y-94595450D01*
X105080358Y-94617191D01*
X105119433Y-94676467D01*
X105120259Y-94747459D01*
X105088053Y-94802463D01*
X105031769Y-94858747D01*
X104969457Y-94892773D01*
X104966871Y-94893231D01*
X104959877Y-94893188D01*
X104892826Y-94912351D01*
X104821833Y-94911839D01*
X104762385Y-94873025D01*
X104744008Y-94844452D01*
X104703734Y-94758084D01*
X104703733Y-94758083D01*
X104699074Y-94748091D01*
X104616909Y-94665926D01*
X104606916Y-94661266D01*
X104520329Y-94620890D01*
X104520328Y-94620890D01*
X104511596Y-94616818D01*
X104502043Y-94615560D01*
X104502042Y-94615560D01*
X104467694Y-94611038D01*
X104467695Y-94611038D01*
X104463608Y-94610500D01*
X104236392Y-94610500D01*
X104232305Y-94611038D01*
X104232306Y-94611038D01*
X104197958Y-94615560D01*
X104197957Y-94615560D01*
X104188404Y-94616818D01*
X104179672Y-94620890D01*
X104179668Y-94620891D01*
X104152658Y-94633486D01*
X104082467Y-94644147D01*
X104046159Y-94633486D01*
X104020201Y-94621382D01*
X104001907Y-94616050D01*
X103994961Y-94615135D01*
X103980778Y-94617347D01*
X103977000Y-94630503D01*
X103977000Y-94771467D01*
X103965190Y-94824727D01*
X103964190Y-94826871D01*
X103917268Y-94880152D01*
X103848989Y-94899607D01*
X103781031Y-94879059D01*
X103735810Y-94826871D01*
X103734810Y-94824727D01*
X103723000Y-94771467D01*
X103723000Y-94630886D01*
X103718956Y-94617115D01*
X103705417Y-94615086D01*
X103698093Y-94616050D01*
X103679799Y-94621382D01*
X103653841Y-94633486D01*
X103583649Y-94644147D01*
X103547342Y-94633486D01*
X103520332Y-94620891D01*
X103520328Y-94620890D01*
X103511596Y-94616818D01*
X103502043Y-94615560D01*
X103502042Y-94615560D01*
X103467694Y-94611038D01*
X103467695Y-94611038D01*
X103463608Y-94610500D01*
X103236392Y-94610500D01*
X103188404Y-94616818D01*
X103153248Y-94633211D01*
X103083058Y-94643872D01*
X103046754Y-94633212D01*
X103011596Y-94616818D01*
X102963608Y-94610500D01*
X102736392Y-94610500D01*
X102688404Y-94616818D01*
X102653248Y-94633211D01*
X102583058Y-94643872D01*
X102546754Y-94633212D01*
X102511596Y-94616818D01*
X102463608Y-94610500D01*
X102236392Y-94610500D01*
X102188404Y-94616818D01*
X102153248Y-94633211D01*
X102083058Y-94643872D01*
X102046754Y-94633212D01*
X102011596Y-94616818D01*
X101963608Y-94610500D01*
X101736392Y-94610500D01*
X101688404Y-94616818D01*
X101653248Y-94633211D01*
X101583058Y-94643872D01*
X101546754Y-94633212D01*
X101511596Y-94616818D01*
X101463608Y-94610500D01*
X101236392Y-94610500D01*
X101188404Y-94616818D01*
X101153248Y-94633211D01*
X101083058Y-94643872D01*
X101046754Y-94633212D01*
X101011596Y-94616818D01*
X100963608Y-94610500D01*
X100736392Y-94610500D01*
X100688404Y-94616818D01*
X100653248Y-94633211D01*
X100583058Y-94643872D01*
X100546754Y-94633212D01*
X100511596Y-94616818D01*
X100463608Y-94610500D01*
X100355500Y-94610500D01*
X100287379Y-94590498D01*
X100240886Y-94536842D01*
X100231721Y-94494708D01*
X100229928Y-94494856D01*
X100229500Y-94489680D01*
X100229500Y-94484476D01*
X100226327Y-94465412D01*
X100225496Y-94459566D01*
X100223057Y-94438964D01*
X100219470Y-94408659D01*
X100215507Y-94400407D01*
X100214004Y-94391374D01*
X100208720Y-94381580D01*
X100189666Y-94346268D01*
X100186969Y-94340975D01*
X100168215Y-94301919D01*
X100168214Y-94301918D01*
X100164781Y-94294768D01*
X100161187Y-94290493D01*
X100159262Y-94288568D01*
X100157491Y-94286638D01*
X100157445Y-94286553D01*
X100157568Y-94286441D01*
X100157096Y-94285906D01*
X100154010Y-94280186D01*
X100114413Y-94243583D01*
X100110848Y-94240154D01*
X99830478Y-93959784D01*
X99815336Y-93941036D01*
X99814221Y-93939811D01*
X99808571Y-93931060D01*
X99800393Y-93924613D01*
X99800391Y-93924611D01*
X99782200Y-93910271D01*
X99777759Y-93906325D01*
X99777697Y-93906398D01*
X99773733Y-93903039D01*
X99770056Y-93899362D01*
X99754308Y-93888108D01*
X99749638Y-93884602D01*
X99709353Y-93852844D01*
X99700719Y-93849812D01*
X99693266Y-93844486D01*
X99644150Y-93829797D01*
X99638508Y-93827964D01*
X99597633Y-93813610D01*
X99597632Y-93813610D01*
X99590149Y-93810982D01*
X99584584Y-93810500D01*
X99581876Y-93810500D01*
X99579242Y-93810386D01*
X99579144Y-93810357D01*
X99579151Y-93810193D01*
X99578447Y-93810149D01*
X99572222Y-93808287D01*
X99518365Y-93810403D01*
X99513418Y-93810500D01*
X98448478Y-93810500D01*
X98380357Y-93790498D01*
X98333864Y-93736842D01*
X98323760Y-93666568D01*
X98353254Y-93601988D01*
X98413325Y-93563503D01*
X98422990Y-93560695D01*
X98433341Y-93559470D01*
X98441593Y-93555507D01*
X98450626Y-93554004D01*
X98459795Y-93549057D01*
X98459797Y-93549056D01*
X98495732Y-93529666D01*
X98501025Y-93526969D01*
X98540082Y-93508215D01*
X98540086Y-93508212D01*
X98547232Y-93504781D01*
X98551508Y-93501186D01*
X98553431Y-93499263D01*
X98555363Y-93497491D01*
X98555442Y-93497448D01*
X98555555Y-93497572D01*
X98556095Y-93497096D01*
X98561814Y-93494010D01*
X98598417Y-93454413D01*
X98601846Y-93450848D01*
X98803222Y-93249472D01*
X98865055Y-93215708D01*
X98868998Y-93215780D01*
X98952823Y-93192927D01*
X98999763Y-93180130D01*
X98999765Y-93180129D01*
X99008422Y-93177769D01*
X99131572Y-93102154D01*
X99146934Y-93085183D01*
X99159601Y-93071188D01*
X99228551Y-92995014D01*
X99266406Y-92916880D01*
X99287645Y-92873043D01*
X99287645Y-92873042D01*
X99291560Y-92864962D01*
X99315536Y-92722453D01*
X99315688Y-92710000D01*
X99295201Y-92566948D01*
X99235388Y-92435395D01*
X99229530Y-92428596D01*
X99229527Y-92428592D01*
X99146916Y-92332718D01*
X99146913Y-92332716D01*
X99141056Y-92325918D01*
X99080423Y-92286617D01*
X99027324Y-92252200D01*
X99027322Y-92252199D01*
X99019790Y-92247317D01*
X98967053Y-92231545D01*
X98889938Y-92208482D01*
X98889936Y-92208482D01*
X98881337Y-92205910D01*
X98872363Y-92205855D01*
X98872361Y-92205855D01*
X98809082Y-92205469D01*
X98736827Y-92205028D01*
X98728196Y-92207495D01*
X98728194Y-92207495D01*
X98597879Y-92244739D01*
X98597485Y-92243362D01*
X98536600Y-92251633D01*
X98472250Y-92221639D01*
X98434332Y-92161617D01*
X98429500Y-92127059D01*
X98429500Y-92076392D01*
X98423182Y-92028404D01*
X98406789Y-91993248D01*
X98396128Y-91923058D01*
X98406788Y-91886754D01*
X98423182Y-91851596D01*
X98429500Y-91803608D01*
X98429500Y-91576392D01*
X98423182Y-91528404D01*
X98406789Y-91493248D01*
X98396128Y-91423058D01*
X98406788Y-91386754D01*
X98423182Y-91351596D01*
X98429500Y-91303608D01*
X98429500Y-91076392D01*
X98423182Y-91028404D01*
X98406789Y-90993248D01*
X98396128Y-90923058D01*
X98406788Y-90886754D01*
X98423182Y-90851596D01*
X98429500Y-90803608D01*
X98429500Y-90576392D01*
X98423182Y-90528404D01*
X98406789Y-90493248D01*
X98396128Y-90423058D01*
X98406788Y-90386754D01*
X98423182Y-90351596D01*
X98426156Y-90329007D01*
X98454879Y-90264080D01*
X98514144Y-90224989D01*
X98588652Y-90225187D01*
X98715940Y-90264955D01*
X98715943Y-90264956D01*
X98724510Y-90267632D01*
X98868998Y-90270280D01*
X98921443Y-90255982D01*
X98999763Y-90234630D01*
X98999765Y-90234629D01*
X99008422Y-90232269D01*
X99131572Y-90156654D01*
X99228551Y-90049514D01*
X99282862Y-89937415D01*
X99287645Y-89927543D01*
X99287645Y-89927542D01*
X99291560Y-89919462D01*
X99315536Y-89776953D01*
X99315688Y-89764500D01*
X99308364Y-89713362D01*
X99318506Y-89643095D01*
X99365028Y-89589465D01*
X99433091Y-89569500D01*
X102186765Y-89569500D01*
X102210713Y-89572049D01*
X102212378Y-89572128D01*
X102222561Y-89574320D01*
X102232902Y-89573096D01*
X102255908Y-89570373D01*
X102261839Y-89570023D01*
X102261831Y-89569928D01*
X102267009Y-89569500D01*
X102272209Y-89569500D01*
X102277338Y-89568646D01*
X102277341Y-89568646D01*
X102291250Y-89566331D01*
X102297128Y-89565494D01*
X102337686Y-89560694D01*
X102337687Y-89560694D01*
X102348026Y-89559470D01*
X102356278Y-89555507D01*
X102365311Y-89554004D01*
X102374480Y-89549057D01*
X102374482Y-89549056D01*
X102410417Y-89529666D01*
X102415710Y-89526969D01*
X102454767Y-89508215D01*
X102454771Y-89508212D01*
X102461917Y-89504781D01*
X102466193Y-89501186D01*
X102468116Y-89499263D01*
X102470048Y-89497491D01*
X102470127Y-89497448D01*
X102470240Y-89497572D01*
X102470780Y-89497096D01*
X102476499Y-89494010D01*
X102497423Y-89471375D01*
X102507337Y-89460650D01*
X102513102Y-89454413D01*
X102516531Y-89450848D01*
X103580216Y-88387163D01*
X103598964Y-88372021D01*
X103600189Y-88370906D01*
X103608940Y-88365256D01*
X103615387Y-88357078D01*
X103615389Y-88357076D01*
X103629729Y-88338885D01*
X103633678Y-88334441D01*
X103633604Y-88334379D01*
X103636957Y-88330422D01*
X103640638Y-88326741D01*
X103643856Y-88322238D01*
X103643963Y-88322154D01*
X103647023Y-88318543D01*
X103647767Y-88319173D01*
X103699738Y-88278446D01*
X103746368Y-88269500D01*
X103963608Y-88269500D01*
X104011596Y-88263182D01*
X104046752Y-88246789D01*
X104116942Y-88236128D01*
X104153246Y-88246788D01*
X104188404Y-88263182D01*
X104236392Y-88269500D01*
X104463608Y-88269500D01*
X104480333Y-88267298D01*
X104502042Y-88264440D01*
X104502043Y-88264440D01*
X104511596Y-88263182D01*
X104520328Y-88259110D01*
X104520329Y-88259110D01*
X104606916Y-88218734D01*
X104606917Y-88218733D01*
X104616909Y-88214074D01*
X104699074Y-88131909D01*
X104704367Y-88120558D01*
X104744110Y-88035329D01*
X104744110Y-88035328D01*
X104748182Y-88026596D01*
X104749660Y-88015374D01*
X104753962Y-87982694D01*
X104754500Y-87978608D01*
X104754500Y-87783000D01*
X104774502Y-87714879D01*
X104828158Y-87668386D01*
X104880500Y-87657000D01*
X105076522Y-87657000D01*
X105144643Y-87677002D01*
G37*
%TD.AperFunction*%
%TA.AperFunction,Conductor*%
G36*
X109332737Y-85997502D02*
G01*
X109353711Y-86014405D01*
X109731569Y-86392263D01*
X109765595Y-86454575D01*
X109768474Y-86481358D01*
X109768474Y-88188362D01*
X109748472Y-88256483D01*
X109731569Y-88277457D01*
X109669320Y-88339706D01*
X109664660Y-88349698D01*
X109664660Y-88349699D01*
X109625777Y-88433084D01*
X109619839Y-88445817D01*
X109613474Y-88494165D01*
X109613474Y-88726977D01*
X109619839Y-88775325D01*
X109631106Y-88799486D01*
X109636624Y-88811320D01*
X109647286Y-88881512D01*
X109636624Y-88917822D01*
X109619839Y-88953817D01*
X109613474Y-89002165D01*
X109613474Y-89234977D01*
X109619839Y-89283325D01*
X109623914Y-89292063D01*
X109636624Y-89319320D01*
X109647286Y-89389512D01*
X109636624Y-89425822D01*
X109619839Y-89461817D01*
X109618581Y-89471375D01*
X109614173Y-89504859D01*
X109613474Y-89510165D01*
X109613474Y-89742977D01*
X109619839Y-89791325D01*
X109623913Y-89800061D01*
X109623913Y-89800062D01*
X109655069Y-89866875D01*
X109669320Y-89897436D01*
X109709299Y-89937415D01*
X109743325Y-89999727D01*
X109744704Y-90045895D01*
X109729399Y-90144194D01*
X109726350Y-90163773D01*
X109727514Y-90172675D01*
X109727514Y-90172678D01*
X109743791Y-90297144D01*
X109745088Y-90307065D01*
X109785686Y-90399332D01*
X109793792Y-90417755D01*
X109802918Y-90488162D01*
X109772531Y-90552327D01*
X109764958Y-90559401D01*
X109762013Y-90560990D01*
X109754945Y-90568636D01*
X109725411Y-90600586D01*
X109721981Y-90604152D01*
X109547607Y-90778526D01*
X109485295Y-90812552D01*
X109414480Y-90807487D01*
X109357644Y-90764940D01*
X109332900Y-90699316D01*
X109332307Y-90691783D01*
X109320206Y-90615378D01*
X109314154Y-90596751D01*
X109267215Y-90504628D01*
X109261215Y-90496370D01*
X109237355Y-90429503D01*
X109253433Y-90360351D01*
X109256758Y-90355177D01*
X109261645Y-90350290D01*
X109317659Y-90240356D01*
X109320165Y-90224537D01*
X109325122Y-90193236D01*
X109332105Y-90149147D01*
X109332104Y-89717842D01*
X109325047Y-89673284D01*
X109319211Y-89636430D01*
X109319210Y-89636428D01*
X109317659Y-89626632D01*
X109261645Y-89516698D01*
X109256220Y-89511273D01*
X109232779Y-89445581D01*
X109248609Y-89377496D01*
X109249981Y-89376124D01*
X109278924Y-89319320D01*
X109303290Y-89271499D01*
X109303291Y-89271496D01*
X109307792Y-89262662D01*
X109322702Y-89168526D01*
X109322701Y-88760253D01*
X109307792Y-88666116D01*
X109249981Y-88552654D01*
X109247382Y-88550055D01*
X109224688Y-88486453D01*
X109240767Y-88417301D01*
X109246302Y-88408689D01*
X109252242Y-88402749D01*
X109256745Y-88393913D01*
X109286524Y-88335466D01*
X109308256Y-88292815D01*
X109310689Y-88277457D01*
X109315150Y-88249286D01*
X109322702Y-88201606D01*
X109322701Y-87770301D01*
X109321284Y-87761356D01*
X109309808Y-87688889D01*
X109309807Y-87688887D01*
X109308256Y-87679091D01*
X109252242Y-87569157D01*
X109246843Y-87563758D01*
X109223410Y-87498088D01*
X109239488Y-87428935D01*
X109242998Y-87423473D01*
X109247975Y-87418496D01*
X109270166Y-87374943D01*
X109301284Y-87313871D01*
X109301285Y-87313868D01*
X109305786Y-87305034D01*
X109320696Y-87210898D01*
X109320695Y-86802625D01*
X109305786Y-86708488D01*
X109247975Y-86595026D01*
X109157931Y-86504982D01*
X109071960Y-86461178D01*
X109053306Y-86451673D01*
X109053303Y-86451672D01*
X109044469Y-86447171D01*
X108950333Y-86432261D01*
X108771215Y-86432261D01*
X108592060Y-86432262D01*
X108497923Y-86447171D01*
X108384461Y-86504982D01*
X108374939Y-86514504D01*
X108371142Y-86516578D01*
X108369428Y-86517823D01*
X108369267Y-86517602D01*
X108312633Y-86548530D01*
X108241817Y-86543469D01*
X108196748Y-86514506D01*
X108194645Y-86512403D01*
X108178802Y-86500892D01*
X108083146Y-86452153D01*
X108064522Y-86446101D01*
X107985186Y-86433536D01*
X107975343Y-86432761D01*
X107946311Y-86432761D01*
X107931072Y-86437236D01*
X107929867Y-86438626D01*
X107928196Y-86446309D01*
X107928196Y-87007761D01*
X107908194Y-87075882D01*
X107854538Y-87122375D01*
X107802196Y-87133761D01*
X107800196Y-87133761D01*
X107732075Y-87113759D01*
X107685582Y-87060103D01*
X107674196Y-87007761D01*
X107674196Y-86450876D01*
X107669721Y-86435637D01*
X107668331Y-86434432D01*
X107660648Y-86432761D01*
X107627049Y-86432761D01*
X107617206Y-86433536D01*
X107537870Y-86446101D01*
X107519246Y-86452153D01*
X107423590Y-86500892D01*
X107407747Y-86512403D01*
X107331838Y-86588312D01*
X107320327Y-86604155D01*
X107271588Y-86699811D01*
X107265536Y-86718435D01*
X107252971Y-86797771D01*
X107252196Y-86807614D01*
X107252196Y-86862945D01*
X107232194Y-86931066D01*
X107178538Y-86977559D01*
X107108264Y-86987663D01*
X107048193Y-86961897D01*
X107020853Y-86940344D01*
X107012219Y-86937312D01*
X107004766Y-86931986D01*
X106955650Y-86917297D01*
X106950008Y-86915464D01*
X106909133Y-86901110D01*
X106909132Y-86901110D01*
X106901649Y-86898482D01*
X106896084Y-86898000D01*
X106893376Y-86898000D01*
X106890742Y-86897886D01*
X106890644Y-86897857D01*
X106890651Y-86897693D01*
X106889947Y-86897649D01*
X106883722Y-86895787D01*
X106829865Y-86897903D01*
X106824918Y-86898000D01*
X106141888Y-86898000D01*
X106073356Y-86877732D01*
X105983824Y-86819700D01*
X105983822Y-86819699D01*
X105976290Y-86814817D01*
X105952088Y-86807579D01*
X105846438Y-86775982D01*
X105846436Y-86775982D01*
X105837837Y-86773410D01*
X105828863Y-86773355D01*
X105828861Y-86773355D01*
X105765582Y-86772969D01*
X105693327Y-86772528D01*
X105684696Y-86774995D01*
X105684694Y-86774995D01*
X105563009Y-86809772D01*
X105563005Y-86809774D01*
X105554379Y-86812239D01*
X105469175Y-86865999D01*
X105449264Y-86878562D01*
X105382028Y-86898000D01*
X104880500Y-86898000D01*
X104812379Y-86877998D01*
X104765886Y-86824342D01*
X104754500Y-86772000D01*
X104754500Y-86576392D01*
X104750832Y-86548530D01*
X104749440Y-86537958D01*
X104749440Y-86537957D01*
X104748182Y-86528404D01*
X104742668Y-86516578D01*
X104703734Y-86433084D01*
X104703733Y-86433083D01*
X104699074Y-86423091D01*
X104616909Y-86340926D01*
X104606916Y-86336266D01*
X104520329Y-86295890D01*
X104520328Y-86295890D01*
X104511596Y-86291818D01*
X104502043Y-86290560D01*
X104502042Y-86290560D01*
X104474500Y-86286934D01*
X104463608Y-86285500D01*
X104293384Y-86285500D01*
X104225263Y-86265498D01*
X104178770Y-86211842D01*
X104168666Y-86141568D01*
X104198160Y-86076988D01*
X104204289Y-86070405D01*
X104260289Y-86014405D01*
X104322601Y-85980379D01*
X104349384Y-85977500D01*
X109264616Y-85977500D01*
X109332737Y-85997502D01*
G37*
%TD.AperFunction*%
%TA.AperFunction,Conductor*%
G36*
X96135291Y-89658427D02*
G01*
X96152869Y-89674676D01*
X96156435Y-89678104D01*
X96272799Y-89794467D01*
X96382754Y-89904422D01*
X96395256Y-89919902D01*
X96398195Y-89923132D01*
X96403845Y-89931882D01*
X96412028Y-89938333D01*
X96417783Y-89944657D01*
X96448837Y-90008502D01*
X96449514Y-90045905D01*
X96445500Y-90076392D01*
X96445500Y-90183993D01*
X96425498Y-90252114D01*
X96371842Y-90298607D01*
X96301568Y-90308711D01*
X96266348Y-90297847D01*
X96262845Y-90295086D01*
X96254777Y-90292253D01*
X96247817Y-90287279D01*
X96202116Y-90273612D01*
X96196467Y-90271776D01*
X96158971Y-90258608D01*
X96158972Y-90258608D01*
X96151494Y-90255982D01*
X96146298Y-90255532D01*
X96143593Y-90255532D01*
X96141337Y-90255435D01*
X96140861Y-90255292D01*
X96140863Y-90255246D01*
X96140664Y-90255233D01*
X96134747Y-90253464D01*
X96085113Y-90255414D01*
X96084578Y-90255435D01*
X96079632Y-90255532D01*
X95963785Y-90255532D01*
X95895664Y-90235530D01*
X95861847Y-90203590D01*
X95860743Y-90202070D01*
X95856242Y-90193236D01*
X95850020Y-90187014D01*
X95826371Y-90120729D01*
X95842454Y-90051578D01*
X95850231Y-90039476D01*
X95855634Y-90032040D01*
X95904370Y-89936389D01*
X95910422Y-89917765D01*
X95922987Y-89838429D01*
X95923762Y-89828586D01*
X95923762Y-89750951D01*
X95943764Y-89682830D01*
X95997420Y-89636337D01*
X96067694Y-89626233D01*
X96135291Y-89658427D01*
G37*
%TD.AperFunction*%
%TA.AperFunction,Conductor*%
G36*
X100418969Y-88000941D02*
G01*
X100464190Y-88053129D01*
X100465190Y-88055273D01*
X100477000Y-88108533D01*
X100477000Y-88249114D01*
X100481044Y-88262885D01*
X100494583Y-88264914D01*
X100501907Y-88263950D01*
X100520201Y-88258618D01*
X100546159Y-88246514D01*
X100616351Y-88235853D01*
X100652658Y-88246514D01*
X100679668Y-88259109D01*
X100679672Y-88259110D01*
X100688404Y-88263182D01*
X100697957Y-88264440D01*
X100697958Y-88264440D01*
X100719667Y-88267298D01*
X100736392Y-88269500D01*
X100963608Y-88269500D01*
X101011596Y-88263182D01*
X101046752Y-88246789D01*
X101116942Y-88236128D01*
X101153246Y-88246788D01*
X101188404Y-88263182D01*
X101236392Y-88269500D01*
X101463608Y-88269500D01*
X101511596Y-88263182D01*
X101546752Y-88246789D01*
X101616942Y-88236128D01*
X101653246Y-88246788D01*
X101688404Y-88263182D01*
X101736392Y-88269500D01*
X101963608Y-88269500D01*
X102011596Y-88263182D01*
X102046752Y-88246789D01*
X102116942Y-88236128D01*
X102153246Y-88246788D01*
X102188404Y-88263182D01*
X102236392Y-88269500D01*
X102320301Y-88269500D01*
X102388422Y-88289502D01*
X102434915Y-88343158D01*
X102445019Y-88413432D01*
X102415525Y-88478012D01*
X102409396Y-88484595D01*
X102120396Y-88773595D01*
X102058084Y-88807621D01*
X102031301Y-88810500D01*
X98555500Y-88810500D01*
X98487379Y-88790498D01*
X98440886Y-88736842D01*
X98429500Y-88684500D01*
X98429500Y-88576392D01*
X98423182Y-88528404D01*
X98418201Y-88517721D01*
X98378732Y-88433080D01*
X98374074Y-88423091D01*
X98369522Y-88418539D01*
X98347736Y-88353944D01*
X98365020Y-88285083D01*
X98380220Y-88264391D01*
X98397893Y-88244866D01*
X98413479Y-88227646D01*
X98474021Y-88190565D01*
X98545001Y-88192101D01*
X98576871Y-88207854D01*
X98583091Y-88214074D01*
X98630386Y-88236128D01*
X98679671Y-88259110D01*
X98679672Y-88259110D01*
X98688404Y-88263182D01*
X98697957Y-88264440D01*
X98697958Y-88264440D01*
X98719667Y-88267298D01*
X98736392Y-88269500D01*
X98963608Y-88269500D01*
X98980333Y-88267298D01*
X99002042Y-88264440D01*
X99002043Y-88264440D01*
X99011596Y-88263182D01*
X99020328Y-88259110D01*
X99020332Y-88259109D01*
X99047342Y-88246514D01*
X99117533Y-88235853D01*
X99153841Y-88246514D01*
X99179799Y-88258618D01*
X99198093Y-88263950D01*
X99205039Y-88264865D01*
X99219222Y-88262653D01*
X99223000Y-88249497D01*
X99223000Y-88108533D01*
X99234810Y-88055273D01*
X99235810Y-88053129D01*
X99282732Y-87999848D01*
X99351011Y-87980393D01*
X99418969Y-88000941D01*
X99464190Y-88053129D01*
X99465190Y-88055273D01*
X99477000Y-88108533D01*
X99477000Y-88249114D01*
X99481044Y-88262885D01*
X99494583Y-88264914D01*
X99501907Y-88263950D01*
X99520201Y-88258618D01*
X99546159Y-88246514D01*
X99616351Y-88235853D01*
X99652658Y-88246514D01*
X99679668Y-88259109D01*
X99679672Y-88259110D01*
X99688404Y-88263182D01*
X99697957Y-88264440D01*
X99697958Y-88264440D01*
X99719667Y-88267298D01*
X99736392Y-88269500D01*
X99963608Y-88269500D01*
X99980333Y-88267298D01*
X100002042Y-88264440D01*
X100002043Y-88264440D01*
X100011596Y-88263182D01*
X100020328Y-88259110D01*
X100020332Y-88259109D01*
X100047342Y-88246514D01*
X100117533Y-88235853D01*
X100153841Y-88246514D01*
X100179799Y-88258618D01*
X100198093Y-88263950D01*
X100205039Y-88264865D01*
X100219222Y-88262653D01*
X100223000Y-88249497D01*
X100223000Y-88108533D01*
X100234810Y-88055273D01*
X100235810Y-88053129D01*
X100282732Y-87999848D01*
X100351011Y-87980393D01*
X100418969Y-88000941D01*
G37*
%TD.AperFunction*%
%TA.AperFunction,Conductor*%
G36*
X106694237Y-87677002D02*
G01*
X106715211Y-87693905D01*
X107230547Y-88209241D01*
X107264573Y-88271553D01*
X107265901Y-88278628D01*
X107268148Y-88292815D01*
X107272649Y-88301648D01*
X107272649Y-88301649D01*
X107281257Y-88318543D01*
X107324162Y-88402749D01*
X107328797Y-88407384D01*
X107352029Y-88472491D01*
X107335951Y-88541643D01*
X107328169Y-88553752D01*
X107322331Y-88561787D01*
X107283544Y-88637911D01*
X107234796Y-88689526D01*
X107165881Y-88706592D01*
X107098679Y-88683691D01*
X107082182Y-88669803D01*
X106872163Y-88459784D01*
X106857021Y-88441036D01*
X106855906Y-88439811D01*
X106850256Y-88431060D01*
X106842078Y-88424613D01*
X106842076Y-88424611D01*
X106823885Y-88410271D01*
X106819444Y-88406325D01*
X106819382Y-88406398D01*
X106815418Y-88403039D01*
X106811741Y-88399362D01*
X106795993Y-88388108D01*
X106791323Y-88384602D01*
X106751038Y-88352844D01*
X106742404Y-88349812D01*
X106734951Y-88344486D01*
X106685835Y-88329797D01*
X106680193Y-88327964D01*
X106639318Y-88313610D01*
X106639317Y-88313610D01*
X106631834Y-88310982D01*
X106626269Y-88310500D01*
X106623561Y-88310500D01*
X106620927Y-88310386D01*
X106620829Y-88310357D01*
X106620836Y-88310193D01*
X106620132Y-88310149D01*
X106613907Y-88308287D01*
X106582637Y-88309516D01*
X106524440Y-88297807D01*
X106511596Y-88291818D01*
X106502043Y-88290560D01*
X106502042Y-88290560D01*
X106467694Y-88286038D01*
X106467695Y-88286038D01*
X106463608Y-88285500D01*
X106279154Y-88285500D01*
X106211033Y-88265498D01*
X106164540Y-88211842D01*
X106154900Y-88138595D01*
X106157041Y-88125871D01*
X106173536Y-88027827D01*
X106173688Y-88015374D01*
X106162538Y-87937515D01*
X106154474Y-87881209D01*
X106154473Y-87881207D01*
X106153201Y-87872322D01*
X106146794Y-87858230D01*
X106136301Y-87835150D01*
X106126315Y-87764859D01*
X106155916Y-87700328D01*
X106215707Y-87662044D01*
X106251002Y-87657000D01*
X106626116Y-87657000D01*
X106694237Y-87677002D01*
G37*
%TD.AperFunction*%
%TA.AperFunction,Conductor*%
G36*
X100010579Y-85997502D02*
G01*
X100031553Y-86014405D01*
X100091585Y-86074437D01*
X100125611Y-86136749D01*
X100120546Y-86207564D01*
X100077999Y-86264400D01*
X100011479Y-86289211D01*
X99986046Y-86288454D01*
X99963608Y-86285500D01*
X99736392Y-86285500D01*
X99725500Y-86286934D01*
X99697958Y-86290560D01*
X99697957Y-86290560D01*
X99688404Y-86291818D01*
X99679672Y-86295890D01*
X99679668Y-86295891D01*
X99652658Y-86308486D01*
X99582467Y-86319147D01*
X99546159Y-86308486D01*
X99520201Y-86296382D01*
X99501907Y-86291050D01*
X99494961Y-86290135D01*
X99480778Y-86292347D01*
X99477000Y-86305503D01*
X99477000Y-86446467D01*
X99465190Y-86499727D01*
X99464190Y-86501871D01*
X99417268Y-86555152D01*
X99348989Y-86574607D01*
X99281031Y-86554059D01*
X99235810Y-86501871D01*
X99234810Y-86499727D01*
X99223000Y-86446467D01*
X99223000Y-86305886D01*
X99218956Y-86292115D01*
X99205417Y-86290086D01*
X99198093Y-86291050D01*
X99179799Y-86296382D01*
X99153841Y-86308486D01*
X99083649Y-86319147D01*
X99047342Y-86308486D01*
X99020332Y-86295891D01*
X99020328Y-86295890D01*
X99011596Y-86291818D01*
X99002043Y-86290560D01*
X99002042Y-86290560D01*
X98974500Y-86286934D01*
X98963608Y-86285500D01*
X98736392Y-86285500D01*
X98725500Y-86286934D01*
X98697958Y-86290560D01*
X98697957Y-86290560D01*
X98688404Y-86291818D01*
X98679672Y-86295890D01*
X98679671Y-86295890D01*
X98593084Y-86336266D01*
X98583091Y-86340926D01*
X98500926Y-86423091D01*
X98496267Y-86433083D01*
X98496266Y-86433084D01*
X98457333Y-86516578D01*
X98451818Y-86528404D01*
X98450560Y-86537957D01*
X98450560Y-86537958D01*
X98449168Y-86548530D01*
X98445500Y-86576392D01*
X98445500Y-86890840D01*
X98425498Y-86958961D01*
X98412024Y-86976369D01*
X98378083Y-87013086D01*
X98374654Y-87016652D01*
X98046719Y-87344587D01*
X97984407Y-87378613D01*
X97981821Y-87379071D01*
X97974827Y-87379028D01*
X97914143Y-87396371D01*
X97844509Y-87416272D01*
X97844505Y-87416274D01*
X97835879Y-87418739D01*
X97828292Y-87423526D01*
X97828290Y-87423527D01*
X97724888Y-87488769D01*
X97713661Y-87495853D01*
X97707718Y-87502582D01*
X97707717Y-87502583D01*
X97650386Y-87567499D01*
X97617999Y-87604170D01*
X97614185Y-87612293D01*
X97614184Y-87612295D01*
X97586508Y-87671244D01*
X97556583Y-87734982D01*
X97555203Y-87743846D01*
X97555202Y-87743849D01*
X97536128Y-87866356D01*
X97534350Y-87877773D01*
X97535514Y-87886675D01*
X97535514Y-87886678D01*
X97547630Y-87979326D01*
X97536630Y-88049465D01*
X97489456Y-88102523D01*
X97421085Y-88121654D01*
X97353225Y-88100784D01*
X97333599Y-88084760D01*
X97056744Y-87807906D01*
X97044242Y-87792426D01*
X97041303Y-87789196D01*
X97035653Y-87780446D01*
X97011390Y-87761319D01*
X97007395Y-87757769D01*
X97007311Y-87757868D01*
X97003348Y-87754510D01*
X96999672Y-87750834D01*
X96989898Y-87743849D01*
X96985176Y-87740474D01*
X96980433Y-87736913D01*
X96951153Y-87713831D01*
X96951149Y-87713829D01*
X96942971Y-87707382D01*
X96934903Y-87704549D01*
X96927943Y-87699575D01*
X96882242Y-87685908D01*
X96876593Y-87684072D01*
X96847247Y-87673766D01*
X96831620Y-87668278D01*
X96826424Y-87667828D01*
X96823719Y-87667828D01*
X96821463Y-87667731D01*
X96820987Y-87667588D01*
X96820989Y-87667542D01*
X96820790Y-87667529D01*
X96814873Y-87665760D01*
X96765239Y-87667710D01*
X96764704Y-87667731D01*
X96759758Y-87667828D01*
X95909846Y-87667828D01*
X95841725Y-87647826D01*
X95795232Y-87594170D01*
X95785128Y-87523896D01*
X95814622Y-87459316D01*
X95820751Y-87452733D01*
X95863689Y-87409795D01*
X95898831Y-87340824D01*
X95915202Y-87308695D01*
X95915202Y-87308694D01*
X95919703Y-87299861D01*
X95924001Y-87272724D01*
X95954413Y-87208570D01*
X95959355Y-87203339D01*
X97148289Y-86014405D01*
X97210601Y-85980379D01*
X97237384Y-85977500D01*
X99942458Y-85977500D01*
X100010579Y-85997502D01*
G37*
%TD.AperFunction*%
%TD*%
M02*
