%TF.GenerationSoftware,KiCad,Pcbnew,(6.0.6-0)*%
%TF.CreationDate,2022-08-07T16:54:58+08:00*%
%TF.ProjectId,ST-Link-Nano,53542d4c-696e-46b2-9d4e-616e6f2e6b69,rev?*%
%TF.SameCoordinates,Original*%
%TF.FileFunction,Profile,NP*%
%FSLAX46Y46*%
G04 Gerber Fmt 4.6, Leading zero omitted, Abs format (unit mm)*
G04 Created by KiCad (PCBNEW (6.0.6-0)) date 2022-08-07 16:54:58*
%MOMM*%
%LPD*%
G01*
G04 APERTURE LIST*
%TA.AperFunction,Profile*%
%ADD10C,0.100000*%
%TD*%
%ADD11C,0.150000*%
%TA.AperFunction,Profile*%
%ADD12C,0.120000*%
%TD*%
G04 APERTURE END LIST*
D10*
X87426909Y-85090012D02*
G75*
G03*
X86410911Y-86106000I-127009J-888988D01*
G01*
X114554000Y-97790000D02*
X87426911Y-97790000D01*
X86410899Y-96773999D02*
G75*
G03*
X87426911Y-97790000I944701J-71301D01*
G01*
X114552829Y-85091817D02*
G75*
G03*
X114552829Y-85091817I-1J0D01*
G01*
X87426911Y-85090000D02*
X114552828Y-85091817D01*
X114554000Y-97790000D02*
G75*
G03*
X115570000Y-96774000I76800J939200D01*
G01*
X86410911Y-96774000D02*
X86410911Y-86106000D01*
X115570000Y-86106000D02*
X115570000Y-96774000D01*
X115570016Y-86106001D02*
G75*
G03*
X114552828Y-85091817I-937216J77201D01*
G01*
D11*
X97323788Y-81963619D02*
X97371407Y-81916000D01*
X97466645Y-81868380D01*
X97704740Y-81868380D01*
X97799978Y-81916000D01*
X97847597Y-81963619D01*
X97895216Y-82058857D01*
X97895216Y-82154095D01*
X97847597Y-82296952D01*
X97276169Y-82868380D01*
X97895216Y-82868380D01*
X98371407Y-82868380D02*
X98561883Y-82868380D01*
X98657121Y-82820761D01*
X98704740Y-82773142D01*
X98799978Y-82630285D01*
X98847597Y-82439809D01*
X98847597Y-82058857D01*
X98799978Y-81963619D01*
X98752359Y-81916000D01*
X98657121Y-81868380D01*
X98466645Y-81868380D01*
X98371407Y-81916000D01*
X98323788Y-81963619D01*
X98276169Y-82058857D01*
X98276169Y-82296952D01*
X98323788Y-82392190D01*
X98371407Y-82439809D01*
X98466645Y-82487428D01*
X98657121Y-82487428D01*
X98752359Y-82439809D01*
X98799978Y-82392190D01*
X98847597Y-82296952D01*
X99276169Y-82773142D02*
X99323788Y-82820761D01*
X99276169Y-82868380D01*
X99228550Y-82820761D01*
X99276169Y-82773142D01*
X99276169Y-82868380D01*
X100276169Y-82868380D02*
X99704740Y-82868380D01*
X99990455Y-82868380D02*
X99990455Y-81868380D01*
X99895216Y-82011238D01*
X99799978Y-82106476D01*
X99704740Y-82154095D01*
X101133312Y-81868380D02*
X100942835Y-81868380D01*
X100847597Y-81916000D01*
X100799978Y-81963619D01*
X100704740Y-82106476D01*
X100657121Y-82296952D01*
X100657121Y-82677904D01*
X100704740Y-82773142D01*
X100752359Y-82820761D01*
X100847597Y-82868380D01*
X101038074Y-82868380D01*
X101133312Y-82820761D01*
X101180931Y-82773142D01*
X101228550Y-82677904D01*
X101228550Y-82439809D01*
X101180931Y-82344571D01*
X101133312Y-82296952D01*
X101038074Y-82249333D01*
X100847597Y-82249333D01*
X100752359Y-82296952D01*
X100704740Y-82344571D01*
X100657121Y-82439809D01*
X102419026Y-82868380D02*
X102419026Y-82201714D01*
X102419026Y-82296952D02*
X102466645Y-82249333D01*
X102561883Y-82201714D01*
X102704740Y-82201714D01*
X102799978Y-82249333D01*
X102847597Y-82344571D01*
X102847597Y-82868380D01*
X102847597Y-82344571D02*
X102895216Y-82249333D01*
X102990455Y-82201714D01*
X103133312Y-82201714D01*
X103228550Y-82249333D01*
X103276169Y-82344571D01*
X103276169Y-82868380D01*
X103752359Y-82868380D02*
X103752359Y-82201714D01*
X103752359Y-82296952D02*
X103799978Y-82249333D01*
X103895216Y-82201714D01*
X104038074Y-82201714D01*
X104133312Y-82249333D01*
X104180931Y-82344571D01*
X104180931Y-82868380D01*
X104180931Y-82344571D02*
X104228550Y-82249333D01*
X104323788Y-82201714D01*
X104466645Y-82201714D01*
X104561883Y-82249333D01*
X104609502Y-82344571D01*
X104609502Y-82868380D01*
D10*
X86410911Y-85606000D02*
X86410911Y-82979580D01*
X115570000Y-85606000D02*
X115570000Y-82979580D01*
X86410911Y-83566000D02*
X115570000Y-83566000D01*
X86410911Y-83566000D02*
X115570000Y-83566000D01*
X86410911Y-83566000D02*
X87537415Y-84152421D01*
X86410911Y-83566000D02*
X87537415Y-82979579D01*
X115570000Y-83566000D02*
X114443496Y-82979579D01*
X115570000Y-83566000D02*
X114443496Y-84152421D01*
D11*
X118552746Y-88345300D02*
X118552693Y-87773872D01*
X118552719Y-88059586D02*
X119552719Y-88059494D01*
X119409854Y-87964269D01*
X119314607Y-87869039D01*
X119266979Y-87773806D01*
X119457543Y-88726169D02*
X119505166Y-88773784D01*
X119552794Y-88869017D01*
X119552816Y-89107113D01*
X119505206Y-89202355D01*
X119457591Y-89249979D01*
X119362358Y-89297606D01*
X119267119Y-89297615D01*
X119124258Y-89250009D01*
X118552777Y-88678634D01*
X118552834Y-89297681D01*
X118648111Y-89726244D02*
X118600497Y-89773867D01*
X118552873Y-89726253D01*
X118600488Y-89678629D01*
X118648111Y-89726244D01*
X118552873Y-89726253D01*
X119552908Y-90107113D02*
X119552970Y-90773779D01*
X118552930Y-90345300D01*
X119553023Y-91345208D02*
X119553032Y-91440446D01*
X119505421Y-91535688D01*
X119457807Y-91583312D01*
X119362573Y-91630940D01*
X119172101Y-91678576D01*
X118934006Y-91678598D01*
X118743525Y-91630997D01*
X118648283Y-91583387D01*
X118600659Y-91535772D01*
X118553032Y-91440538D01*
X118553023Y-91345300D01*
X118600633Y-91250058D01*
X118648248Y-91202434D01*
X118743481Y-91154806D01*
X118933953Y-91107170D01*
X119172048Y-91107148D01*
X119362529Y-91154749D01*
X119457771Y-91202360D01*
X119505395Y-91249974D01*
X119553023Y-91345208D01*
X118553163Y-92869110D02*
X119219830Y-92869048D01*
X119124592Y-92869057D02*
X119172215Y-92916672D01*
X119219843Y-93011905D01*
X119219856Y-93154762D01*
X119172246Y-93250005D01*
X119077012Y-93297633D01*
X118553203Y-93297681D01*
X119077012Y-93297633D02*
X119172255Y-93345243D01*
X119219883Y-93440477D01*
X119219896Y-93583334D01*
X119172286Y-93678576D01*
X119077052Y-93726204D01*
X118553243Y-93726253D01*
X118553286Y-94202443D02*
X119219953Y-94202381D01*
X119124715Y-94202390D02*
X119172338Y-94250005D01*
X119219966Y-94345239D01*
X119219979Y-94488096D01*
X119172369Y-94583338D01*
X119077136Y-94630966D01*
X118553326Y-94631014D01*
X119077136Y-94630966D02*
X119172378Y-94678576D01*
X119220006Y-94773810D01*
X119220019Y-94916667D01*
X119172409Y-95011910D01*
X119077175Y-95059538D01*
X118553366Y-95059586D01*
D10*
X115052828Y-85091771D02*
X118441247Y-85091458D01*
X115054000Y-97789954D02*
X118442419Y-97789641D01*
X117854827Y-85091512D02*
X117855999Y-97789695D01*
X117854827Y-85091512D02*
X117855999Y-97789695D01*
X117854827Y-85091512D02*
X117268510Y-86218070D01*
X117854827Y-85091512D02*
X118441352Y-86217962D01*
X117855999Y-97789695D02*
X118442316Y-96663137D01*
X117855999Y-97789695D02*
X117269474Y-96663245D01*
D12*
%TO.C,J1*%
X91645374Y-94412063D02*
G75*
G03*
X91645374Y-94412063I-325000J0D01*
G01*
X91645374Y-88632063D02*
G75*
G03*
X91645374Y-88632063I-325000J0D01*
G01*
%TD*%
M02*
